%TF.GenerationSoftware,KiCad,Pcbnew,8.0.6+1*%
%TF.CreationDate,2024-12-12T19:09:17+01:00*%
%TF.ProjectId,short,73686f72-742e-46b6-9963-61645f706362,0*%
%TF.SameCoordinates,Original*%
%TF.FileFunction,Copper,L1,Top*%
%TF.FilePolarity,Positive*%
%FSLAX46Y46*%
G04 Gerber Fmt 4.6, Leading zero omitted, Abs format (unit mm)*
G04 Created by KiCad (PCBNEW 8.0.6+1) date 2024-12-12 19:09:17*
%MOMM*%
%LPD*%
G01*
G04 APERTURE LIST*
G04 Aperture macros list*
%AMRoundRect*
0 Rectangle with rounded corners*
0 $1 Rounding radius*
0 $2 $3 $4 $5 $6 $7 $8 $9 X,Y pos of 4 corners*
0 Add a 4 corners polygon primitive as box body*
4,1,4,$2,$3,$4,$5,$6,$7,$8,$9,$2,$3,0*
0 Add four circle primitives for the rounded corners*
1,1,$1+$1,$2,$3*
1,1,$1+$1,$4,$5*
1,1,$1+$1,$6,$7*
1,1,$1+$1,$8,$9*
0 Add four rect primitives between the rounded corners*
20,1,$1+$1,$2,$3,$4,$5,0*
20,1,$1+$1,$4,$5,$6,$7,0*
20,1,$1+$1,$6,$7,$8,$9,0*
20,1,$1+$1,$8,$9,$2,$3,0*%
G04 Aperture macros list end*
%TA.AperFunction,EtchedComponent*%
%ADD10C,0.300000*%
%TD*%
%TA.AperFunction,ComponentPad*%
%ADD11R,1.600000X1.600000*%
%TD*%
%TA.AperFunction,ComponentPad*%
%ADD12O,1.600000X1.600000*%
%TD*%
%TA.AperFunction,ComponentPad*%
%ADD13C,1.600000*%
%TD*%
%TA.AperFunction,ConnectorPad*%
%ADD14RoundRect,0.762000X-0.000010X-1.738000X0.000010X-1.738000X0.000010X1.738000X-0.000010X1.738000X0*%
%TD*%
%TA.AperFunction,ConnectorPad*%
%ADD15RoundRect,0.228600X-0.533400X-2.271400X0.533400X-2.271400X0.533400X2.271400X-0.533400X2.271400X0*%
%TD*%
%TA.AperFunction,Conductor*%
%ADD16C,1.000000*%
%TD*%
%TA.AperFunction,Conductor*%
%ADD17C,0.250000*%
%TD*%
%ADD18C,0.350000*%
G04 APERTURE END LIST*
D10*
%TO.C,J1*%
X2540000Y762000D02*
X2540000Y1270000D01*
X5080000Y762000D02*
X5080000Y1270000D01*
X7620000Y762000D02*
X7620000Y1270000D01*
X10160000Y762000D02*
X10160000Y1270000D01*
X12700000Y762000D02*
X12700000Y1270000D01*
X15240000Y762000D02*
X15240000Y1270000D01*
X17780000Y762000D02*
X17780000Y1270000D01*
X20320000Y762000D02*
X20320000Y1270000D01*
X22860000Y762000D02*
X22860000Y1270000D01*
X27940000Y762000D02*
X27940000Y1270000D01*
X30480000Y762000D02*
X30480000Y1270000D01*
X33020000Y762000D02*
X33020000Y1270000D01*
X35560000Y762000D02*
X35560000Y1270000D01*
X38100000Y762000D02*
X38100000Y1270000D01*
%TD*%
D11*
%TO.P,IC2,1,VPP*%
%TO.N,VCC*%
X35560000Y29210000D03*
D12*
%TO.P,IC2,2,A12*%
%TO.N,/A12*%
X33020000Y29210000D03*
%TO.P,IC2,3,A7*%
%TO.N,/A7*%
X30480000Y29210000D03*
%TO.P,IC2,4,A6*%
%TO.N,/A6*%
X27940000Y29210000D03*
%TO.P,IC2,5,A5*%
%TO.N,/A5*%
X25400000Y29210000D03*
%TO.P,IC2,6,A4*%
%TO.N,/A4*%
X22860000Y29210000D03*
%TO.P,IC2,7,A3*%
%TO.N,/A3*%
X20320000Y29210000D03*
%TO.P,IC2,8,A2*%
%TO.N,/A2*%
X17780000Y29210000D03*
%TO.P,IC2,9,A1*%
%TO.N,/A1*%
X15240000Y29210000D03*
%TO.P,IC2,10,A0*%
%TO.N,/A0*%
X12700000Y29210000D03*
%TO.P,IC2,11,D0*%
%TO.N,/D0*%
X10160000Y29210000D03*
%TO.P,IC2,12,D1*%
%TO.N,/D1*%
X7620000Y29210000D03*
%TO.P,IC2,13,D2*%
%TO.N,/D2*%
X5080000Y29210000D03*
%TO.P,IC2,14,GND*%
%TO.N,GND*%
X2540000Y29210000D03*
%TO.P,IC2,15,D3*%
%TO.N,/D3*%
X2540000Y13970000D03*
%TO.P,IC2,16,D4*%
%TO.N,/D4*%
X5080000Y13970000D03*
%TO.P,IC2,17,D5*%
%TO.N,/D5*%
X7620000Y13970000D03*
%TO.P,IC2,18,D6*%
%TO.N,/D6*%
X10160000Y13970000D03*
%TO.P,IC2,19,D7*%
%TO.N,/D7*%
X12700000Y13970000D03*
%TO.P,IC2,20,~{CE}*%
%TO.N,/U2_CE*%
X15240000Y13970000D03*
%TO.P,IC2,21,A10*%
%TO.N,/A10*%
X17780000Y13970000D03*
%TO.P,IC2,22,~{OE}*%
%TO.N,/U_ROMOE*%
X20320000Y13970000D03*
%TO.P,IC2,23,A11*%
%TO.N,/A11*%
X22860000Y13970000D03*
%TO.P,IC2,24,A9*%
%TO.N,/A9*%
X25400000Y13970000D03*
%TO.P,IC2,25,A8*%
%TO.N,/A8*%
X27940000Y13970000D03*
%TO.P,IC2,26,A13*%
%TO.N,/A13*%
X30480000Y13970000D03*
%TO.P,IC2,27,~{PGM}*%
%TO.N,VCC*%
X33020000Y13970000D03*
%TO.P,IC2,28,VCC*%
X35560000Y13970000D03*
%TD*%
D13*
%TO.P,C2,1*%
%TO.N,VCC*%
X31750000Y34350000D03*
%TO.P,C2,2*%
%TO.N,GND*%
X31750000Y39350000D03*
%TD*%
D14*
%TO.P,J1,1,Vcc*%
%TO.N,VCC*%
X38100000Y5548000D03*
D15*
X38100000Y3810000D03*
D14*
%TO.P,J1,3,A14*%
%TO.N,/A14*%
X35560000Y5548000D03*
D15*
X35560000Y3770000D03*
D14*
%TO.P,J1,5,A13*%
%TO.N,/A13*%
X33020000Y5548000D03*
D15*
X33020000Y3770000D03*
D14*
%TO.P,J1,7,A8*%
%TO.N,/A8*%
X30480000Y5548000D03*
D15*
X30480000Y3770000D03*
D14*
%TO.P,J1,9,A9*%
%TO.N,/A9*%
X27940000Y5588000D03*
D15*
X27940000Y3810000D03*
D14*
%TO.P,J1,11,A11*%
%TO.N,/A11*%
X22860000Y5588000D03*
D15*
X22860000Y3850000D03*
D14*
%TO.P,J1,13,ROMOE*%
%TO.N,/ROMOE*%
X20320000Y5548000D03*
D15*
X20320000Y3810000D03*
D14*
%TO.P,J1,15,A10*%
%TO.N,/A10*%
X17780000Y5548000D03*
D15*
X17780000Y3810000D03*
D14*
%TO.P,J1,17,A15*%
%TO.N,/A15*%
X15240000Y5548000D03*
D15*
X15240000Y3810000D03*
D14*
%TO.P,J1,19,D7*%
%TO.N,/D7*%
X12700000Y5548000D03*
D15*
X12700000Y3810000D03*
D14*
%TO.P,J1,21,D6*%
%TO.N,/D6*%
X10160000Y5548000D03*
D15*
X10160000Y3820800D03*
%TO.P,J1,23,D5*%
%TO.N,/D5*%
X7594600Y3820800D03*
D14*
X7620000Y5588000D03*
%TO.P,J1,25,D4*%
%TO.N,/D4*%
X5080000Y5548000D03*
D15*
X5080000Y3810000D03*
D14*
%TO.P,J1,27,D3*%
%TO.N,/D3*%
X2540000Y5548000D03*
D15*
X2540000Y3810000D03*
%TD*%
D13*
%TO.P,C1,1*%
%TO.N,VCC*%
X38100000Y19090000D03*
%TO.P,C1,2*%
%TO.N,GND*%
X38100000Y24090000D03*
%TD*%
D11*
%TO.P,IC3,1*%
%TO.N,unconnected-(IC3-Pad1)*%
X27940000Y40620000D03*
D12*
%TO.P,IC3,2*%
%TO.N,unconnected-(IC3-Pad2)*%
X25400000Y40620000D03*
%TO.P,IC3,3*%
%TO.N,unconnected-(IC3-Pad3)*%
X22860000Y40620000D03*
%TO.P,IC3,4*%
%TO.N,unconnected-(IC3-Pad4)*%
X20320000Y40620000D03*
%TO.P,IC3,5*%
%TO.N,unconnected-(IC3-Pad5)*%
X17780000Y40620000D03*
%TO.P,IC3,6*%
%TO.N,unconnected-(IC3-Pad6)*%
X15240000Y40620000D03*
%TO.P,IC3,7,GND*%
%TO.N,GND*%
X12700000Y40620000D03*
%TO.P,IC3,8*%
%TO.N,/U2_CE*%
X12700000Y33000000D03*
%TO.P,IC3,9*%
%TO.N,/A14*%
X15240000Y33000000D03*
%TO.P,IC3,10*%
%TO.N,/A15*%
X17780000Y33000000D03*
%TO.P,IC3,11*%
%TO.N,/U_ROMOE*%
X20320000Y33000000D03*
%TO.P,IC3,12*%
%TO.N,/A15*%
X22860000Y33000000D03*
%TO.P,IC3,13*%
%TO.N,/ROMOE*%
X25400000Y33000000D03*
%TO.P,IC3,14,VCC*%
%TO.N,VCC*%
X27940000Y33000000D03*
%TD*%
D16*
%TO.N,VCC*%
X35560000Y21630000D02*
X38100000Y19090000D01*
X38100000Y5548000D02*
X38100000Y11430000D01*
X38100000Y16510000D02*
X35560000Y13970000D01*
X35560000Y29210000D02*
X35560000Y21630000D01*
X35560000Y29210000D02*
X35560000Y30540000D01*
X33020000Y13970000D02*
X35560000Y13970000D01*
X29290000Y34350000D02*
X31750000Y34350000D01*
X38100000Y11430000D02*
X35560000Y13970000D01*
X27940000Y33000000D02*
X29290000Y34350000D01*
X38100000Y19090000D02*
X38100000Y16510000D01*
X35560000Y30540000D02*
X31750000Y34350000D01*
D17*
%TO.N,/D3*%
X2540000Y5548000D02*
X2540000Y13970000D01*
%TO.N,/D4*%
X5080000Y5548000D02*
X5080000Y13970000D01*
%TO.N,/D5*%
X7620000Y5588000D02*
X7620000Y13970000D01*
%TO.N,/D6*%
X10160000Y5548000D02*
X10160000Y13970000D01*
%TO.N,/D7*%
X12700000Y5548000D02*
X12700000Y13970000D01*
%TO.N,/A15*%
X13970000Y11430000D02*
X13970000Y25400000D01*
X15240000Y10160000D02*
X13970000Y11430000D01*
X16510000Y27940000D02*
X13970000Y25400000D01*
X16510000Y31730000D02*
X16510000Y27940000D01*
X17780000Y34290000D02*
X17780000Y33000000D01*
X22860000Y34290000D02*
X21590000Y35560000D01*
X15240000Y5548000D02*
X15240000Y10160000D01*
X17780000Y33000000D02*
X16510000Y31730000D01*
X21590000Y35560000D02*
X19050000Y35560000D01*
X22860000Y33000000D02*
X22860000Y34290000D01*
X19050000Y35560000D02*
X17780000Y34290000D01*
%TO.N,/A10*%
X17780000Y5548000D02*
X17780000Y13970000D01*
%TO.N,/ROMOE*%
X21590000Y12700000D02*
X20320000Y11430000D01*
X24130000Y19050000D02*
X21590000Y16510000D01*
X21590000Y16510000D02*
X21590000Y12700000D01*
X20320000Y11430000D02*
X20320000Y5548000D01*
X25400000Y33000000D02*
X24130000Y31730000D01*
X24130000Y31730000D02*
X24130000Y19050000D01*
%TO.N,/A11*%
X22860000Y5588000D02*
X22860000Y13970000D01*
%TO.N,/A9*%
X25400000Y12700000D02*
X27940000Y10160000D01*
X27940000Y5588000D02*
X27940000Y10160000D01*
X25400000Y13970000D02*
X25400000Y12700000D01*
%TO.N,/A8*%
X27940000Y13970000D02*
X27940000Y12700000D01*
X27940000Y12700000D02*
X30480000Y10160000D01*
X30480000Y5548000D02*
X30480000Y10160000D01*
%TO.N,/A13*%
X33020000Y10160000D02*
X30480000Y12700000D01*
X33020000Y5548000D02*
X33020000Y10160000D01*
X30480000Y12700000D02*
X30480000Y13970000D01*
%TO.N,/A14*%
X35560000Y8890000D02*
X35560000Y5548000D01*
X26670000Y35560000D02*
X26670000Y27940000D01*
X15240000Y33000000D02*
X15240000Y35560000D01*
X15240000Y35560000D02*
X16510000Y36830000D01*
X26670000Y27940000D02*
X31750000Y22860000D01*
X25400000Y36830000D02*
X26670000Y35560000D01*
X31750000Y22860000D02*
X31750000Y12700000D01*
X16510000Y36830000D02*
X25400000Y36830000D01*
X31750000Y12700000D02*
X35560000Y8890000D01*
%TO.N,/U_ROMOE*%
X20320000Y16510000D02*
X20320000Y13970000D01*
X19195000Y17635000D02*
X20320000Y16510000D01*
X20320000Y33000000D02*
X19195000Y31875000D01*
X19195000Y31875000D02*
X19195000Y17635000D01*
%TO.N,unconnected-(IC3-Pad2)*%
X25079009Y40620000D02*
X25400000Y40620000D01*
%TD*%
D18*
X35560000Y29210000D03*
X33020000Y29210000D03*
X30480000Y29210000D03*
X27940000Y29210000D03*
X25400000Y29210000D03*
X22860000Y29210000D03*
X20320000Y29210000D03*
X17780000Y29210000D03*
X15240000Y29210000D03*
X12700000Y29210000D03*
X10160000Y29210000D03*
X7620000Y29210000D03*
X5080000Y29210000D03*
X2540000Y29210000D03*
X2540000Y13970000D03*
X5080000Y13970000D03*
X7620000Y13970000D03*
X10160000Y13970000D03*
X12700000Y13970000D03*
X15240000Y13970000D03*
X17780000Y13970000D03*
X20320000Y13970000D03*
X22860000Y13970000D03*
X25400000Y13970000D03*
X27940000Y13970000D03*
X30480000Y13970000D03*
X33020000Y13970000D03*
X35560000Y13970000D03*
X31750000Y34350000D03*
X31750000Y39350000D03*
X38100000Y19090000D03*
X38100000Y24090000D03*
X27940000Y40620000D03*
X25400000Y40620000D03*
X22860000Y40620000D03*
X20320000Y40620000D03*
X17780000Y40620000D03*
X15240000Y40620000D03*
X12700000Y40620000D03*
X12700000Y33000000D03*
X15240000Y33000000D03*
X17780000Y33000000D03*
X20320000Y33000000D03*
X22860000Y33000000D03*
X25400000Y33000000D03*
X27940000Y33000000D03*
M02*
