%TF.GenerationSoftware,KiCad,Pcbnew,8.0.6+1*%
%TF.CreationDate,2024-12-27T18:58:42+01:00*%
%TF.ProjectId,QL_ROM_Cartridge_original,514c5f52-4f4d-45f4-9361-727472696467,0*%
%TF.SameCoordinates,Original*%
%TF.FileFunction,Legend,Top*%
%TF.FilePolarity,Positive*%
%FSLAX46Y46*%
G04 Gerber Fmt 4.6, Leading zero omitted, Abs format (unit mm)*
G04 Created by KiCad (PCBNEW 8.0.6+1) date 2024-12-27 18:58:42*
%MOMM*%
%LPD*%
G01*
G04 APERTURE LIST*
%ADD10C,0.100000*%
%ADD11C,0.300000*%
%ADD12C,0.350000*%
%ADD13C,0.150000*%
%ADD14C,0.120000*%
%ADD15C,0.350000*%
G04 APERTURE END LIST*
D10*
X90017653Y-124084744D02*
X89395362Y-124084744D01*
X89395362Y-123643521D01*
X90017653Y-123643521D01*
X90017653Y-124084744D01*
G36*
X90017653Y-124084744D02*
G01*
X89395362Y-124084744D01*
X89395362Y-123643521D01*
X90017653Y-123643521D01*
X90017653Y-124084744D01*
G37*
X75087037Y-126828061D02*
X74463711Y-126828061D01*
X74463711Y-124356442D01*
X75087037Y-124356442D01*
X75087037Y-126828061D01*
G36*
X75087037Y-126828061D02*
G01*
X74463711Y-126828061D01*
X74463711Y-124356442D01*
X75087037Y-124356442D01*
X75087037Y-126828061D01*
G37*
X84679969Y-126828061D02*
X84040149Y-126828061D01*
X84040149Y-123643490D01*
X84679969Y-123643490D01*
X84679969Y-126828061D01*
G36*
X84679969Y-126828061D02*
G01*
X84040149Y-126828061D01*
X84040149Y-123643490D01*
X84679969Y-123643490D01*
X84679969Y-126828061D01*
G37*
X79438697Y-126828061D02*
X78807640Y-126828061D01*
X78807640Y-124841031D01*
X76073062Y-124841031D01*
X76073062Y-126828061D01*
X75354360Y-126828061D01*
X75354360Y-124356442D01*
X79438697Y-124356442D01*
X79438697Y-126828061D01*
G36*
X79438697Y-126828061D02*
G01*
X78807640Y-126828061D01*
X78807640Y-124841031D01*
X76073062Y-124841031D01*
X76073062Y-126828061D01*
X75354360Y-126828061D01*
X75354360Y-124356442D01*
X79438697Y-124356442D01*
X79438697Y-126828061D01*
G37*
X75087037Y-124084744D02*
X74463711Y-124084744D01*
X74463711Y-123643521D01*
X75087037Y-123643521D01*
X75087037Y-124084744D01*
G36*
X75087037Y-124084744D02*
G01*
X74463711Y-124084744D01*
X74463711Y-123643521D01*
X75087037Y-123643521D01*
X75087037Y-124084744D01*
G37*
X83785973Y-124841031D02*
X80411575Y-124841031D01*
X80411575Y-126296414D01*
X83785974Y-126296414D01*
X83785954Y-126828030D01*
X79785075Y-126828061D01*
X79785075Y-124356442D01*
X83785973Y-124356442D01*
X83785973Y-124841031D01*
G36*
X83785973Y-124841031D02*
G01*
X80411575Y-124841031D01*
X80411575Y-126296414D01*
X83785974Y-126296414D01*
X83785954Y-126828030D01*
X79785075Y-126828061D01*
X79785075Y-124356442D01*
X83785973Y-124356442D01*
X83785973Y-124841031D01*
G37*
X74143313Y-124841000D02*
X70865993Y-124841000D01*
X70865993Y-125302975D01*
X74143313Y-125302975D01*
X74143313Y-126828030D01*
X70155907Y-126828030D01*
X70155907Y-126296414D01*
X73408602Y-126296414D01*
X73408602Y-125828885D01*
X71188516Y-125848385D01*
X70155907Y-125828885D01*
X70155907Y-124356412D01*
X74143313Y-124356412D01*
X74143313Y-124841000D01*
G36*
X74143313Y-124841000D02*
G01*
X70865993Y-124841000D01*
X70865993Y-125302975D01*
X74143313Y-125302975D01*
X74143313Y-126828030D01*
X70155907Y-126828030D01*
X70155907Y-126296414D01*
X73408602Y-126296414D01*
X73408602Y-125828885D01*
X71188516Y-125848385D01*
X70155907Y-125828885D01*
X70155907Y-124356412D01*
X74143313Y-124356412D01*
X74143313Y-124841000D01*
G37*
X89035491Y-126828061D02*
X88352366Y-126828061D01*
X85039321Y-126828061D01*
X85036035Y-126296414D01*
X85793082Y-126296414D01*
X88352366Y-126296414D01*
X88352366Y-125828915D01*
X85793082Y-125828915D01*
X85793082Y-126296414D01*
X85036035Y-126296414D01*
X85033921Y-125954281D01*
X85039321Y-125303006D01*
X88352366Y-125303006D01*
X88352366Y-124841031D01*
X85039321Y-124841031D01*
X85039321Y-124356442D01*
X89035491Y-124356442D01*
X89035491Y-126828061D01*
G36*
X89035491Y-126828061D02*
G01*
X88352366Y-126828061D01*
X85039321Y-126828061D01*
X85036035Y-126296414D01*
X85793082Y-126296414D01*
X88352366Y-126296414D01*
X88352366Y-125828915D01*
X85793082Y-125828915D01*
X85793082Y-126296414D01*
X85036035Y-126296414D01*
X85033921Y-125954281D01*
X85039321Y-125303006D01*
X88352366Y-125303006D01*
X88352366Y-124841031D01*
X85039321Y-124841031D01*
X85039321Y-124356442D01*
X89035491Y-124356442D01*
X89035491Y-126828061D01*
G37*
X90017653Y-126828061D02*
X89395362Y-126828061D01*
X89395362Y-124356442D01*
X90017653Y-124356442D01*
X90017653Y-126828061D01*
G36*
X90017653Y-126828061D02*
G01*
X89395362Y-126828061D01*
X89395362Y-124356442D01*
X90017653Y-124356442D01*
X90017653Y-126828061D01*
G37*
X94249223Y-124841031D02*
X90955476Y-124841031D01*
X90955476Y-126828061D01*
X90324420Y-126828061D01*
X90324418Y-124356442D01*
X94249223Y-124356442D01*
X94249223Y-124841031D01*
G36*
X94249223Y-124841031D02*
G01*
X90955476Y-124841031D01*
X90955476Y-126828061D01*
X90324420Y-126828061D01*
X90324418Y-124356442D01*
X94249223Y-124356442D01*
X94249223Y-124841031D01*
G37*
D11*
X74871189Y-65987673D02*
X74871189Y-66880530D01*
X74871189Y-66880530D02*
X74811666Y-67059102D01*
X74811666Y-67059102D02*
X74692618Y-67178150D01*
X74692618Y-67178150D02*
X74514047Y-67237673D01*
X74514047Y-67237673D02*
X74394999Y-67237673D01*
X76061666Y-67237673D02*
X75466428Y-67237673D01*
X75466428Y-67237673D02*
X75466428Y-65987673D01*
X77192618Y-67118626D02*
X77133094Y-67178150D01*
X77133094Y-67178150D02*
X76954523Y-67237673D01*
X76954523Y-67237673D02*
X76835475Y-67237673D01*
X76835475Y-67237673D02*
X76656904Y-67178150D01*
X76656904Y-67178150D02*
X76537856Y-67059102D01*
X76537856Y-67059102D02*
X76478333Y-66940054D01*
X76478333Y-66940054D02*
X76418809Y-66701959D01*
X76418809Y-66701959D02*
X76418809Y-66523388D01*
X76418809Y-66523388D02*
X76478333Y-66285292D01*
X76478333Y-66285292D02*
X76537856Y-66166245D01*
X76537856Y-66166245D02*
X76656904Y-66047197D01*
X76656904Y-66047197D02*
X76835475Y-65987673D01*
X76835475Y-65987673D02*
X76954523Y-65987673D01*
X76954523Y-65987673D02*
X77133094Y-66047197D01*
X77133094Y-66047197D02*
X77192618Y-66106721D01*
X78085475Y-65987673D02*
X78085475Y-66880530D01*
X78085475Y-66880530D02*
X78025952Y-67059102D01*
X78025952Y-67059102D02*
X77906904Y-67178150D01*
X77906904Y-67178150D02*
X77728333Y-67237673D01*
X77728333Y-67237673D02*
X77609285Y-67237673D01*
X79275952Y-67237673D02*
X78680714Y-67237673D01*
X78680714Y-67237673D02*
X78680714Y-65987673D01*
X80406904Y-67118626D02*
X80347380Y-67178150D01*
X80347380Y-67178150D02*
X80168809Y-67237673D01*
X80168809Y-67237673D02*
X80049761Y-67237673D01*
X80049761Y-67237673D02*
X79871190Y-67178150D01*
X79871190Y-67178150D02*
X79752142Y-67059102D01*
X79752142Y-67059102D02*
X79692619Y-66940054D01*
X79692619Y-66940054D02*
X79633095Y-66701959D01*
X79633095Y-66701959D02*
X79633095Y-66523388D01*
X79633095Y-66523388D02*
X79692619Y-66285292D01*
X79692619Y-66285292D02*
X79752142Y-66166245D01*
X79752142Y-66166245D02*
X79871190Y-66047197D01*
X79871190Y-66047197D02*
X80049761Y-65987673D01*
X80049761Y-65987673D02*
X80168809Y-65987673D01*
X80168809Y-65987673D02*
X80347380Y-66047197D01*
X80347380Y-66047197D02*
X80406904Y-66106721D01*
X81299761Y-65987673D02*
X81299761Y-66880530D01*
X81299761Y-66880530D02*
X81240238Y-67059102D01*
X81240238Y-67059102D02*
X81121190Y-67178150D01*
X81121190Y-67178150D02*
X80942619Y-67237673D01*
X80942619Y-67237673D02*
X80823571Y-67237673D01*
X82490238Y-67237673D02*
X81895000Y-67237673D01*
X81895000Y-67237673D02*
X81895000Y-65987673D01*
X83621190Y-67118626D02*
X83561666Y-67178150D01*
X83561666Y-67178150D02*
X83383095Y-67237673D01*
X83383095Y-67237673D02*
X83264047Y-67237673D01*
X83264047Y-67237673D02*
X83085476Y-67178150D01*
X83085476Y-67178150D02*
X82966428Y-67059102D01*
X82966428Y-67059102D02*
X82906905Y-66940054D01*
X82906905Y-66940054D02*
X82847381Y-66701959D01*
X82847381Y-66701959D02*
X82847381Y-66523388D01*
X82847381Y-66523388D02*
X82906905Y-66285292D01*
X82906905Y-66285292D02*
X82966428Y-66166245D01*
X82966428Y-66166245D02*
X83085476Y-66047197D01*
X83085476Y-66047197D02*
X83264047Y-65987673D01*
X83264047Y-65987673D02*
X83383095Y-65987673D01*
X83383095Y-65987673D02*
X83561666Y-66047197D01*
X83561666Y-66047197D02*
X83621190Y-66106721D01*
X84514047Y-65987673D02*
X84514047Y-66880530D01*
X84514047Y-66880530D02*
X84454524Y-67059102D01*
X84454524Y-67059102D02*
X84335476Y-67178150D01*
X84335476Y-67178150D02*
X84156905Y-67237673D01*
X84156905Y-67237673D02*
X84037857Y-67237673D01*
X85704524Y-67237673D02*
X85109286Y-67237673D01*
X85109286Y-67237673D02*
X85109286Y-65987673D01*
X86835476Y-67118626D02*
X86775952Y-67178150D01*
X86775952Y-67178150D02*
X86597381Y-67237673D01*
X86597381Y-67237673D02*
X86478333Y-67237673D01*
X86478333Y-67237673D02*
X86299762Y-67178150D01*
X86299762Y-67178150D02*
X86180714Y-67059102D01*
X86180714Y-67059102D02*
X86121191Y-66940054D01*
X86121191Y-66940054D02*
X86061667Y-66701959D01*
X86061667Y-66701959D02*
X86061667Y-66523388D01*
X86061667Y-66523388D02*
X86121191Y-66285292D01*
X86121191Y-66285292D02*
X86180714Y-66166245D01*
X86180714Y-66166245D02*
X86299762Y-66047197D01*
X86299762Y-66047197D02*
X86478333Y-65987673D01*
X86478333Y-65987673D02*
X86597381Y-65987673D01*
X86597381Y-65987673D02*
X86775952Y-66047197D01*
X86775952Y-66047197D02*
X86835476Y-66106721D01*
D12*
X75994088Y-132955419D02*
X76279802Y-133050657D01*
X76279802Y-133050657D02*
X76375040Y-133145895D01*
X76375040Y-133145895D02*
X76470278Y-133336371D01*
X76470278Y-133336371D02*
X76470278Y-133622085D01*
X76470278Y-133622085D02*
X76375040Y-133812561D01*
X76375040Y-133812561D02*
X76279802Y-133907800D01*
X76279802Y-133907800D02*
X76089326Y-134003038D01*
X76089326Y-134003038D02*
X75327421Y-134003038D01*
X75327421Y-134003038D02*
X75327421Y-132003038D01*
X75327421Y-132003038D02*
X75994088Y-132003038D01*
X75994088Y-132003038D02*
X76184564Y-132098276D01*
X76184564Y-132098276D02*
X76279802Y-132193514D01*
X76279802Y-132193514D02*
X76375040Y-132383990D01*
X76375040Y-132383990D02*
X76375040Y-132574466D01*
X76375040Y-132574466D02*
X76279802Y-132764942D01*
X76279802Y-132764942D02*
X76184564Y-132860180D01*
X76184564Y-132860180D02*
X75994088Y-132955419D01*
X75994088Y-132955419D02*
X75327421Y-132955419D01*
X77708373Y-132003038D02*
X78089326Y-132003038D01*
X78089326Y-132003038D02*
X78279802Y-132098276D01*
X78279802Y-132098276D02*
X78470278Y-132288752D01*
X78470278Y-132288752D02*
X78565516Y-132669704D01*
X78565516Y-132669704D02*
X78565516Y-133336371D01*
X78565516Y-133336371D02*
X78470278Y-133717323D01*
X78470278Y-133717323D02*
X78279802Y-133907800D01*
X78279802Y-133907800D02*
X78089326Y-134003038D01*
X78089326Y-134003038D02*
X77708373Y-134003038D01*
X77708373Y-134003038D02*
X77517897Y-133907800D01*
X77517897Y-133907800D02*
X77327421Y-133717323D01*
X77327421Y-133717323D02*
X77232183Y-133336371D01*
X77232183Y-133336371D02*
X77232183Y-132669704D01*
X77232183Y-132669704D02*
X77327421Y-132288752D01*
X77327421Y-132288752D02*
X77517897Y-132098276D01*
X77517897Y-132098276D02*
X77708373Y-132003038D01*
X79327421Y-133431609D02*
X80279802Y-133431609D01*
X79136945Y-134003038D02*
X79803611Y-132003038D01*
X79803611Y-132003038D02*
X80470278Y-134003038D01*
X82279802Y-134003038D02*
X81613135Y-133050657D01*
X81136945Y-134003038D02*
X81136945Y-132003038D01*
X81136945Y-132003038D02*
X81898850Y-132003038D01*
X81898850Y-132003038D02*
X82089326Y-132098276D01*
X82089326Y-132098276D02*
X82184564Y-132193514D01*
X82184564Y-132193514D02*
X82279802Y-132383990D01*
X82279802Y-132383990D02*
X82279802Y-132669704D01*
X82279802Y-132669704D02*
X82184564Y-132860180D01*
X82184564Y-132860180D02*
X82089326Y-132955419D01*
X82089326Y-132955419D02*
X81898850Y-133050657D01*
X81898850Y-133050657D02*
X81136945Y-133050657D01*
X83136945Y-134003038D02*
X83136945Y-132003038D01*
X83136945Y-132003038D02*
X83613135Y-132003038D01*
X83613135Y-132003038D02*
X83898850Y-132098276D01*
X83898850Y-132098276D02*
X84089326Y-132288752D01*
X84089326Y-132288752D02*
X84184564Y-132479228D01*
X84184564Y-132479228D02*
X84279802Y-132860180D01*
X84279802Y-132860180D02*
X84279802Y-133145895D01*
X84279802Y-133145895D02*
X84184564Y-133526847D01*
X84184564Y-133526847D02*
X84089326Y-133717323D01*
X84089326Y-133717323D02*
X83898850Y-133907800D01*
X83898850Y-133907800D02*
X83613135Y-134003038D01*
X83613135Y-134003038D02*
X83136945Y-134003038D01*
D13*
X90359608Y-116530476D02*
X90407228Y-116578095D01*
X90407228Y-116578095D02*
X90454847Y-116720952D01*
X90454847Y-116720952D02*
X90454847Y-116816190D01*
X90454847Y-116816190D02*
X90407228Y-116959047D01*
X90407228Y-116959047D02*
X90311989Y-117054285D01*
X90311989Y-117054285D02*
X90216751Y-117101904D01*
X90216751Y-117101904D02*
X90026275Y-117149523D01*
X90026275Y-117149523D02*
X89883418Y-117149523D01*
X89883418Y-117149523D02*
X89692942Y-117101904D01*
X89692942Y-117101904D02*
X89597704Y-117054285D01*
X89597704Y-117054285D02*
X89502466Y-116959047D01*
X89502466Y-116959047D02*
X89454847Y-116816190D01*
X89454847Y-116816190D02*
X89454847Y-116720952D01*
X89454847Y-116720952D02*
X89502466Y-116578095D01*
X89502466Y-116578095D02*
X89550085Y-116530476D01*
X91160029Y-117125713D02*
X91112410Y-117078094D01*
X91112410Y-117078094D02*
X91064791Y-116982856D01*
X91064791Y-116982856D02*
X91064791Y-116744761D01*
X91064791Y-116744761D02*
X91112410Y-116649523D01*
X91112410Y-116649523D02*
X91160029Y-116601904D01*
X91160029Y-116601904D02*
X91255267Y-116554285D01*
X91255267Y-116554285D02*
X91350505Y-116554285D01*
X91350505Y-116554285D02*
X91493362Y-116601904D01*
X91493362Y-116601904D02*
X92064791Y-117173332D01*
X92064791Y-117173332D02*
X92064791Y-116554285D01*
X88812342Y-75466428D02*
X87612342Y-75466428D01*
X88698057Y-74209285D02*
X88755200Y-74266428D01*
X88755200Y-74266428D02*
X88812342Y-74437856D01*
X88812342Y-74437856D02*
X88812342Y-74552142D01*
X88812342Y-74552142D02*
X88755200Y-74723571D01*
X88755200Y-74723571D02*
X88640914Y-74837856D01*
X88640914Y-74837856D02*
X88526628Y-74894999D01*
X88526628Y-74894999D02*
X88298057Y-74952142D01*
X88298057Y-74952142D02*
X88126628Y-74952142D01*
X88126628Y-74952142D02*
X87898057Y-74894999D01*
X87898057Y-74894999D02*
X87783771Y-74837856D01*
X87783771Y-74837856D02*
X87669485Y-74723571D01*
X87669485Y-74723571D02*
X87612342Y-74552142D01*
X87612342Y-74552142D02*
X87612342Y-74437856D01*
X87612342Y-74437856D02*
X87669485Y-74266428D01*
X87669485Y-74266428D02*
X87726628Y-74209285D01*
X87726628Y-73752142D02*
X87669485Y-73694999D01*
X87669485Y-73694999D02*
X87612342Y-73580714D01*
X87612342Y-73580714D02*
X87612342Y-73294999D01*
X87612342Y-73294999D02*
X87669485Y-73180714D01*
X87669485Y-73180714D02*
X87726628Y-73123571D01*
X87726628Y-73123571D02*
X87840914Y-73066428D01*
X87840914Y-73066428D02*
X87955200Y-73066428D01*
X87955200Y-73066428D02*
X88126628Y-73123571D01*
X88126628Y-73123571D02*
X88812342Y-73809285D01*
X88812342Y-73809285D02*
X88812342Y-73066428D01*
X91098335Y-65687428D02*
X89898335Y-65687428D01*
X90984050Y-64430285D02*
X91041193Y-64487428D01*
X91041193Y-64487428D02*
X91098335Y-64658856D01*
X91098335Y-64658856D02*
X91098335Y-64773142D01*
X91098335Y-64773142D02*
X91041193Y-64944571D01*
X91041193Y-64944571D02*
X90926907Y-65058856D01*
X90926907Y-65058856D02*
X90812621Y-65115999D01*
X90812621Y-65115999D02*
X90584050Y-65173142D01*
X90584050Y-65173142D02*
X90412621Y-65173142D01*
X90412621Y-65173142D02*
X90184050Y-65115999D01*
X90184050Y-65115999D02*
X90069764Y-65058856D01*
X90069764Y-65058856D02*
X89955478Y-64944571D01*
X89955478Y-64944571D02*
X89898335Y-64773142D01*
X89898335Y-64773142D02*
X89898335Y-64658856D01*
X89898335Y-64658856D02*
X89955478Y-64487428D01*
X89955478Y-64487428D02*
X90012621Y-64430285D01*
X89898335Y-64030285D02*
X89898335Y-63287428D01*
X89898335Y-63287428D02*
X90355478Y-63687428D01*
X90355478Y-63687428D02*
X90355478Y-63515999D01*
X90355478Y-63515999D02*
X90412621Y-63401714D01*
X90412621Y-63401714D02*
X90469764Y-63344571D01*
X90469764Y-63344571D02*
X90584050Y-63287428D01*
X90584050Y-63287428D02*
X90869764Y-63287428D01*
X90869764Y-63287428D02*
X90984050Y-63344571D01*
X90984050Y-63344571D02*
X91041193Y-63401714D01*
X91041193Y-63401714D02*
X91098335Y-63515999D01*
X91098335Y-63515999D02*
X91098335Y-63858856D01*
X91098335Y-63858856D02*
X91041193Y-63973142D01*
X91041193Y-63973142D02*
X90984050Y-64030285D01*
X99514819Y-132929285D02*
X99514819Y-133500713D01*
X99514819Y-133214999D02*
X98514819Y-133214999D01*
X98514819Y-133214999D02*
X98657676Y-133310237D01*
X98657676Y-133310237D02*
X98752914Y-133405475D01*
X98752914Y-133405475D02*
X98800533Y-133500713D01*
X98991009Y-132167380D02*
X99038628Y-132024523D01*
X99038628Y-132024523D02*
X99086247Y-131976904D01*
X99086247Y-131976904D02*
X99181485Y-131929285D01*
X99181485Y-131929285D02*
X99324342Y-131929285D01*
X99324342Y-131929285D02*
X99419580Y-131976904D01*
X99419580Y-131976904D02*
X99467200Y-132024523D01*
X99467200Y-132024523D02*
X99514819Y-132119761D01*
X99514819Y-132119761D02*
X99514819Y-132500713D01*
X99514819Y-132500713D02*
X98514819Y-132500713D01*
X98514819Y-132500713D02*
X98514819Y-132167380D01*
X98514819Y-132167380D02*
X98562438Y-132072142D01*
X98562438Y-132072142D02*
X98610057Y-132024523D01*
X98610057Y-132024523D02*
X98705295Y-131976904D01*
X98705295Y-131976904D02*
X98800533Y-131976904D01*
X98800533Y-131976904D02*
X98895771Y-132024523D01*
X98895771Y-132024523D02*
X98943390Y-132072142D01*
X98943390Y-132072142D02*
X98991009Y-132167380D01*
X98991009Y-132167380D02*
X98991009Y-132500713D01*
X63954819Y-132770476D02*
X63954819Y-133341904D01*
X63954819Y-133056190D02*
X62954819Y-133056190D01*
X62954819Y-133056190D02*
X63097676Y-133151428D01*
X63097676Y-133151428D02*
X63192914Y-133246666D01*
X63192914Y-133246666D02*
X63240533Y-133341904D01*
X62954819Y-131865714D02*
X62954819Y-132341904D01*
X62954819Y-132341904D02*
X63431009Y-132389523D01*
X63431009Y-132389523D02*
X63383390Y-132341904D01*
X63383390Y-132341904D02*
X63335771Y-132246666D01*
X63335771Y-132246666D02*
X63335771Y-132008571D01*
X63335771Y-132008571D02*
X63383390Y-131913333D01*
X63383390Y-131913333D02*
X63431009Y-131865714D01*
X63431009Y-131865714D02*
X63526247Y-131818095D01*
X63526247Y-131818095D02*
X63764342Y-131818095D01*
X63764342Y-131818095D02*
X63859580Y-131865714D01*
X63859580Y-131865714D02*
X63907200Y-131913333D01*
X63907200Y-131913333D02*
X63954819Y-132008571D01*
X63954819Y-132008571D02*
X63954819Y-132246666D01*
X63954819Y-132246666D02*
X63907200Y-132341904D01*
X63907200Y-132341904D02*
X63859580Y-132389523D01*
X63431009Y-131056190D02*
X63478628Y-130913333D01*
X63478628Y-130913333D02*
X63526247Y-130865714D01*
X63526247Y-130865714D02*
X63621485Y-130818095D01*
X63621485Y-130818095D02*
X63764342Y-130818095D01*
X63764342Y-130818095D02*
X63859580Y-130865714D01*
X63859580Y-130865714D02*
X63907200Y-130913333D01*
X63907200Y-130913333D02*
X63954819Y-131008571D01*
X63954819Y-131008571D02*
X63954819Y-131389523D01*
X63954819Y-131389523D02*
X62954819Y-131389523D01*
X62954819Y-131389523D02*
X62954819Y-131056190D01*
X62954819Y-131056190D02*
X63002438Y-130960952D01*
X63002438Y-130960952D02*
X63050057Y-130913333D01*
X63050057Y-130913333D02*
X63145295Y-130865714D01*
X63145295Y-130865714D02*
X63240533Y-130865714D01*
X63240533Y-130865714D02*
X63335771Y-130913333D01*
X63335771Y-130913333D02*
X63383390Y-130960952D01*
X63383390Y-130960952D02*
X63431009Y-131056190D01*
X63431009Y-131056190D02*
X63431009Y-131389523D01*
X67857342Y-75466428D02*
X66657342Y-75466428D01*
X67743057Y-74209285D02*
X67800200Y-74266428D01*
X67800200Y-74266428D02*
X67857342Y-74437856D01*
X67857342Y-74437856D02*
X67857342Y-74552142D01*
X67857342Y-74552142D02*
X67800200Y-74723571D01*
X67800200Y-74723571D02*
X67685914Y-74837856D01*
X67685914Y-74837856D02*
X67571628Y-74894999D01*
X67571628Y-74894999D02*
X67343057Y-74952142D01*
X67343057Y-74952142D02*
X67171628Y-74952142D01*
X67171628Y-74952142D02*
X66943057Y-74894999D01*
X66943057Y-74894999D02*
X66828771Y-74837856D01*
X66828771Y-74837856D02*
X66714485Y-74723571D01*
X66714485Y-74723571D02*
X66657342Y-74552142D01*
X66657342Y-74552142D02*
X66657342Y-74437856D01*
X66657342Y-74437856D02*
X66714485Y-74266428D01*
X66714485Y-74266428D02*
X66771628Y-74209285D01*
X67857342Y-73066428D02*
X67857342Y-73752142D01*
X67857342Y-73409285D02*
X66657342Y-73409285D01*
X66657342Y-73409285D02*
X66828771Y-73523571D01*
X66828771Y-73523571D02*
X66943057Y-73637856D01*
X66943057Y-73637856D02*
X67000200Y-73752142D01*
D12*
X68718266Y-130891514D02*
X68537314Y-130796276D01*
X68537314Y-130796276D02*
X68356361Y-130605800D01*
X68356361Y-130605800D02*
X68084933Y-130320085D01*
X68084933Y-130320085D02*
X67903980Y-130224847D01*
X67903980Y-130224847D02*
X67723028Y-130224847D01*
X67813504Y-130701038D02*
X67632552Y-130605800D01*
X67632552Y-130605800D02*
X67451599Y-130415323D01*
X67451599Y-130415323D02*
X67361123Y-130034371D01*
X67361123Y-130034371D02*
X67361123Y-129367704D01*
X67361123Y-129367704D02*
X67451599Y-128986752D01*
X67451599Y-128986752D02*
X67632552Y-128796276D01*
X67632552Y-128796276D02*
X67813504Y-128701038D01*
X67813504Y-128701038D02*
X68175409Y-128701038D01*
X68175409Y-128701038D02*
X68356361Y-128796276D01*
X68356361Y-128796276D02*
X68537314Y-128986752D01*
X68537314Y-128986752D02*
X68627790Y-129367704D01*
X68627790Y-129367704D02*
X68627790Y-130034371D01*
X68627790Y-130034371D02*
X68537314Y-130415323D01*
X68537314Y-130415323D02*
X68356361Y-130605800D01*
X68356361Y-130605800D02*
X68175409Y-130701038D01*
X68175409Y-130701038D02*
X67813504Y-130701038D01*
X70346837Y-130701038D02*
X69442075Y-130701038D01*
X69442075Y-130701038D02*
X69442075Y-128701038D01*
X72427789Y-129653419D02*
X73061123Y-129653419D01*
X73332551Y-130701038D02*
X72427789Y-130701038D01*
X72427789Y-130701038D02*
X72427789Y-128701038D01*
X72427789Y-128701038D02*
X73332551Y-128701038D01*
X74146837Y-130701038D02*
X74146837Y-128701038D01*
X74146837Y-128701038D02*
X74870647Y-128701038D01*
X74870647Y-128701038D02*
X75051599Y-128796276D01*
X75051599Y-128796276D02*
X75142076Y-128891514D01*
X75142076Y-128891514D02*
X75232552Y-129081990D01*
X75232552Y-129081990D02*
X75232552Y-129367704D01*
X75232552Y-129367704D02*
X75142076Y-129558180D01*
X75142076Y-129558180D02*
X75051599Y-129653419D01*
X75051599Y-129653419D02*
X74870647Y-129748657D01*
X74870647Y-129748657D02*
X74146837Y-129748657D01*
X77132552Y-130701038D02*
X76499218Y-129748657D01*
X76046837Y-130701038D02*
X76046837Y-128701038D01*
X76046837Y-128701038D02*
X76770647Y-128701038D01*
X76770647Y-128701038D02*
X76951599Y-128796276D01*
X76951599Y-128796276D02*
X77042076Y-128891514D01*
X77042076Y-128891514D02*
X77132552Y-129081990D01*
X77132552Y-129081990D02*
X77132552Y-129367704D01*
X77132552Y-129367704D02*
X77042076Y-129558180D01*
X77042076Y-129558180D02*
X76951599Y-129653419D01*
X76951599Y-129653419D02*
X76770647Y-129748657D01*
X76770647Y-129748657D02*
X76046837Y-129748657D01*
X78308742Y-128701038D02*
X78670647Y-128701038D01*
X78670647Y-128701038D02*
X78851599Y-128796276D01*
X78851599Y-128796276D02*
X79032552Y-128986752D01*
X79032552Y-128986752D02*
X79123028Y-129367704D01*
X79123028Y-129367704D02*
X79123028Y-130034371D01*
X79123028Y-130034371D02*
X79032552Y-130415323D01*
X79032552Y-130415323D02*
X78851599Y-130605800D01*
X78851599Y-130605800D02*
X78670647Y-130701038D01*
X78670647Y-130701038D02*
X78308742Y-130701038D01*
X78308742Y-130701038D02*
X78127790Y-130605800D01*
X78127790Y-130605800D02*
X77946837Y-130415323D01*
X77946837Y-130415323D02*
X77856361Y-130034371D01*
X77856361Y-130034371D02*
X77856361Y-129367704D01*
X77856361Y-129367704D02*
X77946837Y-128986752D01*
X77946837Y-128986752D02*
X78127790Y-128796276D01*
X78127790Y-128796276D02*
X78308742Y-128701038D01*
X79937313Y-130701038D02*
X79937313Y-128701038D01*
X79937313Y-128701038D02*
X80570647Y-130129609D01*
X80570647Y-130129609D02*
X81203980Y-128701038D01*
X81203980Y-128701038D02*
X81203980Y-130701038D01*
X84642076Y-130510561D02*
X84551600Y-130605800D01*
X84551600Y-130605800D02*
X84280171Y-130701038D01*
X84280171Y-130701038D02*
X84099219Y-130701038D01*
X84099219Y-130701038D02*
X83827790Y-130605800D01*
X83827790Y-130605800D02*
X83646838Y-130415323D01*
X83646838Y-130415323D02*
X83556361Y-130224847D01*
X83556361Y-130224847D02*
X83465885Y-129843895D01*
X83465885Y-129843895D02*
X83465885Y-129558180D01*
X83465885Y-129558180D02*
X83556361Y-129177228D01*
X83556361Y-129177228D02*
X83646838Y-128986752D01*
X83646838Y-128986752D02*
X83827790Y-128796276D01*
X83827790Y-128796276D02*
X84099219Y-128701038D01*
X84099219Y-128701038D02*
X84280171Y-128701038D01*
X84280171Y-128701038D02*
X84551600Y-128796276D01*
X84551600Y-128796276D02*
X84642076Y-128891514D01*
X85365885Y-130129609D02*
X86270647Y-130129609D01*
X85184933Y-130701038D02*
X85818266Y-128701038D01*
X85818266Y-128701038D02*
X86451600Y-130701038D01*
X88170647Y-130701038D02*
X87537313Y-129748657D01*
X87084932Y-130701038D02*
X87084932Y-128701038D01*
X87084932Y-128701038D02*
X87808742Y-128701038D01*
X87808742Y-128701038D02*
X87989694Y-128796276D01*
X87989694Y-128796276D02*
X88080171Y-128891514D01*
X88080171Y-128891514D02*
X88170647Y-129081990D01*
X88170647Y-129081990D02*
X88170647Y-129367704D01*
X88170647Y-129367704D02*
X88080171Y-129558180D01*
X88080171Y-129558180D02*
X87989694Y-129653419D01*
X87989694Y-129653419D02*
X87808742Y-129748657D01*
X87808742Y-129748657D02*
X87084932Y-129748657D01*
X88713504Y-128701038D02*
X89799218Y-128701038D01*
X89256361Y-130701038D02*
X89256361Y-128701038D01*
X91518266Y-130701038D02*
X90884932Y-129748657D01*
X90432551Y-130701038D02*
X90432551Y-128701038D01*
X90432551Y-128701038D02*
X91156361Y-128701038D01*
X91156361Y-128701038D02*
X91337313Y-128796276D01*
X91337313Y-128796276D02*
X91427790Y-128891514D01*
X91427790Y-128891514D02*
X91518266Y-129081990D01*
X91518266Y-129081990D02*
X91518266Y-129367704D01*
X91518266Y-129367704D02*
X91427790Y-129558180D01*
X91427790Y-129558180D02*
X91337313Y-129653419D01*
X91337313Y-129653419D02*
X91156361Y-129748657D01*
X91156361Y-129748657D02*
X90432551Y-129748657D01*
X92332551Y-130701038D02*
X92332551Y-128701038D01*
X93237313Y-130701038D02*
X93237313Y-128701038D01*
X93237313Y-128701038D02*
X93689694Y-128701038D01*
X93689694Y-128701038D02*
X93961123Y-128796276D01*
X93961123Y-128796276D02*
X94142075Y-128986752D01*
X94142075Y-128986752D02*
X94232552Y-129177228D01*
X94232552Y-129177228D02*
X94323028Y-129558180D01*
X94323028Y-129558180D02*
X94323028Y-129843895D01*
X94323028Y-129843895D02*
X94232552Y-130224847D01*
X94232552Y-130224847D02*
X94142075Y-130415323D01*
X94142075Y-130415323D02*
X93961123Y-130605800D01*
X93961123Y-130605800D02*
X93689694Y-130701038D01*
X93689694Y-130701038D02*
X93237313Y-130701038D01*
X96132552Y-128796276D02*
X95951599Y-128701038D01*
X95951599Y-128701038D02*
X95680171Y-128701038D01*
X95680171Y-128701038D02*
X95408742Y-128796276D01*
X95408742Y-128796276D02*
X95227790Y-128986752D01*
X95227790Y-128986752D02*
X95137313Y-129177228D01*
X95137313Y-129177228D02*
X95046837Y-129558180D01*
X95046837Y-129558180D02*
X95046837Y-129843895D01*
X95046837Y-129843895D02*
X95137313Y-130224847D01*
X95137313Y-130224847D02*
X95227790Y-130415323D01*
X95227790Y-130415323D02*
X95408742Y-130605800D01*
X95408742Y-130605800D02*
X95680171Y-130701038D01*
X95680171Y-130701038D02*
X95861123Y-130701038D01*
X95861123Y-130701038D02*
X96132552Y-130605800D01*
X96132552Y-130605800D02*
X96223028Y-130510561D01*
X96223028Y-130510561D02*
X96223028Y-129843895D01*
X96223028Y-129843895D02*
X95861123Y-129843895D01*
X97037313Y-129653419D02*
X97670647Y-129653419D01*
X97942075Y-130701038D02*
X97037313Y-130701038D01*
X97037313Y-130701038D02*
X97037313Y-128701038D01*
X97037313Y-128701038D02*
X97942075Y-128701038D01*
D13*
X70039608Y-116530476D02*
X70087228Y-116578095D01*
X70087228Y-116578095D02*
X70134847Y-116720952D01*
X70134847Y-116720952D02*
X70134847Y-116816190D01*
X70134847Y-116816190D02*
X70087228Y-116959047D01*
X70087228Y-116959047D02*
X69991989Y-117054285D01*
X69991989Y-117054285D02*
X69896751Y-117101904D01*
X69896751Y-117101904D02*
X69706275Y-117149523D01*
X69706275Y-117149523D02*
X69563418Y-117149523D01*
X69563418Y-117149523D02*
X69372942Y-117101904D01*
X69372942Y-117101904D02*
X69277704Y-117054285D01*
X69277704Y-117054285D02*
X69182466Y-116959047D01*
X69182466Y-116959047D02*
X69134847Y-116816190D01*
X69134847Y-116816190D02*
X69134847Y-116720952D01*
X69134847Y-116720952D02*
X69182466Y-116578095D01*
X69182466Y-116578095D02*
X69230085Y-116530476D01*
X71744791Y-116554285D02*
X71744791Y-117125713D01*
X71744791Y-116839999D02*
X70744791Y-116839999D01*
X70744791Y-116839999D02*
X70887648Y-116935237D01*
X70887648Y-116935237D02*
X70982886Y-117030475D01*
X70982886Y-117030475D02*
X71030505Y-117125713D01*
D14*
%TO.C,IC2*%
X84345000Y-76140000D02*
X84345000Y-111820000D01*
X84345000Y-111820000D02*
X89805000Y-111820000D01*
X91805000Y-111820000D02*
X97265000Y-111820000D01*
X97265000Y-76140000D02*
X84345000Y-76140000D01*
X97265000Y-111820000D02*
X97265000Y-76140000D01*
X89805000Y-111820000D02*
G75*
G02*
X91805000Y-111820000I1000000J0D01*
G01*
%TO.C,IC1*%
X64665000Y-76130000D02*
X64665000Y-111810000D01*
X64665000Y-111810000D02*
X70125000Y-111810000D01*
X72125000Y-111810000D02*
X77585000Y-111810000D01*
X77585000Y-76130000D02*
X64665000Y-76130000D01*
X77585000Y-111810000D02*
X77585000Y-76130000D01*
X70125000Y-111810000D02*
G75*
G02*
X72125000Y-111810000I1000000J0D01*
G01*
%TO.C,C1*%
X64620000Y-114300000D02*
X67810000Y-114300000D01*
X67810000Y-112880000D02*
X67810000Y-115720000D01*
X67810000Y-115720000D02*
X71850000Y-115720000D01*
X71850000Y-112880000D02*
X67810000Y-112880000D01*
X71850000Y-115720000D02*
X71850000Y-112880000D01*
X75040000Y-114300000D02*
X71850000Y-114300000D01*
%TO.C,C2*%
X84960000Y-114300000D02*
X88150000Y-114300000D01*
X88150000Y-112880000D02*
X88150000Y-115720000D01*
X88150000Y-115720000D02*
X92190000Y-115720000D01*
X92190000Y-112880000D02*
X88150000Y-112880000D01*
X92190000Y-115720000D02*
X92190000Y-112880000D01*
X95380000Y-114300000D02*
X92190000Y-114300000D01*
%TO.C,IC3*%
X71060000Y-64425000D02*
X71060000Y-65675000D01*
X71060000Y-67675000D02*
X71060000Y-68925000D01*
X71060000Y-68925000D02*
X88960000Y-68925000D01*
X88960000Y-64425000D02*
X71060000Y-64425000D01*
X88960000Y-68925000D02*
X88960000Y-64425000D01*
X71060000Y-65675000D02*
G75*
G02*
X71060000Y-67675000I0J-1000000D01*
G01*
%TD*%
D15*
X98425000Y-110490000D03*
X98425000Y-107950000D03*
X98425000Y-105410000D03*
X98425000Y-102870000D03*
X98425000Y-100330000D03*
X98425000Y-97790000D03*
X98425000Y-95250000D03*
X98425000Y-92710000D03*
X98425000Y-90170000D03*
X98425000Y-87630000D03*
X98425000Y-85090000D03*
X98425000Y-82550000D03*
X98425000Y-80010000D03*
X98425000Y-77470000D03*
X83185000Y-77470000D03*
X83185000Y-80010000D03*
X83185000Y-82550000D03*
X83185000Y-85090000D03*
X83185000Y-87630000D03*
X83185000Y-90170000D03*
X83185000Y-92710000D03*
X83185000Y-95250000D03*
X83185000Y-97790000D03*
X83185000Y-100330000D03*
X83185000Y-102870000D03*
X83185000Y-105410000D03*
X83185000Y-107950000D03*
X83185000Y-110490000D03*
X78745000Y-110480000D03*
X78745000Y-107940000D03*
X78745000Y-105400000D03*
X78745000Y-102860000D03*
X78745000Y-100320000D03*
X78745000Y-97780000D03*
X78745000Y-95240000D03*
X78745000Y-92700000D03*
X78745000Y-90160000D03*
X78745000Y-87620000D03*
X78745000Y-85080000D03*
X78745000Y-82540000D03*
X78745000Y-80000000D03*
X78745000Y-77460000D03*
X63505000Y-77460000D03*
X63505000Y-80000000D03*
X63505000Y-82540000D03*
X63505000Y-85080000D03*
X63505000Y-87620000D03*
X63505000Y-90160000D03*
X63505000Y-92700000D03*
X63505000Y-95240000D03*
X63505000Y-97780000D03*
X63505000Y-100320000D03*
X63505000Y-102860000D03*
X63505000Y-105400000D03*
X63505000Y-107940000D03*
X63505000Y-110480000D03*
X63580000Y-114300000D03*
X76080000Y-114300000D03*
X96420000Y-114300000D03*
X83920000Y-114300000D03*
X72390000Y-70485000D03*
X74930000Y-70485000D03*
X77470000Y-70485000D03*
X80010000Y-70485000D03*
X82550000Y-70485000D03*
X85090000Y-70485000D03*
X87630000Y-70485000D03*
X87630000Y-62865000D03*
X85090000Y-62865000D03*
X82550000Y-62865000D03*
X80010000Y-62865000D03*
X77470000Y-62865000D03*
X74930000Y-62865000D03*
X72390000Y-62865000D03*
M02*
