M48
METRIC,TZ
T1C0.800
%
G90
G05
T1
X2540Y29210
X2540Y13970
X5080Y29210
X5080Y13970
X7620Y29210
X7620Y13970
X10160Y29210
X10160Y13970
X12700Y40620
X12700Y33000
X12700Y29210
X12700Y13970
X15240Y40620
X15240Y33000
X15240Y29210
X15240Y13970
X17780Y40620
X17780Y33000
X17780Y29210
X17780Y13970
X20320Y40620
X20320Y33000
X20320Y29210
X20320Y13970
X22860Y40620
X22860Y33000
X22860Y29210
X22860Y13970
X25400Y40620
X25400Y33000
X25400Y29210
X25400Y13970
X27940Y40620
X27940Y33000
X27940Y29210
X27940Y13970
X30480Y29210
X30480Y13970
X31750Y39350
X31750Y34350
X33020Y29210
X33020Y13970
X35560Y29210
X35560Y13970
X38100Y24090
X38100Y19090
M30
