M48
METRIC,TZ
T1C0.500
T2C0.800
T3C0.800
%
G90
G05
T1
X2540Y26670
X15240Y68580
X15240Y34275
X25400Y69596
X38100Y10160
T2
X5080Y63500
X5080Y19050
X5080Y15240
X6096Y60960
X7112Y58420
X7620Y22606
X8128Y55880
X9144Y50800
X9652Y53340
X10160Y22606
X10668Y45720
X11176Y48260
X11684Y43180
X12065Y53340
X12700Y40640
X12700Y22606
X13716Y38100
X17780Y29210
X17780Y22606
X18415Y69850
X20320Y71120
X20320Y28575
X20320Y24130
X22225Y25146
X24130Y26162
X24765Y28575
T3
X2545Y67320
X2545Y64780
X2545Y62240
X2545Y59700
X2545Y57160
X2545Y54620
X2545Y52080
X2545Y49540
X2545Y47000
X2545Y44460
X2545Y41920
X2545Y39380
X2545Y36840
X2545Y34300
X2620Y30480
X11430Y81915
X11430Y74295
X13970Y81915
X13970Y74295
X15120Y30480
X16510Y81915
X16510Y74295
X17785Y67320
X17785Y64780
X17785Y62240
X17785Y59700
X17785Y57160
X17785Y54620
X17785Y52080
X17785Y49540
X17785Y47000
X17785Y44460
X17785Y41920
X17785Y39380
X17785Y36840
X17785Y34300
X19050Y81915
X19050Y74295
X21590Y81915
X21590Y74295
X22225Y67310
X22225Y64770
X22225Y62230
X22225Y59690
X22225Y57150
X22225Y54610
X22225Y52070
X22225Y49530
X22225Y46990
X22225Y44450
X22225Y41910
X22225Y39370
X22225Y36830
X22225Y34290
X22960Y30480
X24130Y81915
X24130Y74295
X26670Y81915
X26670Y74295
X35460Y30480
X37465Y67310
X37465Y64770
X37465Y62230
X37465Y59690
X37465Y57150
X37465Y54610
X37465Y52070
X37465Y49530
X37465Y46990
X37465Y44450
X37465Y41910
X37465Y39370
X37465Y36830
X37465Y34290
M30
