%TF.GenerationSoftware,KiCad,Pcbnew,8.0.6+1*%
%TF.CreationDate,2024-12-27T18:58:42+01:00*%
%TF.ProjectId,QL_ROM_Cartridge_original,514c5f52-4f4d-45f4-9361-727472696467,0*%
%TF.SameCoordinates,Original*%
%TF.FileFunction,Profile,NP*%
%FSLAX46Y46*%
G04 Gerber Fmt 4.6, Leading zero omitted, Abs format (unit mm)*
G04 Created by KiCad (PCBNEW 8.0.6+1) date 2024-12-27 18:58:42*
%MOMM*%
%LPD*%
G01*
G04 APERTURE LIST*
%TA.AperFunction,Profile*%
%ADD10C,0.100000*%
%TD*%
%ADD11C,0.350000*%
G04 APERTURE END LIST*
D10*
X39624000Y85090000D02*
X1016000Y85090000D01*
X24384000Y8509000D02*
X24384000Y254000D01*
X39624000Y71882000D02*
X39624000Y254000D01*
X24384000Y254000D02*
X1016000Y254000D01*
X1015990Y71881240D02*
X1016000Y254000D01*
X26416000Y254000D02*
X26416000Y8509000D01*
X39624000Y254000D02*
X26416000Y254000D01*
X1015990Y80061560D02*
G75*
G02*
X1015990Y71881240I10J-4090160D01*
G01*
X1016000Y85090000D02*
X1016000Y80060800D01*
X39624000Y71880480D02*
G75*
G02*
X39624000Y80060800I0J4090160D01*
G01*
X24384000Y8509000D02*
G75*
G02*
X26416000Y8509000I1016000J0D01*
G01*
X39624000Y80060800D02*
X39624000Y85090000D01*
D11*
X37465000Y34290000D03*
X37465000Y36830000D03*
X37465000Y39370000D03*
X37465000Y41910000D03*
X37465000Y44450000D03*
X37465000Y46990000D03*
X37465000Y49530000D03*
X37465000Y52070000D03*
X37465000Y54610000D03*
X37465000Y57150000D03*
X37465000Y59690000D03*
X37465000Y62230000D03*
X37465000Y64770000D03*
X37465000Y67310000D03*
X22225000Y67310000D03*
X22225000Y64770000D03*
X22225000Y62230000D03*
X22225000Y59690000D03*
X22225000Y57150000D03*
X22225000Y54610000D03*
X22225000Y52070000D03*
X22225000Y49530000D03*
X22225000Y46990000D03*
X22225000Y44450000D03*
X22225000Y41910000D03*
X22225000Y39370000D03*
X22225000Y36830000D03*
X22225000Y34290000D03*
X17785000Y34300000D03*
X17785000Y36840000D03*
X17785000Y39380000D03*
X17785000Y41920000D03*
X17785000Y44460000D03*
X17785000Y47000000D03*
X17785000Y49540000D03*
X17785000Y52080000D03*
X17785000Y54620000D03*
X17785000Y57160000D03*
X17785000Y59700000D03*
X17785000Y62240000D03*
X17785000Y64780000D03*
X17785000Y67320000D03*
X2545000Y67320000D03*
X2545000Y64780000D03*
X2545000Y62240000D03*
X2545000Y59700000D03*
X2545000Y57160000D03*
X2545000Y54620000D03*
X2545000Y52080000D03*
X2545000Y49540000D03*
X2545000Y47000000D03*
X2545000Y44460000D03*
X2545000Y41920000D03*
X2545000Y39380000D03*
X2545000Y36840000D03*
X2545000Y34300000D03*
X2620000Y30480000D03*
X15120000Y30480000D03*
X35460000Y30480000D03*
X22960000Y30480000D03*
X11430000Y74295000D03*
X13970000Y74295000D03*
X16510000Y74295000D03*
X19050000Y74295000D03*
X21590000Y74295000D03*
X24130000Y74295000D03*
X26670000Y74295000D03*
X26670000Y81915000D03*
X24130000Y81915000D03*
X21590000Y81915000D03*
X19050000Y81915000D03*
X16510000Y81915000D03*
X13970000Y81915000D03*
X11430000Y81915000D03*
M02*
