%TF.GenerationSoftware,KiCad,Pcbnew,8.0.6+1*%
%TF.CreationDate,2024-12-27T19:01:20+01:00*%
%TF.ProjectId,QL_ROM_Cartridge_original,514c5f52-4f4d-45f4-9361-727472696467,0*%
%TF.SameCoordinates,Original*%
%TF.FileFunction,Copper,L2,Bot*%
%TF.FilePolarity,Positive*%
%FSLAX46Y46*%
G04 Gerber Fmt 4.6, Leading zero omitted, Abs format (unit mm)*
G04 Created by KiCad (PCBNEW 8.0.6+1) date 2024-12-27 19:01:20*
%MOMM*%
%LPD*%
G01*
G04 APERTURE LIST*
G04 Aperture macros list*
%AMRoundRect*
0 Rectangle with rounded corners*
0 $1 Rounding radius*
0 $2 $3 $4 $5 $6 $7 $8 $9 X,Y pos of 4 corners*
0 Add a 4 corners polygon primitive as box body*
4,1,4,$2,$3,$4,$5,$6,$7,$8,$9,$2,$3,0*
0 Add four circle primitives for the rounded corners*
1,1,$1+$1,$2,$3*
1,1,$1+$1,$4,$5*
1,1,$1+$1,$6,$7*
1,1,$1+$1,$8,$9*
0 Add four rect primitives between the rounded corners*
20,1,$1+$1,$2,$3,$4,$5,0*
20,1,$1+$1,$4,$5,$6,$7,0*
20,1,$1+$1,$6,$7,$8,$9,0*
20,1,$1+$1,$8,$9,$2,$3,0*%
G04 Aperture macros list end*
%ADD10C,0.300000*%
%TA.AperFunction,NonConductor*%
%ADD11C,0.300000*%
%TD*%
%TA.AperFunction,EtchedComponent*%
%ADD12C,0.300000*%
%TD*%
%TA.AperFunction,ComponentPad*%
%ADD13R,1.600000X1.600000*%
%TD*%
%TA.AperFunction,ComponentPad*%
%ADD14O,1.600000X1.600000*%
%TD*%
%TA.AperFunction,ConnectorPad*%
%ADD15RoundRect,0.762000X-0.000010X-1.738000X0.000010X-1.738000X0.000010X1.738000X-0.000010X1.738000X0*%
%TD*%
%TA.AperFunction,ConnectorPad*%
%ADD16RoundRect,0.228600X-0.533400X-2.271400X0.533400X-2.271400X0.533400X2.271400X-0.533400X2.271400X0*%
%TD*%
%TA.AperFunction,ComponentPad*%
%ADD17C,1.600000*%
%TD*%
%TA.AperFunction,ComponentPad*%
%ADD18R,1.600000X2.400000*%
%TD*%
%TA.AperFunction,ComponentPad*%
%ADD19O,1.600000X2.400000*%
%TD*%
%TA.AperFunction,ViaPad*%
%ADD20C,1.200000*%
%TD*%
%TA.AperFunction,Conductor*%
%ADD21C,1.000000*%
%TD*%
%TA.AperFunction,Conductor*%
%ADD22C,0.250000*%
%TD*%
%ADD23C,0.350000*%
G04 APERTURE END LIST*
D10*
D11*
X32372142Y78061672D02*
X32872142Y78775958D01*
X33229285Y78061672D02*
X33229285Y79561672D01*
X33229285Y79561672D02*
X32657856Y79561672D01*
X32657856Y79561672D02*
X32514999Y79490243D01*
X32514999Y79490243D02*
X32443570Y79418815D01*
X32443570Y79418815D02*
X32372142Y79275958D01*
X32372142Y79275958D02*
X32372142Y79061672D01*
X32372142Y79061672D02*
X32443570Y78918815D01*
X32443570Y78918815D02*
X32514999Y78847386D01*
X32514999Y78847386D02*
X32657856Y78775958D01*
X32657856Y78775958D02*
X33229285Y78775958D01*
X31729285Y78847386D02*
X31229285Y78847386D01*
X31014999Y78061672D02*
X31729285Y78061672D01*
X31729285Y78061672D02*
X31729285Y79561672D01*
X31729285Y79561672D02*
X31014999Y79561672D01*
X30372142Y78061672D02*
X30372142Y79561672D01*
X30372142Y79561672D02*
X29800713Y79561672D01*
X29800713Y79561672D02*
X29657856Y79490243D01*
X29657856Y79490243D02*
X29586427Y79418815D01*
X29586427Y79418815D02*
X29514999Y79275958D01*
X29514999Y79275958D02*
X29514999Y79061672D01*
X29514999Y79061672D02*
X29586427Y78918815D01*
X29586427Y78918815D02*
X29657856Y78847386D01*
X29657856Y78847386D02*
X29800713Y78775958D01*
X29800713Y78775958D02*
X30372142Y78775958D01*
X28014999Y78061672D02*
X28514999Y78775958D01*
X28872142Y78061672D02*
X28872142Y79561672D01*
X28872142Y79561672D02*
X28300713Y79561672D01*
X28300713Y79561672D02*
X28157856Y79490243D01*
X28157856Y79490243D02*
X28086427Y79418815D01*
X28086427Y79418815D02*
X28014999Y79275958D01*
X28014999Y79275958D02*
X28014999Y79061672D01*
X28014999Y79061672D02*
X28086427Y78918815D01*
X28086427Y78918815D02*
X28157856Y78847386D01*
X28157856Y78847386D02*
X28300713Y78775958D01*
X28300713Y78775958D02*
X28872142Y78775958D01*
X27086427Y79561672D02*
X26800713Y79561672D01*
X26800713Y79561672D02*
X26657856Y79490243D01*
X26657856Y79490243D02*
X26514999Y79347386D01*
X26514999Y79347386D02*
X26443570Y79061672D01*
X26443570Y79061672D02*
X26443570Y78561672D01*
X26443570Y78561672D02*
X26514999Y78275958D01*
X26514999Y78275958D02*
X26657856Y78133100D01*
X26657856Y78133100D02*
X26800713Y78061672D01*
X26800713Y78061672D02*
X27086427Y78061672D01*
X27086427Y78061672D02*
X27229285Y78133100D01*
X27229285Y78133100D02*
X27372142Y78275958D01*
X27372142Y78275958D02*
X27443570Y78561672D01*
X27443570Y78561672D02*
X27443570Y79061672D01*
X27443570Y79061672D02*
X27372142Y79347386D01*
X27372142Y79347386D02*
X27229285Y79490243D01*
X27229285Y79490243D02*
X27086427Y79561672D01*
X24157856Y78847386D02*
X23943570Y78775958D01*
X23943570Y78775958D02*
X23872141Y78704529D01*
X23872141Y78704529D02*
X23800713Y78561672D01*
X23800713Y78561672D02*
X23800713Y78347386D01*
X23800713Y78347386D02*
X23872141Y78204529D01*
X23872141Y78204529D02*
X23943570Y78133100D01*
X23943570Y78133100D02*
X24086427Y78061672D01*
X24086427Y78061672D02*
X24657856Y78061672D01*
X24657856Y78061672D02*
X24657856Y79561672D01*
X24657856Y79561672D02*
X24157856Y79561672D01*
X24157856Y79561672D02*
X24014999Y79490243D01*
X24014999Y79490243D02*
X23943570Y79418815D01*
X23943570Y79418815D02*
X23872141Y79275958D01*
X23872141Y79275958D02*
X23872141Y79133100D01*
X23872141Y79133100D02*
X23943570Y78990243D01*
X23943570Y78990243D02*
X24014999Y78918815D01*
X24014999Y78918815D02*
X24157856Y78847386D01*
X24157856Y78847386D02*
X24657856Y78847386D01*
X22872141Y78775958D02*
X22872141Y78061672D01*
X23372141Y79561672D02*
X22872141Y78775958D01*
X22872141Y78775958D02*
X22372141Y79561672D01*
X20800713Y78490243D02*
X20086428Y78490243D01*
X20943570Y78061672D02*
X20443570Y79561672D01*
X20443570Y79561672D02*
X19943570Y78061672D01*
X18729285Y78061672D02*
X19443571Y78061672D01*
X19443571Y78061672D02*
X19443571Y79561672D01*
X18229285Y78847386D02*
X17729285Y78847386D01*
X17514999Y78061672D02*
X18229285Y78061672D01*
X18229285Y78061672D02*
X18229285Y79561672D01*
X18229285Y79561672D02*
X17514999Y79561672D01*
X16943570Y78490243D02*
X16229285Y78490243D01*
X17086427Y78061672D02*
X16586427Y79561672D01*
X16586427Y79561672D02*
X16086427Y78061672D01*
D12*
%TO.C,J1*%
X2540000Y747400D02*
X2540000Y1357000D01*
X5080000Y747400D02*
X5080000Y1357000D01*
X7620000Y772800D02*
X7620000Y1382400D01*
X10160000Y747400D02*
X10160000Y1357000D01*
X12700000Y747400D02*
X12700000Y1382400D01*
X15240000Y772800D02*
X15240000Y1382400D01*
X17780000Y747400D02*
X17780000Y1357000D01*
X20320000Y772800D02*
X20320000Y1382400D01*
X22860000Y812800D02*
X22860000Y1397000D01*
X27940000Y772800D02*
X27940000Y1357000D01*
X30480000Y732800D02*
X30480000Y1270000D01*
X33020000Y732800D02*
X33020000Y1270000D01*
X35560000Y732800D02*
X35560000Y1317000D01*
X38100000Y747400D02*
X38100000Y1357000D01*
%TD*%
D13*
%TO.P,IC2,1,VPP*%
%TO.N,VCC*%
X37465000Y34290000D03*
D14*
%TO.P,IC2,2,A12*%
%TO.N,/A12*%
X37465000Y36830000D03*
%TO.P,IC2,3,A7*%
%TO.N,/A7*%
X37465000Y39370000D03*
%TO.P,IC2,4,A6*%
%TO.N,/A6*%
X37465000Y41910000D03*
%TO.P,IC2,5,A5*%
%TO.N,/A5*%
X37465000Y44450000D03*
%TO.P,IC2,6,A4*%
%TO.N,/A4*%
X37465000Y46990000D03*
%TO.P,IC2,7,A3*%
%TO.N,/A3*%
X37465000Y49530000D03*
%TO.P,IC2,8,A2*%
%TO.N,/A2*%
X37465000Y52070000D03*
%TO.P,IC2,9,A1*%
%TO.N,/A1*%
X37465000Y54610000D03*
%TO.P,IC2,10,A0*%
%TO.N,/A0*%
X37465000Y57150000D03*
%TO.P,IC2,11,D0*%
%TO.N,/D0*%
X37465000Y59690000D03*
%TO.P,IC2,12,D1*%
%TO.N,/D1*%
X37465000Y62230000D03*
%TO.P,IC2,13,D2*%
%TO.N,/D2*%
X37465000Y64770000D03*
%TO.P,IC2,14,GND*%
%TO.N,GND*%
X37465000Y67310000D03*
%TO.P,IC2,15,D3*%
%TO.N,/D3*%
X22225000Y67310000D03*
%TO.P,IC2,16,D4*%
%TO.N,/D4*%
X22225000Y64770000D03*
%TO.P,IC2,17,D5*%
%TO.N,/D5*%
X22225000Y62230000D03*
%TO.P,IC2,18,D6*%
%TO.N,/D6*%
X22225000Y59690000D03*
%TO.P,IC2,19,D7*%
%TO.N,/D7*%
X22225000Y57150000D03*
%TO.P,IC2,20,~{CE}*%
%TO.N,/U2_CE*%
X22225000Y54610000D03*
%TO.P,IC2,21,A10*%
%TO.N,/A10*%
X22225000Y52070000D03*
%TO.P,IC2,22,~{OE}*%
%TO.N,/U_ROMOE*%
X22225000Y49530000D03*
%TO.P,IC2,23,A11*%
%TO.N,/A11*%
X22225000Y46990000D03*
%TO.P,IC2,24,A9*%
%TO.N,/A9*%
X22225000Y44450000D03*
%TO.P,IC2,25,A8*%
%TO.N,/A8*%
X22225000Y41910000D03*
%TO.P,IC2,26,A13*%
%TO.N,/A13*%
X22225000Y39370000D03*
%TO.P,IC2,27,~{PGM}*%
%TO.N,VCC*%
X22225000Y36830000D03*
%TO.P,IC2,28,VCC*%
X22225000Y34290000D03*
%TD*%
D15*
%TO.P,J1,2,N/C*%
%TO.N,unconnected-(J1-Pad2)*%
X38100000Y5548000D03*
D16*
X38100000Y3810000D03*
D15*
%TO.P,J1,4,A12*%
%TO.N,/A12*%
X35560000Y5548000D03*
D16*
X35560000Y3770000D03*
D15*
%TO.P,J1,6,A7*%
%TO.N,/A7*%
X33020000Y5548000D03*
D16*
X33020000Y3770000D03*
D15*
%TO.P,J1,8,A6*%
%TO.N,/A6*%
X30480000Y5548000D03*
D16*
X30480000Y3770000D03*
D15*
%TO.P,J1,10,A5*%
%TO.N,/A5*%
X27940000Y5588000D03*
D16*
X27940000Y3810000D03*
D15*
%TO.P,J1,12,A4*%
%TO.N,/A4*%
X22860000Y5588000D03*
D16*
X22860000Y3850000D03*
D15*
%TO.P,J1,14,A3*%
%TO.N,/A3*%
X20320000Y5548000D03*
D16*
X20320000Y3810000D03*
D15*
%TO.P,J1,16,A2*%
%TO.N,/A2*%
X17780000Y5548000D03*
D16*
X17780000Y3810000D03*
D15*
%TO.P,J1,18,A1*%
%TO.N,/A1*%
X15240000Y5548000D03*
D16*
X15240000Y3820800D03*
D15*
%TO.P,J1,20,A0*%
%TO.N,/A0*%
X12700000Y5548000D03*
D16*
X12700000Y3820800D03*
D15*
%TO.P,J1,22,D0*%
%TO.N,/D0*%
X10160000Y5548000D03*
D16*
X10160000Y3820800D03*
%TO.P,J1,24,D1*%
%TO.N,/D1*%
X7594600Y3820800D03*
D15*
X7620000Y5588000D03*
%TO.P,J1,26,D2*%
%TO.N,/D2*%
X5080000Y5548000D03*
D16*
X5080000Y3810000D03*
D15*
%TO.P,J1,28,GND*%
%TO.N,GND*%
X2540000Y5548000D03*
D16*
X2540000Y3810000D03*
%TD*%
D13*
%TO.P,IC1,1,VPP*%
%TO.N,VCC*%
X17785000Y34300000D03*
D14*
%TO.P,IC1,2,A12*%
%TO.N,/A12*%
X17785000Y36840000D03*
%TO.P,IC1,3,A7*%
%TO.N,/A7*%
X17785000Y39380000D03*
%TO.P,IC1,4,A6*%
%TO.N,/A6*%
X17785000Y41920000D03*
%TO.P,IC1,5,A5*%
%TO.N,/A5*%
X17785000Y44460000D03*
%TO.P,IC1,6,A4*%
%TO.N,/A4*%
X17785000Y47000000D03*
%TO.P,IC1,7,A3*%
%TO.N,/A3*%
X17785000Y49540000D03*
%TO.P,IC1,8,A2*%
%TO.N,/A2*%
X17785000Y52080000D03*
%TO.P,IC1,9,A1*%
%TO.N,/A1*%
X17785000Y54620000D03*
%TO.P,IC1,10,A0*%
%TO.N,/A0*%
X17785000Y57160000D03*
%TO.P,IC1,11,D0*%
%TO.N,/D0*%
X17785000Y59700000D03*
%TO.P,IC1,12,D1*%
%TO.N,/D1*%
X17785000Y62240000D03*
%TO.P,IC1,13,D2*%
%TO.N,/D2*%
X17785000Y64780000D03*
%TO.P,IC1,14,GND*%
%TO.N,GND*%
X17785000Y67320000D03*
%TO.P,IC1,15,D3*%
%TO.N,/D3*%
X2545000Y67320000D03*
%TO.P,IC1,16,D4*%
%TO.N,/D4*%
X2545000Y64780000D03*
%TO.P,IC1,17,D5*%
%TO.N,/D5*%
X2545000Y62240000D03*
%TO.P,IC1,18,D6*%
%TO.N,/D6*%
X2545000Y59700000D03*
%TO.P,IC1,19,D7*%
%TO.N,/D7*%
X2545000Y57160000D03*
%TO.P,IC1,20,~{CE}*%
%TO.N,/U1_CE*%
X2545000Y54620000D03*
%TO.P,IC1,21,A10*%
%TO.N,/A10*%
X2545000Y52080000D03*
%TO.P,IC1,22,~{OE}*%
%TO.N,/U_ROMOE*%
X2545000Y49540000D03*
%TO.P,IC1,23,A11*%
%TO.N,/A11*%
X2545000Y47000000D03*
%TO.P,IC1,24,A9*%
%TO.N,/A9*%
X2545000Y44460000D03*
%TO.P,IC1,25,A8*%
%TO.N,/A8*%
X2545000Y41920000D03*
%TO.P,IC1,26,A13*%
%TO.N,/A13*%
X2545000Y39380000D03*
%TO.P,IC1,27,~{PGM}*%
%TO.N,VCC*%
X2545000Y36840000D03*
%TO.P,IC1,28,VCC*%
X2545000Y34300000D03*
%TD*%
D17*
%TO.P,C1,1*%
%TO.N,VCC*%
X2620000Y30480000D03*
D14*
%TO.P,C1,2*%
%TO.N,GND*%
X15120000Y30480000D03*
%TD*%
D17*
%TO.P,C2,1*%
%TO.N,VCC*%
X35460000Y30480000D03*
D14*
%TO.P,C2,2*%
%TO.N,GND*%
X22960000Y30480000D03*
%TD*%
D18*
%TO.P,IC3,1*%
%TO.N,/A15*%
X11430000Y74295000D03*
D19*
%TO.P,IC3,2*%
%TO.N,/ROMOE*%
X13970000Y74295000D03*
%TO.P,IC3,3*%
%TO.N,/U_ROMOE*%
X16510000Y74295000D03*
%TO.P,IC3,4*%
%TO.N,/U2_CE*%
X19050000Y74295000D03*
%TO.P,IC3,5*%
X21590000Y74295000D03*
%TO.P,IC3,6*%
%TO.N,/U1_CE*%
X24130000Y74295000D03*
%TO.P,IC3,7,GND*%
%TO.N,GND*%
X26670000Y74295000D03*
%TO.P,IC3,8*%
%TO.N,/U2_CE*%
X26670000Y81915000D03*
%TO.P,IC3,9*%
%TO.N,/A14*%
X24130000Y81915000D03*
%TO.P,IC3,10*%
%TO.N,/A15*%
X21590000Y81915000D03*
%TO.P,IC3,11*%
%TO.N,unconnected-(IC3-Pad11)*%
X19050000Y81915000D03*
%TO.P,IC3,12*%
%TO.N,unconnected-(IC3-Pad12)*%
X16510000Y81915000D03*
%TO.P,IC3,13*%
%TO.N,unconnected-(IC3-Pad13)*%
X13970000Y81915000D03*
%TO.P,IC3,14,VCC*%
%TO.N,VCC*%
X11430000Y81915000D03*
%TD*%
D20*
%TO.N,VCC*%
X38100000Y10160000D03*
X15240000Y34275000D03*
X15240000Y68580000D03*
%TO.N,GND*%
X25400000Y69596000D03*
X2540000Y26670000D03*
%TO.N,/D3*%
X5080000Y19050000D03*
%TO.N,/D4*%
X5080000Y63500000D03*
X5080000Y15240000D03*
%TO.N,/D5*%
X7620000Y22606000D03*
X6096000Y60960000D03*
%TO.N,/D6*%
X7112000Y58420000D03*
X10160000Y22606000D03*
%TO.N,/D7*%
X8128000Y55880000D03*
X12700000Y22606000D03*
%TO.N,/A15*%
X18415000Y69850000D03*
X17780000Y29210000D03*
%TO.N,/A10*%
X17780000Y22606000D03*
X9144000Y50800000D03*
%TO.N,/ROMOE*%
X20320000Y28575000D03*
X20320000Y71120000D03*
%TO.N,/A11*%
X20320000Y24130000D03*
X10668000Y45720000D03*
%TO.N,/A9*%
X11684000Y43180000D03*
X22225000Y25146000D03*
%TO.N,/A8*%
X12700000Y40640000D03*
X24130000Y26162000D03*
%TO.N,/A13*%
X24765000Y28575000D03*
X13716000Y38100000D03*
%TO.N,/U1_CE*%
X9652000Y53340000D03*
%TO.N,/U2_CE*%
X12065000Y53340000D03*
%TO.N,/U_ROMOE*%
X11176000Y48260000D03*
%TD*%
D21*
%TO.N,VCC*%
X37465000Y32385000D02*
X35460000Y30480000D01*
X2545000Y30555000D02*
X2620000Y30480000D01*
X37465000Y34290000D02*
X37465000Y32385000D01*
X2545000Y36815000D02*
X2545000Y34275000D01*
X22225000Y36830000D02*
X22225000Y34290000D01*
X37465000Y10795000D02*
X38100000Y10160000D01*
X37465000Y32512000D02*
X37465000Y10795000D01*
X15240000Y34275000D02*
X15240000Y68580000D01*
X2545000Y34300000D02*
X2545000Y30555000D01*
%TO.N,GND*%
X26670000Y70866000D02*
X25400000Y69596000D01*
X25395000Y63505000D02*
X25400000Y63500000D01*
X25400000Y63500000D02*
X25400000Y32920000D01*
X25400000Y32920000D02*
X22960000Y30480000D01*
X25400000Y69596000D02*
X25395000Y63505000D01*
X2540000Y26670000D02*
X2540000Y5548000D01*
X26670000Y74295000D02*
X26670000Y70866000D01*
D22*
%TO.N,/D3*%
X3810000Y66030000D02*
X2545000Y67295000D01*
X5080000Y19050000D02*
X3810000Y20320000D01*
X3810000Y20320000D02*
X3810000Y66030000D01*
%TO.N,/D4*%
X5080000Y63500000D02*
X5080000Y22545960D01*
X6350000Y21275960D02*
X6350000Y16510000D01*
X6350000Y16510000D02*
X5080000Y15240000D01*
X5080000Y22545960D02*
X6350000Y21275960D01*
%TO.N,/D2*%
X5080000Y7747000D02*
X5080000Y12065000D01*
X26670000Y26670000D02*
X26670000Y59055000D01*
X32395000Y64780000D02*
X37465000Y64780000D01*
X13335000Y20320000D02*
X20320000Y20320000D01*
X5080000Y12065000D02*
X13335000Y20320000D01*
X20320000Y20320000D02*
X26670000Y26670000D01*
X26670000Y59055000D02*
X32395000Y64780000D01*
%TO.N,/D5*%
X7620000Y22606000D02*
X6096000Y24130000D01*
X6096000Y24130000D02*
X6096000Y60960000D01*
%TO.N,/D1*%
X20955000Y19685000D02*
X27305000Y26035000D01*
X7620000Y7787000D02*
X7620000Y12700000D01*
X27305000Y26035000D02*
X27305000Y57150000D01*
X32395000Y62240000D02*
X37465000Y62240000D01*
X7620000Y12700000D02*
X14605000Y19685000D01*
X14605000Y19685000D02*
X20955000Y19685000D01*
X27305000Y57150000D02*
X32395000Y62240000D01*
%TO.N,/D6*%
X7112000Y25654000D02*
X7112000Y58420000D01*
X10160000Y22606000D02*
X7112000Y25654000D01*
%TO.N,/D0*%
X27940000Y25400000D02*
X27940000Y55245000D01*
X27940000Y55245000D02*
X32395000Y59700000D01*
X32395000Y59700000D02*
X37465000Y59700000D01*
X10160000Y12065000D02*
X17145000Y19050000D01*
X21590000Y19050000D02*
X27940000Y25400000D01*
X17145000Y19050000D02*
X21590000Y19050000D01*
X10160000Y7747000D02*
X10160000Y12065000D01*
%TO.N,/D7*%
X12700000Y22606000D02*
X8128000Y27178000D01*
X8128000Y27178000D02*
X8128000Y55880000D01*
%TO.N,/A0*%
X18415000Y18415000D02*
X22225000Y18415000D01*
X33030000Y57160000D02*
X37465000Y57160000D01*
X12700000Y7747000D02*
X12700000Y12700000D01*
X28575000Y52705000D02*
X33030000Y57160000D01*
X28575000Y24765000D02*
X28575000Y52705000D01*
X12700000Y12700000D02*
X18415000Y18415000D01*
X22225000Y18415000D02*
X28575000Y24765000D01*
%TO.N,/A15*%
X19685000Y68580000D02*
X18415000Y69850000D01*
X17780000Y29210000D02*
X19685000Y31115000D01*
X19685000Y31115000D02*
X19685000Y68580000D01*
%TO.N,/A1*%
X22860000Y17780000D02*
X29210000Y24130000D01*
X20955000Y17780000D02*
X22860000Y17780000D01*
X15240000Y12065000D02*
X20955000Y17780000D01*
X15240000Y7747000D02*
X15240000Y12065000D01*
X33665000Y54620000D02*
X37465000Y54620000D01*
X29210000Y24130000D02*
X29210000Y50165000D01*
X29210000Y50165000D02*
X33665000Y54620000D01*
%TO.N,/A10*%
X9144000Y28956000D02*
X9144000Y50800000D01*
X15494000Y22606000D02*
X9144000Y28956000D01*
X17780000Y22606000D02*
X15494000Y22606000D01*
%TO.N,/A2*%
X17780000Y12065000D02*
X22542500Y16827500D01*
X22542500Y16827500D02*
X23177500Y16827500D01*
X23177500Y16827500D02*
X29845000Y23495000D01*
X29845000Y23495000D02*
X29845000Y48260000D01*
X29845000Y48260000D02*
X33665000Y52080000D01*
X17780000Y7747000D02*
X17780000Y12065000D01*
X33665000Y52080000D02*
X37465000Y52080000D01*
%TO.N,/ROMOE*%
X20320000Y28575000D02*
X20320000Y71120000D01*
%TO.N,/A3*%
X20320000Y12700000D02*
X30480000Y22860000D01*
X20320000Y7747000D02*
X20320000Y12700000D01*
X30480000Y46990000D02*
X30480000Y22860000D01*
X33030000Y49540000D02*
X30480000Y46990000D01*
X37465000Y49540000D02*
X33030000Y49540000D01*
%TO.N,/A11*%
X10668000Y28702000D02*
X10668000Y45720000D01*
X20320000Y24130000D02*
X15240000Y24130000D01*
X15240000Y24130000D02*
X10668000Y28702000D01*
%TO.N,/A4*%
X31115000Y44450000D02*
X31115000Y21590000D01*
X33665000Y47000000D02*
X31115000Y44450000D01*
X31115000Y21590000D02*
X22860000Y13335000D01*
X37465000Y47000000D02*
X33665000Y47000000D01*
X22860000Y13335000D02*
X22860000Y7787000D01*
%TO.N,/A9*%
X15494000Y25146000D02*
X11684000Y28956000D01*
X11684000Y28956000D02*
X11684000Y43180000D01*
X22225000Y25146000D02*
X15494000Y25146000D01*
%TO.N,/A5*%
X27940000Y16510000D02*
X31750000Y20320000D01*
X27940000Y7787000D02*
X27940000Y16510000D01*
X31750000Y20320000D02*
X31750000Y42545000D01*
X31750000Y42545000D02*
X33665000Y44460000D01*
X33665000Y44460000D02*
X37465000Y44460000D01*
%TO.N,/A8*%
X15748000Y26162000D02*
X12700000Y29210000D01*
X24130000Y26162000D02*
X15748000Y26162000D01*
X12700000Y29210000D02*
X12700000Y40640000D01*
%TO.N,/A6*%
X32385000Y40005000D02*
X34300000Y41920000D01*
X34300000Y41920000D02*
X37465000Y41920000D01*
X30480000Y15240000D02*
X32385000Y17145000D01*
X32385000Y17145000D02*
X32385000Y40005000D01*
X30480000Y7747000D02*
X30480000Y15240000D01*
%TO.N,/A13*%
X13716000Y29464000D02*
X15875000Y27305000D01*
X23495000Y27305000D02*
X24765000Y28575000D01*
X13716000Y38100000D02*
X13716000Y29464000D01*
X15875000Y27305000D02*
X23495000Y27305000D01*
%TO.N,/A7*%
X34935000Y39380000D02*
X37465000Y39380000D01*
X33020000Y37465000D02*
X34935000Y39380000D01*
X33020000Y5548000D02*
X33020000Y37465000D01*
%TO.N,/A12*%
X35570000Y36840000D02*
X33655000Y34925000D01*
X33655000Y34925000D02*
X33655000Y31750000D01*
X37465000Y36840000D02*
X35570000Y36840000D01*
X33652500Y32387500D02*
X33652500Y26672500D01*
X35560000Y24765000D02*
X35560000Y5548000D01*
X33655000Y31750000D02*
X33652500Y31752500D01*
X33652500Y26672500D02*
X35560000Y24765000D01*
%TO.N,/U1_CE*%
X9652000Y75692000D02*
X10795000Y76835000D01*
X10795000Y76835000D02*
X22860000Y76835000D01*
X22860000Y76835000D02*
X24125000Y75570000D01*
X9652000Y53340000D02*
X9652000Y75692000D01*
X24125000Y75570000D02*
X24125000Y74280000D01*
%TO.N,/U2_CE*%
X21585000Y74280000D02*
X19494520Y74280000D01*
X19050000Y74295000D02*
X17145713Y72390713D01*
X17145713Y72390713D02*
X17145713Y72389287D01*
X12065000Y67310000D02*
X12065000Y66675000D01*
X12065000Y53340000D02*
X12065000Y66675000D01*
X19050000Y74295000D02*
X12065000Y67310000D01*
%TO.N,/U_ROMOE*%
X11176000Y48260000D02*
X11140489Y48295511D01*
X16510000Y74295000D02*
X11140489Y68925489D01*
X11140489Y48295511D02*
X11140489Y68925489D01*
%TD*%
D23*
X38100000Y10160000D03*
X15240000Y34275000D03*
X15240000Y68580000D03*
X25400000Y69596000D03*
X2540000Y26670000D03*
X5080000Y19050000D03*
X5080000Y63500000D03*
X5080000Y15240000D03*
X7620000Y22606000D03*
X6096000Y60960000D03*
X7112000Y58420000D03*
X10160000Y22606000D03*
X8128000Y55880000D03*
X12700000Y22606000D03*
X18415000Y69850000D03*
X17780000Y29210000D03*
X17780000Y22606000D03*
X9144000Y50800000D03*
X20320000Y28575000D03*
X20320000Y71120000D03*
X20320000Y24130000D03*
X10668000Y45720000D03*
X11684000Y43180000D03*
X22225000Y25146000D03*
X12700000Y40640000D03*
X24130000Y26162000D03*
X24765000Y28575000D03*
X13716000Y38100000D03*
X9652000Y53340000D03*
X12065000Y53340000D03*
X11176000Y48260000D03*
X37465000Y34290000D03*
X37465000Y36830000D03*
X37465000Y39370000D03*
X37465000Y41910000D03*
X37465000Y44450000D03*
X37465000Y46990000D03*
X37465000Y49530000D03*
X37465000Y52070000D03*
X37465000Y54610000D03*
X37465000Y57150000D03*
X37465000Y59690000D03*
X37465000Y62230000D03*
X37465000Y64770000D03*
X37465000Y67310000D03*
X22225000Y67310000D03*
X22225000Y64770000D03*
X22225000Y62230000D03*
X22225000Y59690000D03*
X22225000Y57150000D03*
X22225000Y54610000D03*
X22225000Y52070000D03*
X22225000Y49530000D03*
X22225000Y46990000D03*
X22225000Y44450000D03*
X22225000Y41910000D03*
X22225000Y39370000D03*
X22225000Y36830000D03*
X22225000Y34290000D03*
X17785000Y34300000D03*
X17785000Y36840000D03*
X17785000Y39380000D03*
X17785000Y41920000D03*
X17785000Y44460000D03*
X17785000Y47000000D03*
X17785000Y49540000D03*
X17785000Y52080000D03*
X17785000Y54620000D03*
X17785000Y57160000D03*
X17785000Y59700000D03*
X17785000Y62240000D03*
X17785000Y64780000D03*
X17785000Y67320000D03*
X2545000Y67320000D03*
X2545000Y64780000D03*
X2545000Y62240000D03*
X2545000Y59700000D03*
X2545000Y57160000D03*
X2545000Y54620000D03*
X2545000Y52080000D03*
X2545000Y49540000D03*
X2545000Y47000000D03*
X2545000Y44460000D03*
X2545000Y41920000D03*
X2545000Y39380000D03*
X2545000Y36840000D03*
X2545000Y34300000D03*
X2620000Y30480000D03*
X15120000Y30480000D03*
X35460000Y30480000D03*
X22960000Y30480000D03*
X11430000Y74295000D03*
X13970000Y74295000D03*
X16510000Y74295000D03*
X19050000Y74295000D03*
X21590000Y74295000D03*
X24130000Y74295000D03*
X26670000Y74295000D03*
X26670000Y81915000D03*
X24130000Y81915000D03*
X21590000Y81915000D03*
X19050000Y81915000D03*
X16510000Y81915000D03*
X13970000Y81915000D03*
X11430000Y81915000D03*
M02*
