M48
; DRILL file {KiCad 8.0.6+1} date 2024-12-12T19:09:56+0100
; FORMAT={-:-/ absolute / metric / decimal}
; #@! TF.CreationDate,2024-12-12T19:09:56+01:00
; #@! TF.GenerationSoftware,Kicad,Pcbnew,8.0.6+1
; #@! TF.FileFunction,MixedPlating,1,2
FMAT,2
METRIC
; #@! TA.AperFunction,Plated,PTH,ViaDrill
T1C0.500
; #@! TA.AperFunction,Plated,PTH,ViaDrill
T2C0.800
; #@! TA.AperFunction,Plated,PTH,ComponentDrill
T3C0.800
%
G90
G05
T1
X2.54Y26.67
X15.24Y68.58
X15.24Y34.275
X25.4Y69.596
X38.1Y10.16
T2
X5.08Y63.5
X5.08Y19.05
X5.08Y15.24
X6.096Y60.96
X7.112Y58.42
X7.62Y22.606
X8.128Y55.88
X9.144Y50.8
X9.652Y53.34
X10.16Y22.606
X10.668Y45.72
X11.176Y48.26
X11.684Y43.18
X12.065Y53.34
X12.7Y40.64
X12.7Y22.606
X13.716Y38.1
X17.78Y29.21
X17.78Y22.606
X18.415Y69.85
X20.32Y71.12
X20.32Y28.575
X20.32Y24.13
X22.225Y25.146
X24.13Y26.162
X24.765Y28.575
T3
X2.545Y67.32
X2.545Y64.78
X2.545Y62.24
X2.545Y59.7
X2.545Y57.16
X2.545Y54.62
X2.545Y52.08
X2.545Y49.54
X2.545Y47.0
X2.545Y44.46
X2.545Y41.92
X2.545Y39.38
X2.545Y36.84
X2.545Y34.3
X2.62Y30.48
X11.43Y81.915
X11.43Y74.295
X13.97Y81.915
X13.97Y74.295
X15.12Y30.48
X16.51Y81.915
X16.51Y74.295
X17.785Y67.32
X17.785Y64.78
X17.785Y62.24
X17.785Y59.7
X17.785Y57.16
X17.785Y54.62
X17.785Y52.08
X17.785Y49.54
X17.785Y47.0
X17.785Y44.46
X17.785Y41.92
X17.785Y39.38
X17.785Y36.84
X17.785Y34.3
X19.05Y81.915
X19.05Y74.295
X21.59Y81.915
X21.59Y74.295
X22.225Y67.31
X22.225Y64.77
X22.225Y62.23
X22.225Y59.69
X22.225Y57.15
X22.225Y54.61
X22.225Y52.07
X22.225Y49.53
X22.225Y46.99
X22.225Y44.45
X22.225Y41.91
X22.225Y39.37
X22.225Y36.83
X22.225Y34.29
X22.96Y30.48
X24.13Y81.915
X24.13Y74.295
X26.67Y81.915
X26.67Y74.295
X35.46Y30.48
X37.465Y67.31
X37.465Y64.77
X37.465Y62.23
X37.465Y59.69
X37.465Y57.15
X37.465Y54.61
X37.465Y52.07
X37.465Y49.53
X37.465Y46.99
X37.465Y44.45
X37.465Y41.91
X37.465Y39.37
X37.465Y36.83
X37.465Y34.29
M30
