M48
; DRILL file {KiCad 8.0.6+1} date 2024-12-27T18:58:42+0100
; FORMAT={-:-/ absolute / metric / decimal}
; #@! TF.CreationDate,2024-12-27T18:58:42+01:00
; #@! TF.GenerationSoftware,Kicad,Pcbnew,8.0.6+1
; #@! TF.FileFunction,Plated,1,2,PTH
FMAT,2
METRIC
; #@! TA.AperFunction,Plated,PTH,ViaDrill
T1C0.500
; #@! TA.AperFunction,Plated,PTH,ViaDrill
T2C0.800
; #@! TA.AperFunction,Plated,PTH,ComponentDrill
T3C0.800
%
G90
G05
T1
X63.5Y-118.11
X76.2Y-76.2
X76.2Y-110.505
X86.36Y-75.184
X99.06Y-134.62
T2
X66.04Y-81.28
X66.04Y-125.73
X66.04Y-129.54
X67.056Y-83.82
X68.072Y-86.36
X68.58Y-122.174
X69.088Y-88.9
X70.104Y-93.98
X70.612Y-91.44
X71.12Y-122.174
X71.628Y-99.06
X72.136Y-96.52
X72.644Y-101.6
X73.025Y-91.44
X73.66Y-104.14
X73.66Y-122.174
X74.676Y-106.68
X78.74Y-115.57
X78.74Y-122.174
X79.375Y-74.93
X81.28Y-73.66
X81.28Y-116.205
X81.28Y-120.65
X83.185Y-119.634
X85.09Y-118.618
X85.725Y-116.205
T3
X63.505Y-77.46
X63.505Y-80.0
X63.505Y-82.54
X63.505Y-85.08
X63.505Y-87.62
X63.505Y-90.16
X63.505Y-92.7
X63.505Y-95.24
X63.505Y-97.78
X63.505Y-100.32
X63.505Y-102.86
X63.505Y-105.4
X63.505Y-107.94
X63.505Y-110.48
X63.58Y-114.3
X72.39Y-62.865
X72.39Y-70.485
X74.93Y-62.865
X74.93Y-70.485
X76.08Y-114.3
X77.47Y-62.865
X77.47Y-70.485
X78.745Y-77.46
X78.745Y-80.0
X78.745Y-82.54
X78.745Y-85.08
X78.745Y-87.62
X78.745Y-90.16
X78.745Y-92.7
X78.745Y-95.24
X78.745Y-97.78
X78.745Y-100.32
X78.745Y-102.86
X78.745Y-105.4
X78.745Y-107.94
X78.745Y-110.48
X80.01Y-62.865
X80.01Y-70.485
X82.55Y-62.865
X82.55Y-70.485
X83.185Y-77.47
X83.185Y-80.01
X83.185Y-82.55
X83.185Y-85.09
X83.185Y-87.63
X83.185Y-90.17
X83.185Y-92.71
X83.185Y-95.25
X83.185Y-97.79
X83.185Y-100.33
X83.185Y-102.87
X83.185Y-105.41
X83.185Y-107.95
X83.185Y-110.49
X83.92Y-114.3
X85.09Y-62.865
X85.09Y-70.485
X87.63Y-62.865
X87.63Y-70.485
X96.42Y-114.3
X98.425Y-77.47
X98.425Y-80.01
X98.425Y-82.55
X98.425Y-85.09
X98.425Y-87.63
X98.425Y-90.17
X98.425Y-92.71
X98.425Y-95.25
X98.425Y-97.79
X98.425Y-100.33
X98.425Y-102.87
X98.425Y-105.41
X98.425Y-107.95
X98.425Y-110.49
M30
