%TF.GenerationSoftware,KiCad,Pcbnew,8.0.6+1*%
%TF.CreationDate,2024-12-27T19:01:20+01:00*%
%TF.ProjectId,QL_ROM_Cartridge_original,514c5f52-4f4d-45f4-9361-727472696467,0*%
%TF.SameCoordinates,Original*%
%TF.FileFunction,Copper,L1,Top*%
%TF.FilePolarity,Positive*%
%FSLAX46Y46*%
G04 Gerber Fmt 4.6, Leading zero omitted, Abs format (unit mm)*
G04 Created by KiCad (PCBNEW 8.0.6+1) date 2024-12-27 19:01:20*
%MOMM*%
%LPD*%
G01*
G04 APERTURE LIST*
G04 Aperture macros list*
%AMRoundRect*
0 Rectangle with rounded corners*
0 $1 Rounding radius*
0 $2 $3 $4 $5 $6 $7 $8 $9 X,Y pos of 4 corners*
0 Add a 4 corners polygon primitive as box body*
4,1,4,$2,$3,$4,$5,$6,$7,$8,$9,$2,$3,0*
0 Add four circle primitives for the rounded corners*
1,1,$1+$1,$2,$3*
1,1,$1+$1,$4,$5*
1,1,$1+$1,$6,$7*
1,1,$1+$1,$8,$9*
0 Add four rect primitives between the rounded corners*
20,1,$1+$1,$2,$3,$4,$5,0*
20,1,$1+$1,$4,$5,$6,$7,0*
20,1,$1+$1,$6,$7,$8,$9,0*
20,1,$1+$1,$8,$9,$2,$3,0*%
G04 Aperture macros list end*
%TA.AperFunction,EtchedComponent*%
%ADD10C,0.300000*%
%TD*%
%TA.AperFunction,ComponentPad*%
%ADD11R,1.600000X1.600000*%
%TD*%
%TA.AperFunction,ComponentPad*%
%ADD12O,1.600000X1.600000*%
%TD*%
%TA.AperFunction,ConnectorPad*%
%ADD13RoundRect,0.762000X-0.000010X-1.738000X0.000010X-1.738000X0.000010X1.738000X-0.000010X1.738000X0*%
%TD*%
%TA.AperFunction,ConnectorPad*%
%ADD14RoundRect,0.228600X-0.533400X-2.271400X0.533400X-2.271400X0.533400X2.271400X-0.533400X2.271400X0*%
%TD*%
%TA.AperFunction,ComponentPad*%
%ADD15C,1.600000*%
%TD*%
%TA.AperFunction,ComponentPad*%
%ADD16R,1.600000X2.400000*%
%TD*%
%TA.AperFunction,ComponentPad*%
%ADD17O,1.600000X2.400000*%
%TD*%
%TA.AperFunction,ViaPad*%
%ADD18C,1.200000*%
%TD*%
%TA.AperFunction,Conductor*%
%ADD19C,1.000000*%
%TD*%
%TA.AperFunction,Conductor*%
%ADD20C,0.250000*%
%TD*%
%ADD21C,0.350000*%
G04 APERTURE END LIST*
D10*
%TO.C,J1*%
X2540000Y762000D02*
X2540000Y1270000D01*
X5080000Y762000D02*
X5080000Y1270000D01*
X7620000Y762000D02*
X7620000Y1270000D01*
X10160000Y762000D02*
X10160000Y1270000D01*
X12700000Y762000D02*
X12700000Y1270000D01*
X15240000Y762000D02*
X15240000Y1270000D01*
X17780000Y762000D02*
X17780000Y1270000D01*
X20320000Y762000D02*
X20320000Y1270000D01*
X22860000Y762000D02*
X22860000Y1270000D01*
X27940000Y762000D02*
X27940000Y1270000D01*
X30480000Y762000D02*
X30480000Y1270000D01*
X33020000Y762000D02*
X33020000Y1270000D01*
X35560000Y762000D02*
X35560000Y1270000D01*
X38100000Y762000D02*
X38100000Y1270000D01*
%TD*%
D11*
%TO.P,IC2,1,VPP*%
%TO.N,VCC*%
X37465000Y34290000D03*
D12*
%TO.P,IC2,2,A12*%
%TO.N,/A12*%
X37465000Y36830000D03*
%TO.P,IC2,3,A7*%
%TO.N,/A7*%
X37465000Y39370000D03*
%TO.P,IC2,4,A6*%
%TO.N,/A6*%
X37465000Y41910000D03*
%TO.P,IC2,5,A5*%
%TO.N,/A5*%
X37465000Y44450000D03*
%TO.P,IC2,6,A4*%
%TO.N,/A4*%
X37465000Y46990000D03*
%TO.P,IC2,7,A3*%
%TO.N,/A3*%
X37465000Y49530000D03*
%TO.P,IC2,8,A2*%
%TO.N,/A2*%
X37465000Y52070000D03*
%TO.P,IC2,9,A1*%
%TO.N,/A1*%
X37465000Y54610000D03*
%TO.P,IC2,10,A0*%
%TO.N,/A0*%
X37465000Y57150000D03*
%TO.P,IC2,11,D0*%
%TO.N,/D0*%
X37465000Y59690000D03*
%TO.P,IC2,12,D1*%
%TO.N,/D1*%
X37465000Y62230000D03*
%TO.P,IC2,13,D2*%
%TO.N,/D2*%
X37465000Y64770000D03*
%TO.P,IC2,14,GND*%
%TO.N,GND*%
X37465000Y67310000D03*
%TO.P,IC2,15,D3*%
%TO.N,/D3*%
X22225000Y67310000D03*
%TO.P,IC2,16,D4*%
%TO.N,/D4*%
X22225000Y64770000D03*
%TO.P,IC2,17,D5*%
%TO.N,/D5*%
X22225000Y62230000D03*
%TO.P,IC2,18,D6*%
%TO.N,/D6*%
X22225000Y59690000D03*
%TO.P,IC2,19,D7*%
%TO.N,/D7*%
X22225000Y57150000D03*
%TO.P,IC2,20,~{CE}*%
%TO.N,/U2_CE*%
X22225000Y54610000D03*
%TO.P,IC2,21,A10*%
%TO.N,/A10*%
X22225000Y52070000D03*
%TO.P,IC2,22,~{OE}*%
%TO.N,/U_ROMOE*%
X22225000Y49530000D03*
%TO.P,IC2,23,A11*%
%TO.N,/A11*%
X22225000Y46990000D03*
%TO.P,IC2,24,A9*%
%TO.N,/A9*%
X22225000Y44450000D03*
%TO.P,IC2,25,A8*%
%TO.N,/A8*%
X22225000Y41910000D03*
%TO.P,IC2,26,A13*%
%TO.N,/A13*%
X22225000Y39370000D03*
%TO.P,IC2,27,~{PGM}*%
%TO.N,VCC*%
X22225000Y36830000D03*
%TO.P,IC2,28,VCC*%
X22225000Y34290000D03*
%TD*%
D13*
%TO.P,J1,1,Vcc*%
%TO.N,VCC*%
X38100000Y5548000D03*
D14*
X38100000Y3810000D03*
D13*
%TO.P,J1,3,A14*%
%TO.N,/A14*%
X35560000Y5548000D03*
D14*
X35560000Y3770000D03*
D13*
%TO.P,J1,5,A13*%
%TO.N,/A13*%
X33020000Y5548000D03*
D14*
X33020000Y3770000D03*
D13*
%TO.P,J1,7,A8*%
%TO.N,/A8*%
X30480000Y5548000D03*
D14*
X30480000Y3770000D03*
D13*
%TO.P,J1,9,A9*%
%TO.N,/A9*%
X27940000Y5588000D03*
D14*
X27940000Y3810000D03*
D13*
%TO.P,J1,11,A11*%
%TO.N,/A11*%
X22860000Y5588000D03*
D14*
X22860000Y3850000D03*
D13*
%TO.P,J1,13,~{ROMOE}*%
%TO.N,/ROMOE*%
X20320000Y5548000D03*
D14*
X20320000Y3810000D03*
D13*
%TO.P,J1,15,A10*%
%TO.N,/A10*%
X17780000Y5548000D03*
D14*
X17780000Y3810000D03*
D13*
%TO.P,J1,17,A15*%
%TO.N,/A15*%
X15240000Y5548000D03*
D14*
X15240000Y3810000D03*
D13*
%TO.P,J1,19,D7*%
%TO.N,/D7*%
X12700000Y5548000D03*
D14*
X12700000Y3810000D03*
D13*
%TO.P,J1,21,D6*%
%TO.N,/D6*%
X10160000Y5548000D03*
D14*
X10160000Y3820800D03*
%TO.P,J1,23,D5*%
%TO.N,/D5*%
X7594600Y3820800D03*
D13*
X7620000Y5588000D03*
%TO.P,J1,25,D4*%
%TO.N,/D4*%
X5080000Y5548000D03*
D14*
X5080000Y3810000D03*
D13*
%TO.P,J1,27,D3*%
%TO.N,/D3*%
X2540000Y5548000D03*
D14*
X2540000Y3810000D03*
%TD*%
D11*
%TO.P,IC1,1,VPP*%
%TO.N,VCC*%
X17785000Y34300000D03*
D12*
%TO.P,IC1,2,A12*%
%TO.N,/A12*%
X17785000Y36840000D03*
%TO.P,IC1,3,A7*%
%TO.N,/A7*%
X17785000Y39380000D03*
%TO.P,IC1,4,A6*%
%TO.N,/A6*%
X17785000Y41920000D03*
%TO.P,IC1,5,A5*%
%TO.N,/A5*%
X17785000Y44460000D03*
%TO.P,IC1,6,A4*%
%TO.N,/A4*%
X17785000Y47000000D03*
%TO.P,IC1,7,A3*%
%TO.N,/A3*%
X17785000Y49540000D03*
%TO.P,IC1,8,A2*%
%TO.N,/A2*%
X17785000Y52080000D03*
%TO.P,IC1,9,A1*%
%TO.N,/A1*%
X17785000Y54620000D03*
%TO.P,IC1,10,A0*%
%TO.N,/A0*%
X17785000Y57160000D03*
%TO.P,IC1,11,D0*%
%TO.N,/D0*%
X17785000Y59700000D03*
%TO.P,IC1,12,D1*%
%TO.N,/D1*%
X17785000Y62240000D03*
%TO.P,IC1,13,D2*%
%TO.N,/D2*%
X17785000Y64780000D03*
%TO.P,IC1,14,GND*%
%TO.N,GND*%
X17785000Y67320000D03*
%TO.P,IC1,15,D3*%
%TO.N,/D3*%
X2545000Y67320000D03*
%TO.P,IC1,16,D4*%
%TO.N,/D4*%
X2545000Y64780000D03*
%TO.P,IC1,17,D5*%
%TO.N,/D5*%
X2545000Y62240000D03*
%TO.P,IC1,18,D6*%
%TO.N,/D6*%
X2545000Y59700000D03*
%TO.P,IC1,19,D7*%
%TO.N,/D7*%
X2545000Y57160000D03*
%TO.P,IC1,20,~{CE}*%
%TO.N,/U1_CE*%
X2545000Y54620000D03*
%TO.P,IC1,21,A10*%
%TO.N,/A10*%
X2545000Y52080000D03*
%TO.P,IC1,22,~{OE}*%
%TO.N,/U_ROMOE*%
X2545000Y49540000D03*
%TO.P,IC1,23,A11*%
%TO.N,/A11*%
X2545000Y47000000D03*
%TO.P,IC1,24,A9*%
%TO.N,/A9*%
X2545000Y44460000D03*
%TO.P,IC1,25,A8*%
%TO.N,/A8*%
X2545000Y41920000D03*
%TO.P,IC1,26,A13*%
%TO.N,/A13*%
X2545000Y39380000D03*
%TO.P,IC1,27,~{PGM}*%
%TO.N,VCC*%
X2545000Y36840000D03*
%TO.P,IC1,28,VCC*%
X2545000Y34300000D03*
%TD*%
D15*
%TO.P,C1,1*%
%TO.N,VCC*%
X2620000Y30480000D03*
D12*
%TO.P,C1,2*%
%TO.N,GND*%
X15120000Y30480000D03*
%TD*%
D15*
%TO.P,C2,1*%
%TO.N,VCC*%
X35460000Y30480000D03*
D12*
%TO.P,C2,2*%
%TO.N,GND*%
X22960000Y30480000D03*
%TD*%
D16*
%TO.P,IC3,1*%
%TO.N,/A15*%
X11430000Y74295000D03*
D17*
%TO.P,IC3,2*%
%TO.N,/ROMOE*%
X13970000Y74295000D03*
%TO.P,IC3,3*%
%TO.N,/U_ROMOE*%
X16510000Y74295000D03*
%TO.P,IC3,4*%
%TO.N,/U2_CE*%
X19050000Y74295000D03*
%TO.P,IC3,5*%
X21590000Y74295000D03*
%TO.P,IC3,6*%
%TO.N,/U1_CE*%
X24130000Y74295000D03*
%TO.P,IC3,7,GND*%
%TO.N,GND*%
X26670000Y74295000D03*
%TO.P,IC3,8*%
%TO.N,/U2_CE*%
X26670000Y81915000D03*
%TO.P,IC3,9*%
%TO.N,/A14*%
X24130000Y81915000D03*
%TO.P,IC3,10*%
%TO.N,/A15*%
X21590000Y81915000D03*
%TO.P,IC3,11*%
%TO.N,unconnected-(IC3-Pad11)*%
X19050000Y81915000D03*
%TO.P,IC3,12*%
%TO.N,unconnected-(IC3-Pad12)*%
X16510000Y81915000D03*
%TO.P,IC3,13*%
%TO.N,unconnected-(IC3-Pad13)*%
X13970000Y81915000D03*
%TO.P,IC3,14,VCC*%
%TO.N,VCC*%
X11430000Y81915000D03*
%TD*%
D18*
%TO.N,VCC*%
X38100000Y10160000D03*
X15240000Y34275000D03*
X15240000Y68580000D03*
%TO.N,GND*%
X25400000Y69596000D03*
X2540000Y26670000D03*
%TO.N,/D3*%
X5080000Y19050000D03*
%TO.N,/D4*%
X5080000Y63500000D03*
X5080000Y15240000D03*
%TO.N,/D5*%
X7620000Y22606000D03*
X6096000Y60960000D03*
%TO.N,/D6*%
X7112000Y58420000D03*
X10160000Y22606000D03*
%TO.N,/D7*%
X8128000Y55880000D03*
X12700000Y22606000D03*
%TO.N,/A15*%
X18415000Y69850000D03*
X17780000Y29210000D03*
%TO.N,/A10*%
X17780000Y22606000D03*
X9144000Y50800000D03*
%TO.N,/ROMOE*%
X20320000Y28575000D03*
X20320000Y71120000D03*
%TO.N,/A11*%
X20320000Y24130000D03*
X10668000Y45720000D03*
%TO.N,/A9*%
X11684000Y43180000D03*
X22225000Y25146000D03*
%TO.N,/A8*%
X12700000Y40640000D03*
X24130000Y26162000D03*
%TO.N,/A13*%
X24765000Y28575000D03*
X13716000Y38100000D03*
%TO.N,/U1_CE*%
X9652000Y53340000D03*
%TO.N,/U2_CE*%
X12065000Y53340000D03*
%TO.N,/U_ROMOE*%
X11176000Y48260000D03*
%TD*%
D19*
%TO.N,VCC*%
X27325000Y34290000D02*
X31650000Y34290000D01*
X9525000Y68580000D02*
X7892143Y70757143D01*
X38100000Y10160000D02*
X38100000Y7747000D01*
X15240000Y34275000D02*
X2545000Y34275000D01*
X9510000Y81900000D02*
X7892143Y80282143D01*
X17785000Y34300000D02*
X22215000Y34300000D01*
X31650000Y34290000D02*
X35460000Y30480000D01*
X15240000Y68580000D02*
X9525000Y68580000D01*
X7892143Y70757143D02*
X7892143Y80282143D01*
X11430000Y81915000D02*
X9560944Y81915000D01*
X17760000Y34275000D02*
X17785000Y34300000D01*
X9540000Y81900000D02*
X9510000Y81900000D01*
X2545000Y34275000D02*
X2620000Y34200000D01*
X22840000Y34275000D02*
X22865000Y34300000D01*
X15240000Y34275000D02*
X17760000Y34275000D01*
X22215000Y34300000D02*
X22225000Y34290000D01*
X9525000Y81915000D02*
X9540000Y81900000D01*
X9540000Y81900000D02*
X11425000Y81900000D01*
X22865000Y34300000D02*
X27315000Y34300000D01*
X27315000Y34300000D02*
X27325000Y34290000D01*
%TO.N,GND*%
X32057500Y69522500D02*
X32067500Y69532500D01*
X15120000Y30480000D02*
X6350000Y30480000D01*
X6350000Y30480000D02*
X2540000Y26670000D01*
X34280000Y67320000D02*
X32067500Y69532500D01*
X34280000Y67320000D02*
X37465000Y67320000D01*
X17785000Y67295000D02*
X20012500Y69522500D01*
X16390000Y31750000D02*
X15120000Y30480000D01*
X22960000Y30480000D02*
X22860000Y30480000D01*
X22860000Y30480000D02*
X21590000Y31750000D01*
X21590000Y31750000D02*
X16390000Y31750000D01*
X19987500Y69522500D02*
X20012500Y69522500D01*
X17785000Y67320000D02*
X19987500Y69522500D01*
X20012500Y69522500D02*
X32057500Y69522500D01*
D20*
%TO.N,/D3*%
X4460000Y67295000D02*
X5715000Y66040000D01*
X5715000Y66040000D02*
X18415000Y66040000D01*
X21590000Y67310000D02*
X21605000Y67295000D01*
X2545000Y67295000D02*
X4460000Y67295000D01*
X19695000Y67320000D02*
X18415000Y66040000D01*
X19695000Y67320000D02*
X21595000Y67320000D01*
X2540000Y16510000D02*
X2540000Y5548000D01*
X5080000Y19050000D02*
X2540000Y16510000D01*
%TO.N,/D4*%
X5080000Y7747000D02*
X5080000Y15240000D01*
X5080000Y63500000D02*
X19050000Y63500000D01*
X21590000Y64770000D02*
X21605000Y64755000D01*
X20320000Y64770000D02*
X22225000Y64770000D01*
X5080000Y63500000D02*
X3825000Y64755000D01*
X20650960Y64780000D02*
X21595000Y64780000D01*
X3825000Y64755000D02*
X2545000Y64755000D01*
X19050000Y63500000D02*
X20320000Y64770000D01*
%TO.N,/D2*%
X20320000Y66040000D02*
X19035000Y64755000D01*
X37465000Y64780000D02*
X34280000Y64780000D01*
X19035000Y64755000D02*
X17785000Y64755000D01*
X34280000Y64780000D02*
X33020000Y66040000D01*
X33020000Y66040000D02*
X20320000Y66040000D01*
%TO.N,/D5*%
X19050000Y60960000D02*
X20330000Y62240000D01*
X20330000Y62240000D02*
X21595000Y62240000D01*
X7594600Y19710400D02*
X7620000Y19685000D01*
X6096000Y60960000D02*
X4074980Y62215000D01*
X7620000Y22606000D02*
X7594600Y20929600D01*
X6096000Y60960000D02*
X19050000Y60960000D01*
X4074980Y62215000D02*
X2545000Y62215000D01*
X7594600Y20929600D02*
X7594600Y19710400D01*
X7594600Y19659600D02*
X7594600Y6019800D01*
%TO.N,/D1*%
X34280000Y62240000D02*
X33030000Y63490000D01*
X33030000Y63490000D02*
X20360000Y63490000D01*
X20360000Y63490000D02*
X19075000Y62205000D01*
X37465000Y62240000D02*
X34280000Y62240000D01*
X19075000Y62205000D02*
X17785000Y62205000D01*
%TO.N,/D6*%
X10160000Y5548000D02*
X10160000Y22606000D01*
X5080000Y58420000D02*
X3825000Y59675000D01*
X7112000Y58420000D02*
X19050000Y58420000D01*
X20320000Y59690000D02*
X22225000Y59690000D01*
X20650960Y59700000D02*
X21595000Y59700000D01*
X7112000Y58420000D02*
X5080000Y58420000D01*
X3825000Y59675000D02*
X2545000Y59675000D01*
X19050000Y58420000D02*
X20320000Y59690000D01*
%TO.N,/D0*%
X19025000Y59665000D02*
X17780000Y59665000D01*
X37465000Y59700000D02*
X34260000Y59700000D01*
X34260000Y59700000D02*
X33010000Y60950000D01*
X33010000Y60950000D02*
X20310000Y60950000D01*
X20310000Y60950000D02*
X19025000Y59665000D01*
%TO.N,/D7*%
X21560000Y57150000D02*
X21575000Y57135000D01*
X20320000Y57150000D02*
X21560000Y57150000D01*
X19050000Y55880000D02*
X20320000Y57150000D01*
X3825000Y57135000D02*
X5080000Y55880000D01*
X5080000Y55880000D02*
X19050000Y55880000D01*
X2545000Y57135000D02*
X3825000Y57135000D01*
X12700000Y7279000D02*
X12700000Y22606000D01*
%TO.N,/A0*%
X19075000Y57125000D02*
X17780000Y57125000D01*
X17785000Y57135000D02*
X19085000Y57135000D01*
X33030000Y58410000D02*
X20360000Y58410000D01*
X19075000Y57125000D02*
X20360000Y58410000D01*
X34280000Y57160000D02*
X37465000Y57160000D01*
X34280000Y57160000D02*
X33030000Y58410000D01*
%TO.N,/A15*%
X17780000Y29210000D02*
X15240000Y24765000D01*
X18415000Y69850000D02*
X15875000Y69850000D01*
X11430000Y74295000D02*
X15875000Y69850000D01*
X15240000Y24765000D02*
X15240000Y7279000D01*
X12700000Y79375000D02*
X11430000Y78105000D01*
X12700000Y79375000D02*
X20320000Y79375000D01*
X11430000Y78105000D02*
X11430000Y74295000D01*
X21590000Y80645000D02*
X20320000Y79375000D01*
X21590000Y81915000D02*
X21590000Y80645000D01*
%TO.N,/A1*%
X19065000Y54625000D02*
X20320000Y55880000D01*
X34280000Y54620000D02*
X37465000Y54620000D01*
X34280000Y54620000D02*
X33020000Y55880000D01*
X19065000Y54595000D02*
X19065000Y54625000D01*
X20320000Y55880000D02*
X33020000Y55880000D01*
X17780000Y54595000D02*
X19065000Y54595000D01*
%TO.N,/A10*%
X20320000Y52070000D02*
X21560000Y52070000D01*
X21560000Y52070000D02*
X21575000Y52055000D01*
X9144000Y50800000D02*
X5715000Y50800000D01*
X17780000Y5548000D02*
X17780000Y22606000D01*
X4460000Y52055000D02*
X2545000Y52055000D01*
X5715000Y50800000D02*
X4460000Y52055000D01*
X9144000Y50800000D02*
X19050000Y50800000D01*
X19050000Y50800000D02*
X20320000Y52070000D01*
%TO.N,/A2*%
X20320000Y53340000D02*
X22205000Y53340000D01*
X34280000Y52080000D02*
X33020000Y53340000D01*
X19035000Y52055000D02*
X20320000Y53340000D01*
X34280000Y52080000D02*
X37465000Y52080000D01*
X22205000Y53340000D02*
X22215000Y53330000D01*
X22215000Y53330000D02*
X33020000Y53340000D01*
X17785000Y52055000D02*
X19035000Y52055000D01*
%TO.N,/ROMOE*%
X19050000Y26670000D02*
X19050000Y20955000D01*
X20320000Y28575000D02*
X19050000Y26670000D01*
X13970000Y74295000D02*
X17145000Y71120000D01*
X17145000Y71120000D02*
X20320000Y71120000D01*
X20320000Y19685000D02*
X20320000Y7747000D01*
X19050000Y20955000D02*
X20320000Y19685000D01*
%TO.N,/A3*%
X17780000Y49505000D02*
X19075000Y49505000D01*
X19075000Y49555000D02*
X20320000Y50800000D01*
X37465000Y49540000D02*
X34280000Y49540000D01*
X20320000Y50800000D02*
X21575000Y50800000D01*
X21575000Y50800000D02*
X21585000Y50790000D01*
X21585000Y50790000D02*
X33030000Y50790000D01*
X34280000Y49540000D02*
X33030000Y50790000D01*
X19075000Y49505000D02*
X19075000Y49555000D01*
%TO.N,/A11*%
X22195000Y46990000D02*
X22210000Y46975000D01*
X4460000Y46975000D02*
X5715000Y45720000D01*
X20320000Y24130000D02*
X22860000Y20955000D01*
X19050000Y45720000D02*
X20320000Y46990000D01*
X22860000Y20955000D02*
X22860000Y6049000D01*
X2545000Y46975000D02*
X4460000Y46975000D01*
X5715000Y45720000D02*
X19050000Y45720000D01*
X20320000Y46990000D02*
X22195000Y46990000D01*
%TO.N,/A4*%
X20320000Y48260000D02*
X33020000Y48260000D01*
X19065000Y47005000D02*
X20320000Y48260000D01*
X34280000Y47000000D02*
X33020000Y48260000D01*
X17780000Y46975000D02*
X19065000Y46975000D01*
X37465000Y47000000D02*
X34280000Y47000000D01*
X19065000Y46975000D02*
X19065000Y47005000D01*
%TO.N,/A9*%
X20330000Y44460000D02*
X21595000Y44460000D01*
X19050000Y43180000D02*
X20330000Y44460000D01*
X27940000Y19050000D02*
X27940000Y6009000D01*
X5715000Y43180000D02*
X19050000Y43180000D01*
X2545000Y44435000D02*
X4460000Y44435000D01*
X22225000Y25146000D02*
X27940000Y19050000D01*
X4460000Y44435000D02*
X5715000Y43180000D01*
%TO.N,/A5*%
X34280000Y44460000D02*
X33020000Y45720000D01*
X19065000Y44435000D02*
X19065000Y44465000D01*
X17785000Y44435000D02*
X19065000Y44435000D01*
X20320000Y45720000D02*
X33020000Y45720000D01*
X37465000Y44460000D02*
X34280000Y44460000D01*
X19065000Y44465000D02*
X20320000Y45720000D01*
%TO.N,/A8*%
X20320000Y41910000D02*
X21560000Y41910000D01*
X30480000Y19685000D02*
X30480000Y5969000D01*
X4445000Y41910000D02*
X4430000Y41895000D01*
X4430000Y41895000D02*
X2545000Y41895000D01*
X12700000Y40640000D02*
X5715000Y40640000D01*
X12700000Y40640000D02*
X19050000Y40640000D01*
X21560000Y41910000D02*
X21575000Y41895000D01*
X24130000Y26162000D02*
X30480000Y19685000D01*
X19050000Y40640000D02*
X20320000Y41910000D01*
X5715000Y40640000D02*
X4445000Y41910000D01*
%TO.N,/A6*%
X33645000Y41920000D02*
X32385000Y43180000D01*
X19035000Y41895000D02*
X20320000Y43180000D01*
X20320000Y43180000D02*
X32385000Y43180000D01*
X17785000Y41895000D02*
X19035000Y41895000D01*
X37465000Y41920000D02*
X33645000Y41920000D01*
%TO.N,/A13*%
X2560000Y39370000D02*
X2545000Y39355000D01*
X33020000Y20320000D02*
X24765000Y28575000D01*
X4460000Y39355000D02*
X5715000Y38100000D01*
X20320000Y39370000D02*
X19050000Y38100000D01*
X33020000Y5969000D02*
X33020000Y20320000D01*
X22225000Y39370000D02*
X20320000Y39370000D01*
X2545000Y39355000D02*
X4460000Y39355000D01*
X5715000Y38100000D02*
X19050000Y38100000D01*
%TO.N,/A7*%
X19065000Y39385000D02*
X20320000Y40640000D01*
X33645000Y39380000D02*
X32385000Y40640000D01*
X20320000Y40640000D02*
X32385000Y40640000D01*
X17785000Y39355000D02*
X19065000Y39355000D01*
X19065000Y39355000D02*
X19065000Y39385000D01*
X37465000Y39380000D02*
X33645000Y39380000D01*
%TO.N,/A14*%
X38735000Y68580000D02*
X38735000Y14147800D01*
X36830000Y69215000D02*
X38100000Y69215000D01*
X35560000Y10972800D02*
X35560000Y7747000D01*
X24125000Y81900000D02*
X24145000Y81900000D01*
X38735000Y14147800D02*
X35560000Y10972800D01*
X38100000Y69215000D02*
X38735000Y68580000D01*
X24130000Y81915000D02*
X36830000Y69215000D01*
%TO.N,/A12*%
X20320000Y38100000D02*
X31750000Y38100000D01*
X19060000Y36840000D02*
X20320000Y38100000D01*
X31750000Y38100000D02*
X33020000Y36830000D01*
X17785000Y36840000D02*
X19060000Y36840000D01*
X19075000Y36805000D02*
X19075000Y36855000D01*
X17785000Y36805000D02*
X19075000Y36805000D01*
X33020000Y36830000D02*
X37465000Y36830000D01*
%TO.N,/U1_CE*%
X3825000Y54595000D02*
X2545000Y54595000D01*
X9652000Y53340000D02*
X5080000Y53340000D01*
X5080000Y53340000D02*
X3825000Y54595000D01*
%TO.N,/U2_CE*%
X20330000Y54620000D02*
X21595000Y54620000D01*
X23495000Y83820000D02*
X22860000Y83185000D01*
X22860000Y83185000D02*
X22860000Y78740000D01*
X12065000Y53340000D02*
X19050000Y53340000D01*
X22860000Y78740000D02*
X21590000Y77470000D01*
X21590000Y77470000D02*
X21590000Y74295000D01*
X26670000Y81915000D02*
X26670000Y83185000D01*
X26670000Y83185000D02*
X26035000Y83820000D01*
X26035000Y83820000D02*
X23495000Y83820000D01*
X19050000Y53340000D02*
X20330000Y54620000D01*
%TO.N,/U_ROMOE*%
X4460000Y49515000D02*
X5715000Y48260000D01*
X19050000Y48260000D02*
X20330000Y49540000D01*
X2545000Y49515000D02*
X4460000Y49515000D01*
X20330000Y49540000D02*
X21595000Y49540000D01*
X5715000Y48260000D02*
X19050000Y48260000D01*
%TD*%
D21*
X38100000Y10160000D03*
X15240000Y34275000D03*
X15240000Y68580000D03*
X25400000Y69596000D03*
X2540000Y26670000D03*
X5080000Y19050000D03*
X5080000Y63500000D03*
X5080000Y15240000D03*
X7620000Y22606000D03*
X6096000Y60960000D03*
X7112000Y58420000D03*
X10160000Y22606000D03*
X8128000Y55880000D03*
X12700000Y22606000D03*
X18415000Y69850000D03*
X17780000Y29210000D03*
X17780000Y22606000D03*
X9144000Y50800000D03*
X20320000Y28575000D03*
X20320000Y71120000D03*
X20320000Y24130000D03*
X10668000Y45720000D03*
X11684000Y43180000D03*
X22225000Y25146000D03*
X12700000Y40640000D03*
X24130000Y26162000D03*
X24765000Y28575000D03*
X13716000Y38100000D03*
X9652000Y53340000D03*
X12065000Y53340000D03*
X11176000Y48260000D03*
X37465000Y34290000D03*
X37465000Y36830000D03*
X37465000Y39370000D03*
X37465000Y41910000D03*
X37465000Y44450000D03*
X37465000Y46990000D03*
X37465000Y49530000D03*
X37465000Y52070000D03*
X37465000Y54610000D03*
X37465000Y57150000D03*
X37465000Y59690000D03*
X37465000Y62230000D03*
X37465000Y64770000D03*
X37465000Y67310000D03*
X22225000Y67310000D03*
X22225000Y64770000D03*
X22225000Y62230000D03*
X22225000Y59690000D03*
X22225000Y57150000D03*
X22225000Y54610000D03*
X22225000Y52070000D03*
X22225000Y49530000D03*
X22225000Y46990000D03*
X22225000Y44450000D03*
X22225000Y41910000D03*
X22225000Y39370000D03*
X22225000Y36830000D03*
X22225000Y34290000D03*
X17785000Y34300000D03*
X17785000Y36840000D03*
X17785000Y39380000D03*
X17785000Y41920000D03*
X17785000Y44460000D03*
X17785000Y47000000D03*
X17785000Y49540000D03*
X17785000Y52080000D03*
X17785000Y54620000D03*
X17785000Y57160000D03*
X17785000Y59700000D03*
X17785000Y62240000D03*
X17785000Y64780000D03*
X17785000Y67320000D03*
X2545000Y67320000D03*
X2545000Y64780000D03*
X2545000Y62240000D03*
X2545000Y59700000D03*
X2545000Y57160000D03*
X2545000Y54620000D03*
X2545000Y52080000D03*
X2545000Y49540000D03*
X2545000Y47000000D03*
X2545000Y44460000D03*
X2545000Y41920000D03*
X2545000Y39380000D03*
X2545000Y36840000D03*
X2545000Y34300000D03*
X2620000Y30480000D03*
X15120000Y30480000D03*
X35460000Y30480000D03*
X22960000Y30480000D03*
X11430000Y74295000D03*
X13970000Y74295000D03*
X16510000Y74295000D03*
X19050000Y74295000D03*
X21590000Y74295000D03*
X24130000Y74295000D03*
X26670000Y74295000D03*
X26670000Y81915000D03*
X24130000Y81915000D03*
X21590000Y81915000D03*
X19050000Y81915000D03*
X16510000Y81915000D03*
X13970000Y81915000D03*
X11430000Y81915000D03*
M02*
