%TF.GenerationSoftware,KiCad,Pcbnew,8.0.6+1*%
%TF.CreationDate,2024-12-12T19:08:46+01:00*%
%TF.ProjectId,full_rom,66756c6c-5f72-46f6-9d2e-6b696361645f,0*%
%TF.SameCoordinates,Original*%
%TF.FileFunction,Copper,L2,Bot*%
%TF.FilePolarity,Positive*%
%FSLAX46Y46*%
G04 Gerber Fmt 4.6, Leading zero omitted, Abs format (unit mm)*
G04 Created by KiCad (PCBNEW 8.0.6+1) date 2024-12-12 19:08:46*
%MOMM*%
%LPD*%
G01*
G04 APERTURE LIST*
G04 Aperture macros list*
%AMRoundRect*
0 Rectangle with rounded corners*
0 $1 Rounding radius*
0 $2 $3 $4 $5 $6 $7 $8 $9 X,Y pos of 4 corners*
0 Add a 4 corners polygon primitive as box body*
4,1,4,$2,$3,$4,$5,$6,$7,$8,$9,$2,$3,0*
0 Add four circle primitives for the rounded corners*
1,1,$1+$1,$2,$3*
1,1,$1+$1,$4,$5*
1,1,$1+$1,$6,$7*
1,1,$1+$1,$8,$9*
0 Add four rect primitives between the rounded corners*
20,1,$1+$1,$2,$3,$4,$5,0*
20,1,$1+$1,$4,$5,$6,$7,0*
20,1,$1+$1,$6,$7,$8,$9,0*
20,1,$1+$1,$8,$9,$2,$3,0*%
G04 Aperture macros list end*
%TA.AperFunction,EtchedComponent*%
%ADD10C,0.300000*%
%TD*%
%TA.AperFunction,ComponentPad*%
%ADD11R,1.600000X1.600000*%
%TD*%
%TA.AperFunction,ComponentPad*%
%ADD12O,1.600000X1.600000*%
%TD*%
%TA.AperFunction,ComponentPad*%
%ADD13C,1.600000*%
%TD*%
%TA.AperFunction,ConnectorPad*%
%ADD14RoundRect,0.762000X-0.000010X-1.738000X0.000010X-1.738000X0.000010X1.738000X-0.000010X1.738000X0*%
%TD*%
%TA.AperFunction,ConnectorPad*%
%ADD15RoundRect,0.228600X-0.533400X-2.271400X0.533400X-2.271400X0.533400X2.271400X-0.533400X2.271400X0*%
%TD*%
%TA.AperFunction,Conductor*%
%ADD16C,1.000000*%
%TD*%
%TA.AperFunction,Conductor*%
%ADD17C,0.500000*%
%TD*%
%TA.AperFunction,Conductor*%
%ADD18C,0.250000*%
%TD*%
%ADD19C,0.350000*%
G04 APERTURE END LIST*
D10*
%TO.C,J1*%
X63500000Y-144032600D02*
X63500000Y-143423000D01*
X66040000Y-144032600D02*
X66040000Y-143423000D01*
X68580000Y-144007200D02*
X68580000Y-143397600D01*
X71120000Y-144032600D02*
X71120000Y-143423000D01*
X73660000Y-144032600D02*
X73660000Y-143397600D01*
X76200000Y-144007200D02*
X76200000Y-143397600D01*
X78740000Y-144032600D02*
X78740000Y-143423000D01*
X81280000Y-144007200D02*
X81280000Y-143397600D01*
X83820000Y-143967200D02*
X83820000Y-143383000D01*
X88900000Y-144007200D02*
X88900000Y-143423000D01*
X91440000Y-144047200D02*
X91440000Y-143510000D01*
X93980000Y-144047200D02*
X93980000Y-143510000D01*
X96520000Y-144047200D02*
X96520000Y-143463000D01*
X99060000Y-144032600D02*
X99060000Y-143423000D01*
%TD*%
D11*
%TO.P,IC2,1,A15*%
%TO.N,/A15*%
X96520000Y-115570000D03*
D12*
%TO.P,IC2,2,A12*%
%TO.N,/A12*%
X93980000Y-115570000D03*
%TO.P,IC2,3,A7*%
%TO.N,/A7*%
X91440000Y-115570000D03*
%TO.P,IC2,4,A6*%
%TO.N,/A6*%
X88900000Y-115570000D03*
%TO.P,IC2,5,A5*%
%TO.N,/A5*%
X86360000Y-115570000D03*
%TO.P,IC2,6,A4*%
%TO.N,/A4*%
X83820000Y-115570000D03*
%TO.P,IC2,7,A3*%
%TO.N,/A3*%
X81280000Y-115570000D03*
%TO.P,IC2,8,A2*%
%TO.N,/A2*%
X78740000Y-115570000D03*
%TO.P,IC2,9,A1*%
%TO.N,/A1*%
X76200000Y-115570000D03*
%TO.P,IC2,10,A0*%
%TO.N,/A0*%
X73660000Y-115570000D03*
%TO.P,IC2,11,D0*%
%TO.N,/D0*%
X71120000Y-115570000D03*
%TO.P,IC2,12,D1*%
%TO.N,/D1*%
X68580000Y-115570000D03*
%TO.P,IC2,13,D2*%
%TO.N,/D2*%
X66040000Y-115570000D03*
%TO.P,IC2,14,GND*%
%TO.N,GND*%
X63500000Y-115570000D03*
%TO.P,IC2,15,D3*%
%TO.N,/D3*%
X63500000Y-130810000D03*
%TO.P,IC2,16,D4*%
%TO.N,/D4*%
X66040000Y-130810000D03*
%TO.P,IC2,17,D5*%
%TO.N,/D5*%
X68580000Y-130810000D03*
%TO.P,IC2,18,D6*%
%TO.N,/D6*%
X71120000Y-130810000D03*
%TO.P,IC2,19,D7*%
%TO.N,/D7*%
X73660000Y-130810000D03*
%TO.P,IC2,20,~{CE}*%
%TO.N,/U_ROMOE*%
X76200000Y-130810000D03*
%TO.P,IC2,21,A10*%
%TO.N,/A10*%
X78740000Y-130810000D03*
%TO.P,IC2,22,~{OE/Vpp}*%
%TO.N,/U_ROMOE*%
X81280000Y-130810000D03*
%TO.P,IC2,23,A11*%
%TO.N,/A11*%
X83820000Y-130810000D03*
%TO.P,IC2,24,A9*%
%TO.N,/A9*%
X86360000Y-130810000D03*
%TO.P,IC2,25,A8*%
%TO.N,/A8*%
X88900000Y-130810000D03*
%TO.P,IC2,26,A13*%
%TO.N,/A13*%
X91440000Y-130810000D03*
%TO.P,IC2,27,A14*%
%TO.N,/A14*%
X93980000Y-130810000D03*
%TO.P,IC2,28,VCC*%
%TO.N,VCC*%
X96520000Y-130810000D03*
%TD*%
D13*
%TO.P,C2,1*%
%TO.N,VCC*%
X92710000Y-110430000D03*
%TO.P,C2,2*%
%TO.N,GND*%
X92710000Y-105430000D03*
%TD*%
D14*
%TO.P,J1,2,N/C*%
%TO.N,unconnected-(J1-N{slash}C-Pad2)_1*%
X99060000Y-139232000D03*
D15*
%TO.N,unconnected-(J1-N{slash}C-Pad2)*%
X99060000Y-140970000D03*
D14*
%TO.P,J1,4,A12*%
%TO.N,/A12*%
X96520000Y-139232000D03*
D15*
X96520000Y-141010000D03*
D14*
%TO.P,J1,6,A7*%
%TO.N,/A7*%
X93980000Y-139232000D03*
D15*
X93980000Y-141010000D03*
D14*
%TO.P,J1,8,A6*%
%TO.N,/A6*%
X91440000Y-139232000D03*
D15*
X91440000Y-141010000D03*
D14*
%TO.P,J1,10,A5*%
%TO.N,/A5*%
X88900000Y-139192000D03*
D15*
X88900000Y-140970000D03*
D14*
%TO.P,J1,12,A4*%
%TO.N,/A4*%
X83820000Y-139192000D03*
D15*
X83820000Y-140930000D03*
D14*
%TO.P,J1,14,A3*%
%TO.N,/A3*%
X81280000Y-139232000D03*
D15*
X81280000Y-140970000D03*
D14*
%TO.P,J1,16,A2*%
%TO.N,/A2*%
X78740000Y-139232000D03*
D15*
X78740000Y-140970000D03*
D14*
%TO.P,J1,18,A1*%
%TO.N,/A1*%
X76200000Y-139232000D03*
D15*
X76200000Y-140959200D03*
D14*
%TO.P,J1,20,A0*%
%TO.N,/A0*%
X73660000Y-139232000D03*
D15*
X73660000Y-140959200D03*
D14*
%TO.P,J1,22,D0*%
%TO.N,/D0*%
X71120000Y-139232000D03*
D15*
X71120000Y-140959200D03*
%TO.P,J1,24,D1*%
%TO.N,/D1*%
X68554600Y-140959200D03*
D14*
X68580000Y-139192000D03*
%TO.P,J1,26,D2*%
%TO.N,/D2*%
X66040000Y-139232000D03*
D15*
X66040000Y-140970000D03*
D14*
%TO.P,J1,28,GND*%
%TO.N,GND*%
X63500000Y-139232000D03*
D15*
X63500000Y-140970000D03*
%TD*%
D13*
%TO.P,C1,1*%
%TO.N,VCC*%
X99060000Y-125690000D03*
%TO.P,C1,2*%
%TO.N,GND*%
X99060000Y-120690000D03*
%TD*%
D11*
%TO.P,IC3,1*%
%TO.N,unconnected-(IC3-Pad1)*%
X88900000Y-104160000D03*
D12*
%TO.P,IC3,2*%
%TO.N,unconnected-(IC3-Pad2)*%
X86360000Y-104160000D03*
%TO.P,IC3,3*%
%TO.N,unconnected-(IC3-Pad3)*%
X83820000Y-104160000D03*
%TO.P,IC3,4*%
%TO.N,unconnected-(IC3-Pad4)*%
X81280000Y-104160000D03*
%TO.P,IC3,5*%
%TO.N,unconnected-(IC3-Pad5)*%
X78740000Y-104160000D03*
%TO.P,IC3,6*%
%TO.N,unconnected-(IC3-Pad6)*%
X76200000Y-104160000D03*
%TO.P,IC3,7,GND*%
%TO.N,GND*%
X73660000Y-104160000D03*
%TO.P,IC3,8*%
%TO.N,unconnected-(IC3-Pad8)*%
X73660000Y-111780000D03*
%TO.P,IC3,9*%
%TO.N,unconnected-(IC3-Pad9)*%
X76200000Y-111780000D03*
%TO.P,IC3,10*%
%TO.N,unconnected-(IC3-Pad10)*%
X78740000Y-111780000D03*
%TO.P,IC3,11*%
%TO.N,/U_ROMOE*%
X81280000Y-111780000D03*
%TO.P,IC3,12*%
%TO.N,/ROMOE*%
X83820000Y-111780000D03*
%TO.P,IC3,13*%
X86360000Y-111780000D03*
%TO.P,IC3,14,VCC*%
%TO.N,VCC*%
X88900000Y-111780000D03*
%TD*%
D16*
%TO.N,GND*%
X63500000Y-139232000D02*
X63500000Y-133350000D01*
X73660000Y-106680000D02*
X88900000Y-106680000D01*
X97790000Y-113030000D02*
X99060000Y-114300000D01*
X88900000Y-106680000D02*
X91460000Y-106680000D01*
X92710000Y-113030000D02*
X90170000Y-110490000D01*
X66040000Y-113030000D02*
X63500000Y-115570000D01*
X97790000Y-113030000D02*
X92710000Y-113030000D01*
X71120000Y-106700000D02*
X71120000Y-109220000D01*
X71120000Y-109220000D02*
X71120000Y-111760000D01*
X73660000Y-104160000D02*
X71120000Y-106700000D01*
D17*
X64770000Y-129540000D02*
X64770000Y-132080000D01*
D16*
X63500000Y-115570000D02*
X63500000Y-128270000D01*
X63500000Y-128270000D02*
X64770000Y-129540000D01*
X99060000Y-120690000D02*
X99060000Y-114300000D01*
X63500000Y-133350000D02*
X64770000Y-132080000D01*
X90170000Y-107950000D02*
X88900000Y-106680000D01*
X92710000Y-105430000D02*
X91460000Y-106680000D01*
X71120000Y-111760000D02*
X69850000Y-113030000D01*
X90170000Y-110490000D02*
X90170000Y-107950000D01*
X69850000Y-113030000D02*
X66040000Y-113030000D01*
X73660000Y-106680000D02*
X71120000Y-109220000D01*
D18*
%TO.N,/D2*%
X66040000Y-139232000D02*
X66040000Y-133350000D01*
X66040000Y-120650000D02*
X67310000Y-121920000D01*
X66040000Y-115570000D02*
X66040000Y-120650000D01*
X66040000Y-133350000D02*
X67310000Y-132080000D01*
X67310000Y-132080000D02*
X67310000Y-121920000D01*
%TO.N,/D1*%
X69850000Y-132080000D02*
X69850000Y-121920000D01*
X68580000Y-115570000D02*
X68580000Y-120650000D01*
X68580000Y-133350000D02*
X69850000Y-132080000D01*
X68580000Y-120650000D02*
X69850000Y-121920000D01*
X68580000Y-139192000D02*
X68580000Y-133350000D01*
%TO.N,/D0*%
X71120000Y-115570000D02*
X71120000Y-120650000D01*
X71120000Y-139232000D02*
X71120000Y-133350000D01*
X71120000Y-120650000D02*
X72390000Y-121920000D01*
X72390000Y-132080000D02*
X72390000Y-121920000D01*
X71120000Y-133350000D02*
X72390000Y-132080000D01*
%TO.N,/A0*%
X74930000Y-132080000D02*
X74930000Y-121920000D01*
X73660000Y-133350000D02*
X74930000Y-132080000D01*
X73660000Y-120650000D02*
X73660000Y-115570000D01*
X73660000Y-139232000D02*
X73660000Y-133350000D01*
X74930000Y-121920000D02*
X73660000Y-120650000D01*
%TO.N,/A1*%
X76200000Y-118110000D02*
X77470000Y-119380000D01*
X77470000Y-132080000D02*
X77470000Y-119380000D01*
X76200000Y-139232000D02*
X76200000Y-133350000D01*
X76200000Y-115570000D02*
X76200000Y-118110000D01*
X76200000Y-133350000D02*
X77470000Y-132080000D01*
%TO.N,/A2*%
X80010000Y-132080000D02*
X80010000Y-119380000D01*
X78740000Y-139232000D02*
X78740000Y-133350000D01*
X78740000Y-115570000D02*
X78740000Y-118110000D01*
X78740000Y-118110000D02*
X80010000Y-119380000D01*
X78740000Y-133350000D02*
X80010000Y-132080000D01*
%TO.N,/A3*%
X82550000Y-132080000D02*
X82550000Y-119380000D01*
X81280000Y-139232000D02*
X81280000Y-133350000D01*
X81280000Y-118110000D02*
X82550000Y-119380000D01*
X81280000Y-133350000D02*
X82550000Y-132080000D01*
X81280000Y-115570000D02*
X81280000Y-118110000D01*
%TO.N,/A4*%
X83820000Y-115570000D02*
X83820000Y-118110000D01*
X83820000Y-118110000D02*
X85090000Y-119380000D01*
X85090000Y-132080000D02*
X85090000Y-119380000D01*
X83820000Y-139192000D02*
X83820000Y-133350000D01*
X83820000Y-133350000D02*
X85090000Y-132080000D01*
%TO.N,/A5*%
X88900000Y-133350000D02*
X87630000Y-132080000D01*
X87630000Y-132080000D02*
X87630000Y-119380000D01*
X88900000Y-139192000D02*
X88900000Y-133350000D01*
X86360000Y-118110000D02*
X87630000Y-119380000D01*
X86360000Y-115570000D02*
X86360000Y-118110000D01*
%TO.N,/A6*%
X88900000Y-115570000D02*
X88900000Y-118110000D01*
X90170000Y-132080000D02*
X90170000Y-119380000D01*
X88900000Y-118110000D02*
X90170000Y-119380000D01*
X91440000Y-133350000D02*
X90170000Y-132080000D01*
X91440000Y-139232000D02*
X91440000Y-133350000D01*
%TO.N,/A7*%
X93980000Y-133350000D02*
X92710000Y-132080000D01*
X91440000Y-118110000D02*
X92710000Y-119380000D01*
X93980000Y-139232000D02*
X93980000Y-133350000D01*
X91440000Y-115570000D02*
X91440000Y-118110000D01*
X92710000Y-132080000D02*
X92710000Y-119380000D01*
%TO.N,/A12*%
X96520000Y-133350000D02*
X95250000Y-132080000D01*
X93980000Y-118110000D02*
X95250000Y-119380000D01*
X96520000Y-139232000D02*
X96520000Y-133350000D01*
X95250000Y-132080000D02*
X95250000Y-119380000D01*
X93980000Y-115570000D02*
X93980000Y-118110000D01*
%TD*%
D19*
X96520000Y-115570000D03*
X93980000Y-115570000D03*
X91440000Y-115570000D03*
X88900000Y-115570000D03*
X86360000Y-115570000D03*
X83820000Y-115570000D03*
X81280000Y-115570000D03*
X78740000Y-115570000D03*
X76200000Y-115570000D03*
X73660000Y-115570000D03*
X71120000Y-115570000D03*
X68580000Y-115570000D03*
X66040000Y-115570000D03*
X63500000Y-115570000D03*
X63500000Y-130810000D03*
X66040000Y-130810000D03*
X68580000Y-130810000D03*
X71120000Y-130810000D03*
X73660000Y-130810000D03*
X76200000Y-130810000D03*
X78740000Y-130810000D03*
X81280000Y-130810000D03*
X83820000Y-130810000D03*
X86360000Y-130810000D03*
X88900000Y-130810000D03*
X91440000Y-130810000D03*
X93980000Y-130810000D03*
X96520000Y-130810000D03*
X92710000Y-110430000D03*
X92710000Y-105430000D03*
X99060000Y-125690000D03*
X99060000Y-120690000D03*
X88900000Y-104160000D03*
X86360000Y-104160000D03*
X83820000Y-104160000D03*
X81280000Y-104160000D03*
X78740000Y-104160000D03*
X76200000Y-104160000D03*
X73660000Y-104160000D03*
X73660000Y-111780000D03*
X76200000Y-111780000D03*
X78740000Y-111780000D03*
X81280000Y-111780000D03*
X83820000Y-111780000D03*
X86360000Y-111780000D03*
X88900000Y-111780000D03*
M02*
