%TF.GenerationSoftware,KiCad,Pcbnew,8.0.6+1*%
%TF.CreationDate,2024-12-12T19:08:46+01:00*%
%TF.ProjectId,full_rom,66756c6c-5f72-46f6-9d2e-6b696361645f,0*%
%TF.SameCoordinates,Original*%
%TF.FileFunction,Legend,Bot*%
%TF.FilePolarity,Positive*%
%FSLAX46Y46*%
G04 Gerber Fmt 4.6, Leading zero omitted, Abs format (unit mm)*
G04 Created by KiCad (PCBNEW 8.0.6+1) date 2024-12-12 19:08:46*
%MOMM*%
%LPD*%
G01*
G04 APERTURE LIST*
%ADD10C,0.100000*%
%ADD11C,0.300000*%
%ADD12C,0.350000*%
%ADD13C,0.350000*%
G04 APERTURE END LIST*
D10*
X77194611Y-121671713D02*
X76572320Y-121671713D01*
X76572320Y-121230490D01*
X77194611Y-121230490D01*
X77194611Y-121671713D01*
G36*
X77194611Y-121671713D02*
G01*
X76572320Y-121671713D01*
X76572320Y-121230490D01*
X77194611Y-121230490D01*
X77194611Y-121671713D01*
G37*
X92126262Y-124415030D02*
X91502936Y-124415030D01*
X91502936Y-121943411D01*
X92126262Y-121943411D01*
X92126262Y-124415030D01*
G36*
X92126262Y-124415030D02*
G01*
X91502936Y-124415030D01*
X91502936Y-121943411D01*
X92126262Y-121943411D01*
X92126262Y-124415030D01*
G37*
G36*
X67589400Y-124002800D02*
G01*
X69697600Y-124002800D01*
X69697600Y-124714000D01*
X67589400Y-124714000D01*
X67589400Y-124002800D01*
G37*
X82549824Y-124415030D02*
X81910004Y-124415030D01*
X81910004Y-121230459D01*
X82549824Y-121230459D01*
X82549824Y-124415030D01*
G36*
X82549824Y-124415030D02*
G01*
X81910004Y-124415030D01*
X81910004Y-121230459D01*
X82549824Y-121230459D01*
X82549824Y-124415030D01*
G37*
X91235613Y-124415030D02*
X90516911Y-124415030D01*
X90516911Y-122428000D01*
X87782333Y-122428000D01*
X87782333Y-124415030D01*
X87151276Y-124415030D01*
X87151276Y-121943411D01*
X91235613Y-121943411D01*
X91235613Y-124415030D01*
G36*
X91235613Y-124415030D02*
G01*
X90516911Y-124415030D01*
X90516911Y-122428000D01*
X87782333Y-122428000D01*
X87782333Y-124415030D01*
X87151276Y-124415030D01*
X87151276Y-121943411D01*
X91235613Y-121943411D01*
X91235613Y-124415030D01*
G37*
X92126262Y-121671713D02*
X91502936Y-121671713D01*
X91502936Y-121230490D01*
X92126262Y-121230490D01*
X92126262Y-121671713D01*
G36*
X92126262Y-121671713D02*
G01*
X91502936Y-121671713D01*
X91502936Y-121230490D01*
X92126262Y-121230490D01*
X92126262Y-121671713D01*
G37*
X86804898Y-124415030D02*
X82804019Y-124414999D01*
X82803999Y-123883383D01*
X86178398Y-123883383D01*
X86178398Y-122428000D01*
X82804000Y-122428000D01*
X82804000Y-121943411D01*
X86804898Y-121943411D01*
X86804898Y-124415030D01*
G36*
X86804898Y-124415030D02*
G01*
X82804019Y-124414999D01*
X82803999Y-123883383D01*
X86178398Y-123883383D01*
X86178398Y-122428000D01*
X82804000Y-122428000D01*
X82804000Y-121943411D01*
X86804898Y-121943411D01*
X86804898Y-124415030D01*
G37*
X96434066Y-123415854D02*
X95401457Y-123435354D01*
X93181371Y-123415854D01*
X93181371Y-123883383D01*
X96434066Y-123883383D01*
X96434066Y-124414999D01*
X92446660Y-124414999D01*
X92446660Y-122889944D01*
X95723980Y-122889944D01*
X95723980Y-122427969D01*
X92446660Y-122427969D01*
X92446660Y-121943381D01*
X96434066Y-121943381D01*
X96434066Y-123415854D01*
G36*
X96434066Y-123415854D02*
G01*
X95401457Y-123435354D01*
X93181371Y-123415854D01*
X93181371Y-123883383D01*
X96434066Y-123883383D01*
X96434066Y-124414999D01*
X92446660Y-124414999D01*
X92446660Y-122889944D01*
X95723980Y-122889944D01*
X95723980Y-122427969D01*
X92446660Y-122427969D01*
X92446660Y-121943381D01*
X96434066Y-121943381D01*
X96434066Y-123415854D01*
G37*
X81550652Y-122428000D02*
X78237607Y-122428000D01*
X78237607Y-122889975D01*
X81550652Y-122889975D01*
X81556052Y-123541250D01*
X81550652Y-124415030D01*
X78237607Y-124415030D01*
X77554482Y-124415030D01*
X77554482Y-123883383D01*
X78237607Y-123883383D01*
X80796891Y-123883383D01*
X80796891Y-123415884D01*
X78237607Y-123415884D01*
X78237607Y-123883383D01*
X77554482Y-123883383D01*
X77554482Y-121943411D01*
X81550652Y-121943411D01*
X81550652Y-122428000D01*
G36*
X81550652Y-122428000D02*
G01*
X78237607Y-122428000D01*
X78237607Y-122889975D01*
X81550652Y-122889975D01*
X81556052Y-123541250D01*
X81550652Y-124415030D01*
X78237607Y-124415030D01*
X77554482Y-124415030D01*
X77554482Y-123883383D01*
X78237607Y-123883383D01*
X80796891Y-123883383D01*
X80796891Y-123415884D01*
X78237607Y-123415884D01*
X78237607Y-123883383D01*
X77554482Y-123883383D01*
X77554482Y-121943411D01*
X81550652Y-121943411D01*
X81550652Y-122428000D01*
G37*
X77194611Y-124415030D02*
X76572320Y-124415030D01*
X76572320Y-121943411D01*
X77194611Y-121943411D01*
X77194611Y-124415030D01*
G36*
X77194611Y-124415030D02*
G01*
X76572320Y-124415030D01*
X76572320Y-121943411D01*
X77194611Y-121943411D01*
X77194611Y-124415030D01*
G37*
X76265553Y-124415030D02*
X75634497Y-124415030D01*
X75634497Y-122428000D01*
X72340750Y-122428000D01*
X72340750Y-121943411D01*
X76265555Y-121943411D01*
X76265553Y-124415030D01*
G36*
X76265553Y-124415030D02*
G01*
X75634497Y-124415030D01*
X75634497Y-122428000D01*
X72340750Y-122428000D01*
X72340750Y-121943411D01*
X76265555Y-121943411D01*
X76265553Y-124415030D01*
G37*
D11*
X92601426Y-119613757D02*
X92672855Y-119542328D01*
X92672855Y-119542328D02*
X92815712Y-119328042D01*
X92815712Y-119328042D02*
X92887141Y-119185185D01*
X92887141Y-119185185D02*
X92958569Y-118970900D01*
X92958569Y-118970900D02*
X93029998Y-118613757D01*
X93029998Y-118613757D02*
X93029998Y-118328042D01*
X93029998Y-118328042D02*
X92958569Y-117970900D01*
X92958569Y-117970900D02*
X92887141Y-117756614D01*
X92887141Y-117756614D02*
X92815712Y-117613757D01*
X92815712Y-117613757D02*
X92672855Y-117399471D01*
X92672855Y-117399471D02*
X92601426Y-117328042D01*
X91172855Y-118899471D02*
X91244283Y-118970900D01*
X91244283Y-118970900D02*
X91458569Y-119042328D01*
X91458569Y-119042328D02*
X91601426Y-119042328D01*
X91601426Y-119042328D02*
X91815712Y-118970900D01*
X91815712Y-118970900D02*
X91958569Y-118828042D01*
X91958569Y-118828042D02*
X92029998Y-118685185D01*
X92029998Y-118685185D02*
X92101426Y-118399471D01*
X92101426Y-118399471D02*
X92101426Y-118185185D01*
X92101426Y-118185185D02*
X92029998Y-117899471D01*
X92029998Y-117899471D02*
X91958569Y-117756614D01*
X91958569Y-117756614D02*
X91815712Y-117613757D01*
X91815712Y-117613757D02*
X91601426Y-117542328D01*
X91601426Y-117542328D02*
X91458569Y-117542328D01*
X91458569Y-117542328D02*
X91244283Y-117613757D01*
X91244283Y-117613757D02*
X91172855Y-117685185D01*
X90672855Y-119613757D02*
X90601426Y-119542328D01*
X90601426Y-119542328D02*
X90458569Y-119328042D01*
X90458569Y-119328042D02*
X90387141Y-119185185D01*
X90387141Y-119185185D02*
X90315712Y-118970900D01*
X90315712Y-118970900D02*
X90244283Y-118613757D01*
X90244283Y-118613757D02*
X90244283Y-118328042D01*
X90244283Y-118328042D02*
X90315712Y-117970900D01*
X90315712Y-117970900D02*
X90387141Y-117756614D01*
X90387141Y-117756614D02*
X90458569Y-117613757D01*
X90458569Y-117613757D02*
X90601426Y-117399471D01*
X90601426Y-117399471D02*
X90672855Y-117328042D01*
X88458569Y-117685185D02*
X88387141Y-117613757D01*
X88387141Y-117613757D02*
X88244284Y-117542328D01*
X88244284Y-117542328D02*
X87887141Y-117542328D01*
X87887141Y-117542328D02*
X87744284Y-117613757D01*
X87744284Y-117613757D02*
X87672855Y-117685185D01*
X87672855Y-117685185D02*
X87601426Y-117828042D01*
X87601426Y-117828042D02*
X87601426Y-117970900D01*
X87601426Y-117970900D02*
X87672855Y-118185185D01*
X87672855Y-118185185D02*
X88529998Y-119042328D01*
X88529998Y-119042328D02*
X87601426Y-119042328D01*
X86672855Y-117542328D02*
X86529998Y-117542328D01*
X86529998Y-117542328D02*
X86387141Y-117613757D01*
X86387141Y-117613757D02*
X86315713Y-117685185D01*
X86315713Y-117685185D02*
X86244284Y-117828042D01*
X86244284Y-117828042D02*
X86172855Y-118113757D01*
X86172855Y-118113757D02*
X86172855Y-118470900D01*
X86172855Y-118470900D02*
X86244284Y-118756614D01*
X86244284Y-118756614D02*
X86315713Y-118899471D01*
X86315713Y-118899471D02*
X86387141Y-118970900D01*
X86387141Y-118970900D02*
X86529998Y-119042328D01*
X86529998Y-119042328D02*
X86672855Y-119042328D01*
X86672855Y-119042328D02*
X86815713Y-118970900D01*
X86815713Y-118970900D02*
X86887141Y-118899471D01*
X86887141Y-118899471D02*
X86958570Y-118756614D01*
X86958570Y-118756614D02*
X87029998Y-118470900D01*
X87029998Y-118470900D02*
X87029998Y-118113757D01*
X87029998Y-118113757D02*
X86958570Y-117828042D01*
X86958570Y-117828042D02*
X86887141Y-117685185D01*
X86887141Y-117685185D02*
X86815713Y-117613757D01*
X86815713Y-117613757D02*
X86672855Y-117542328D01*
X85601427Y-117685185D02*
X85529999Y-117613757D01*
X85529999Y-117613757D02*
X85387142Y-117542328D01*
X85387142Y-117542328D02*
X85029999Y-117542328D01*
X85029999Y-117542328D02*
X84887142Y-117613757D01*
X84887142Y-117613757D02*
X84815713Y-117685185D01*
X84815713Y-117685185D02*
X84744284Y-117828042D01*
X84744284Y-117828042D02*
X84744284Y-117970900D01*
X84744284Y-117970900D02*
X84815713Y-118185185D01*
X84815713Y-118185185D02*
X85672856Y-119042328D01*
X85672856Y-119042328D02*
X84744284Y-119042328D01*
X83458571Y-118042328D02*
X83458571Y-119042328D01*
X83815713Y-117470900D02*
X84172856Y-118542328D01*
X84172856Y-118542328D02*
X83244285Y-118542328D01*
X81601428Y-118613757D02*
X80887143Y-118613757D01*
X81744285Y-119042328D02*
X81244285Y-117542328D01*
X81244285Y-117542328D02*
X80744285Y-119042328D01*
X80030000Y-119042328D02*
X80172857Y-118970900D01*
X80172857Y-118970900D02*
X80244286Y-118828042D01*
X80244286Y-118828042D02*
X80244286Y-117542328D01*
X79601429Y-118042328D02*
X79244286Y-119042328D01*
X79244286Y-119042328D02*
X78887143Y-118042328D01*
X77672858Y-119042328D02*
X77672858Y-118256614D01*
X77672858Y-118256614D02*
X77744286Y-118113757D01*
X77744286Y-118113757D02*
X77887143Y-118042328D01*
X77887143Y-118042328D02*
X78172858Y-118042328D01*
X78172858Y-118042328D02*
X78315715Y-118113757D01*
X77672858Y-118970900D02*
X77815715Y-119042328D01*
X77815715Y-119042328D02*
X78172858Y-119042328D01*
X78172858Y-119042328D02*
X78315715Y-118970900D01*
X78315715Y-118970900D02*
X78387143Y-118828042D01*
X78387143Y-118828042D02*
X78387143Y-118685185D01*
X78387143Y-118685185D02*
X78315715Y-118542328D01*
X78315715Y-118542328D02*
X78172858Y-118470900D01*
X78172858Y-118470900D02*
X77815715Y-118470900D01*
X77815715Y-118470900D02*
X77672858Y-118399471D01*
X76958572Y-119042328D02*
X76958572Y-118042328D01*
X76958572Y-118328042D02*
X76887143Y-118185185D01*
X76887143Y-118185185D02*
X76815715Y-118113757D01*
X76815715Y-118113757D02*
X76672857Y-118042328D01*
X76672857Y-118042328D02*
X76530000Y-118042328D01*
X75815715Y-119042328D02*
X75958572Y-118970900D01*
X75958572Y-118970900D02*
X76030001Y-118899471D01*
X76030001Y-118899471D02*
X76101429Y-118756614D01*
X76101429Y-118756614D02*
X76101429Y-118328042D01*
X76101429Y-118328042D02*
X76030001Y-118185185D01*
X76030001Y-118185185D02*
X75958572Y-118113757D01*
X75958572Y-118113757D02*
X75815715Y-118042328D01*
X75815715Y-118042328D02*
X75601429Y-118042328D01*
X75601429Y-118042328D02*
X75458572Y-118113757D01*
X75458572Y-118113757D02*
X75387144Y-118185185D01*
X75387144Y-118185185D02*
X75315715Y-118328042D01*
X75315715Y-118328042D02*
X75315715Y-118756614D01*
X75315715Y-118756614D02*
X75387144Y-118899471D01*
X75387144Y-118899471D02*
X75458572Y-118970900D01*
X75458572Y-118970900D02*
X75601429Y-119042328D01*
X75601429Y-119042328D02*
X75815715Y-119042328D01*
X73601429Y-118613757D02*
X72887144Y-118613757D01*
X73744286Y-119042328D02*
X73244286Y-117542328D01*
X73244286Y-117542328D02*
X72744286Y-119042328D01*
X72030001Y-119042328D02*
X72172858Y-118970900D01*
X72172858Y-118970900D02*
X72244287Y-118828042D01*
X72244287Y-118828042D02*
X72244287Y-117542328D01*
X70887144Y-118970900D02*
X71030001Y-119042328D01*
X71030001Y-119042328D02*
X71315716Y-119042328D01*
X71315716Y-119042328D02*
X71458573Y-118970900D01*
X71458573Y-118970900D02*
X71530001Y-118828042D01*
X71530001Y-118828042D02*
X71530001Y-118256614D01*
X71530001Y-118256614D02*
X71458573Y-118113757D01*
X71458573Y-118113757D02*
X71315716Y-118042328D01*
X71315716Y-118042328D02*
X71030001Y-118042328D01*
X71030001Y-118042328D02*
X70887144Y-118113757D01*
X70887144Y-118113757D02*
X70815716Y-118256614D01*
X70815716Y-118256614D02*
X70815716Y-118399471D01*
X70815716Y-118399471D02*
X71530001Y-118542328D01*
X69530002Y-119042328D02*
X69530002Y-118256614D01*
X69530002Y-118256614D02*
X69601430Y-118113757D01*
X69601430Y-118113757D02*
X69744287Y-118042328D01*
X69744287Y-118042328D02*
X70030002Y-118042328D01*
X70030002Y-118042328D02*
X70172859Y-118113757D01*
X69530002Y-118970900D02*
X69672859Y-119042328D01*
X69672859Y-119042328D02*
X70030002Y-119042328D01*
X70030002Y-119042328D02*
X70172859Y-118970900D01*
X70172859Y-118970900D02*
X70244287Y-118828042D01*
X70244287Y-118828042D02*
X70244287Y-118685185D01*
X70244287Y-118685185D02*
X70172859Y-118542328D01*
X70172859Y-118542328D02*
X70030002Y-118470900D01*
X70030002Y-118470900D02*
X69672859Y-118470900D01*
X69672859Y-118470900D02*
X69530002Y-118399471D01*
D12*
G36*
X69851690Y-121600446D02*
G01*
X70022702Y-121619920D01*
X70183524Y-121652378D01*
X70334157Y-121697818D01*
X70474601Y-121756242D01*
X70604855Y-121827649D01*
X70724919Y-121912038D01*
X70834794Y-122009411D01*
X70909695Y-122090182D01*
X71018159Y-122237565D01*
X71090196Y-122366960D01*
X71149134Y-122506568D01*
X71194976Y-122656388D01*
X71227720Y-122816420D01*
X71247366Y-122986665D01*
X71253915Y-123167122D01*
X71250617Y-123297182D01*
X71237222Y-123452028D01*
X71213523Y-123598287D01*
X71171483Y-123762464D01*
X71114605Y-123914276D01*
X71042889Y-124053724D01*
X70973566Y-124159898D01*
X70882066Y-124275028D01*
X70763857Y-124392416D01*
X70633305Y-124491572D01*
X70490411Y-124572496D01*
X70402484Y-124610792D01*
X70260289Y-124658663D01*
X70105729Y-124695045D01*
X69938804Y-124719937D01*
X69790255Y-124731905D01*
X69633119Y-124735894D01*
X69539235Y-124734226D01*
X69389258Y-124724033D01*
X69220006Y-124699570D01*
X69062449Y-124661763D01*
X68916588Y-124610612D01*
X68782421Y-124546117D01*
X68699222Y-124496132D01*
X68565801Y-124397306D01*
X68447876Y-124284035D01*
X68345450Y-124156319D01*
X68258520Y-124014157D01*
X68215930Y-123925840D01*
X68162693Y-123782288D01*
X68122233Y-123625444D01*
X68094549Y-123455308D01*
X68081240Y-123303374D01*
X68076804Y-123142210D01*
X68077081Y-123126822D01*
X69057194Y-123126822D01*
X69057816Y-123186729D01*
X69067132Y-123352228D01*
X69092131Y-123518353D01*
X69139335Y-123672661D01*
X69216197Y-123800933D01*
X69247031Y-123833931D01*
X69366558Y-123920485D01*
X69511844Y-123970974D01*
X69664626Y-123985580D01*
X69699339Y-123984842D01*
X69859166Y-123958996D01*
X69996094Y-123896227D01*
X70110125Y-123796536D01*
X70129912Y-123771924D01*
X70203154Y-123636871D01*
X70246557Y-123483444D01*
X70267779Y-123323425D01*
X70273524Y-123167122D01*
X70272880Y-123112525D01*
X70263220Y-122960722D01*
X70237299Y-122806343D01*
X70188355Y-122659877D01*
X70108660Y-122533312D01*
X70087637Y-122510420D01*
X69970071Y-122418113D01*
X69831754Y-122362729D01*
X69672686Y-122344268D01*
X69637613Y-122344995D01*
X69476155Y-122370440D01*
X69337881Y-122432236D01*
X69222791Y-122530381D01*
X69212603Y-122542232D01*
X69135465Y-122668598D01*
X69088891Y-122810701D01*
X69065119Y-122958033D01*
X69057194Y-123126822D01*
X68077081Y-123126822D01*
X68078427Y-123051975D01*
X68091410Y-122879097D01*
X68117376Y-122716340D01*
X68156325Y-122563703D01*
X68208257Y-122421187D01*
X68273172Y-122288793D01*
X68372573Y-122137531D01*
X68492261Y-122002084D01*
X68573087Y-121929147D01*
X68721422Y-121823527D01*
X68852351Y-121753380D01*
X68994180Y-121695987D01*
X69146908Y-121651347D01*
X69310535Y-121619462D01*
X69485062Y-121600331D01*
X69670488Y-121593954D01*
X69851690Y-121600446D01*
G37*
G36*
X66977899Y-121640849D02*
G01*
X65997508Y-121640849D01*
X65997508Y-123891791D01*
X64540844Y-123891791D01*
X64540844Y-124689000D01*
X66977899Y-124689000D01*
X66977899Y-121640849D01*
G37*
X95511638Y-126808619D02*
X96178305Y-126808619D01*
X96178305Y-127856238D02*
X96178305Y-125856238D01*
X96178305Y-125856238D02*
X95225924Y-125856238D01*
X94464019Y-125856238D02*
X94464019Y-127475285D01*
X94464019Y-127475285D02*
X94368781Y-127665761D01*
X94368781Y-127665761D02*
X94273543Y-127761000D01*
X94273543Y-127761000D02*
X94083067Y-127856238D01*
X94083067Y-127856238D02*
X93702114Y-127856238D01*
X93702114Y-127856238D02*
X93511638Y-127761000D01*
X93511638Y-127761000D02*
X93416400Y-127665761D01*
X93416400Y-127665761D02*
X93321162Y-127475285D01*
X93321162Y-127475285D02*
X93321162Y-125856238D01*
X91416400Y-127856238D02*
X92368781Y-127856238D01*
X92368781Y-127856238D02*
X92368781Y-125856238D01*
X89797352Y-127856238D02*
X90749733Y-127856238D01*
X90749733Y-127856238D02*
X90749733Y-125856238D01*
X86464018Y-127856238D02*
X87130685Y-126903857D01*
X87606875Y-127856238D02*
X87606875Y-125856238D01*
X87606875Y-125856238D02*
X86844970Y-125856238D01*
X86844970Y-125856238D02*
X86654494Y-125951476D01*
X86654494Y-125951476D02*
X86559256Y-126046714D01*
X86559256Y-126046714D02*
X86464018Y-126237190D01*
X86464018Y-126237190D02*
X86464018Y-126522904D01*
X86464018Y-126522904D02*
X86559256Y-126713380D01*
X86559256Y-126713380D02*
X86654494Y-126808619D01*
X86654494Y-126808619D02*
X86844970Y-126903857D01*
X86844970Y-126903857D02*
X87606875Y-126903857D01*
X85225923Y-125856238D02*
X84844970Y-125856238D01*
X84844970Y-125856238D02*
X84654494Y-125951476D01*
X84654494Y-125951476D02*
X84464018Y-126141952D01*
X84464018Y-126141952D02*
X84368780Y-126522904D01*
X84368780Y-126522904D02*
X84368780Y-127189571D01*
X84368780Y-127189571D02*
X84464018Y-127570523D01*
X84464018Y-127570523D02*
X84654494Y-127761000D01*
X84654494Y-127761000D02*
X84844970Y-127856238D01*
X84844970Y-127856238D02*
X85225923Y-127856238D01*
X85225923Y-127856238D02*
X85416399Y-127761000D01*
X85416399Y-127761000D02*
X85606875Y-127570523D01*
X85606875Y-127570523D02*
X85702113Y-127189571D01*
X85702113Y-127189571D02*
X85702113Y-126522904D01*
X85702113Y-126522904D02*
X85606875Y-126141952D01*
X85606875Y-126141952D02*
X85416399Y-125951476D01*
X85416399Y-125951476D02*
X85225923Y-125856238D01*
X83511637Y-127856238D02*
X83511637Y-125856238D01*
X83511637Y-125856238D02*
X82844970Y-127284809D01*
X82844970Y-127284809D02*
X82178304Y-125856238D01*
X82178304Y-125856238D02*
X82178304Y-127856238D01*
X78559256Y-127665761D02*
X78654494Y-127761000D01*
X78654494Y-127761000D02*
X78940208Y-127856238D01*
X78940208Y-127856238D02*
X79130684Y-127856238D01*
X79130684Y-127856238D02*
X79416399Y-127761000D01*
X79416399Y-127761000D02*
X79606875Y-127570523D01*
X79606875Y-127570523D02*
X79702113Y-127380047D01*
X79702113Y-127380047D02*
X79797351Y-126999095D01*
X79797351Y-126999095D02*
X79797351Y-126713380D01*
X79797351Y-126713380D02*
X79702113Y-126332428D01*
X79702113Y-126332428D02*
X79606875Y-126141952D01*
X79606875Y-126141952D02*
X79416399Y-125951476D01*
X79416399Y-125951476D02*
X79130684Y-125856238D01*
X79130684Y-125856238D02*
X78940208Y-125856238D01*
X78940208Y-125856238D02*
X78654494Y-125951476D01*
X78654494Y-125951476D02*
X78559256Y-126046714D01*
X77797351Y-127284809D02*
X76844970Y-127284809D01*
X77987827Y-127856238D02*
X77321161Y-125856238D01*
X77321161Y-125856238D02*
X76654494Y-127856238D01*
X74844970Y-127856238D02*
X75511637Y-126903857D01*
X75987827Y-127856238D02*
X75987827Y-125856238D01*
X75987827Y-125856238D02*
X75225922Y-125856238D01*
X75225922Y-125856238D02*
X75035446Y-125951476D01*
X75035446Y-125951476D02*
X74940208Y-126046714D01*
X74940208Y-126046714D02*
X74844970Y-126237190D01*
X74844970Y-126237190D02*
X74844970Y-126522904D01*
X74844970Y-126522904D02*
X74940208Y-126713380D01*
X74940208Y-126713380D02*
X75035446Y-126808619D01*
X75035446Y-126808619D02*
X75225922Y-126903857D01*
X75225922Y-126903857D02*
X75987827Y-126903857D01*
X74273541Y-125856238D02*
X73130684Y-125856238D01*
X73702113Y-127856238D02*
X73702113Y-125856238D01*
X71321160Y-127856238D02*
X71987827Y-126903857D01*
X72464017Y-127856238D02*
X72464017Y-125856238D01*
X72464017Y-125856238D02*
X71702112Y-125856238D01*
X71702112Y-125856238D02*
X71511636Y-125951476D01*
X71511636Y-125951476D02*
X71416398Y-126046714D01*
X71416398Y-126046714D02*
X71321160Y-126237190D01*
X71321160Y-126237190D02*
X71321160Y-126522904D01*
X71321160Y-126522904D02*
X71416398Y-126713380D01*
X71416398Y-126713380D02*
X71511636Y-126808619D01*
X71511636Y-126808619D02*
X71702112Y-126903857D01*
X71702112Y-126903857D02*
X72464017Y-126903857D01*
X70464017Y-127856238D02*
X70464017Y-125856238D01*
X69511636Y-127856238D02*
X69511636Y-125856238D01*
X69511636Y-125856238D02*
X69035446Y-125856238D01*
X69035446Y-125856238D02*
X68749731Y-125951476D01*
X68749731Y-125951476D02*
X68559255Y-126141952D01*
X68559255Y-126141952D02*
X68464017Y-126332428D01*
X68464017Y-126332428D02*
X68368779Y-126713380D01*
X68368779Y-126713380D02*
X68368779Y-126999095D01*
X68368779Y-126999095D02*
X68464017Y-127380047D01*
X68464017Y-127380047D02*
X68559255Y-127570523D01*
X68559255Y-127570523D02*
X68749731Y-127761000D01*
X68749731Y-127761000D02*
X69035446Y-127856238D01*
X69035446Y-127856238D02*
X69511636Y-127856238D01*
X66464017Y-125951476D02*
X66654493Y-125856238D01*
X66654493Y-125856238D02*
X66940207Y-125856238D01*
X66940207Y-125856238D02*
X67225922Y-125951476D01*
X67225922Y-125951476D02*
X67416398Y-126141952D01*
X67416398Y-126141952D02*
X67511636Y-126332428D01*
X67511636Y-126332428D02*
X67606874Y-126713380D01*
X67606874Y-126713380D02*
X67606874Y-126999095D01*
X67606874Y-126999095D02*
X67511636Y-127380047D01*
X67511636Y-127380047D02*
X67416398Y-127570523D01*
X67416398Y-127570523D02*
X67225922Y-127761000D01*
X67225922Y-127761000D02*
X66940207Y-127856238D01*
X66940207Y-127856238D02*
X66749731Y-127856238D01*
X66749731Y-127856238D02*
X66464017Y-127761000D01*
X66464017Y-127761000D02*
X66368779Y-127665761D01*
X66368779Y-127665761D02*
X66368779Y-126999095D01*
X66368779Y-126999095D02*
X66749731Y-126999095D01*
X65511636Y-126808619D02*
X64844969Y-126808619D01*
X64559255Y-127856238D02*
X65511636Y-127856238D01*
X65511636Y-127856238D02*
X65511636Y-125856238D01*
X65511636Y-125856238D02*
X64559255Y-125856238D01*
D13*
X96520000Y-115570000D03*
X93980000Y-115570000D03*
X91440000Y-115570000D03*
X88900000Y-115570000D03*
X86360000Y-115570000D03*
X83820000Y-115570000D03*
X81280000Y-115570000D03*
X78740000Y-115570000D03*
X76200000Y-115570000D03*
X73660000Y-115570000D03*
X71120000Y-115570000D03*
X68580000Y-115570000D03*
X66040000Y-115570000D03*
X63500000Y-115570000D03*
X63500000Y-130810000D03*
X66040000Y-130810000D03*
X68580000Y-130810000D03*
X71120000Y-130810000D03*
X73660000Y-130810000D03*
X76200000Y-130810000D03*
X78740000Y-130810000D03*
X81280000Y-130810000D03*
X83820000Y-130810000D03*
X86360000Y-130810000D03*
X88900000Y-130810000D03*
X91440000Y-130810000D03*
X93980000Y-130810000D03*
X96520000Y-130810000D03*
X92710000Y-110430000D03*
X92710000Y-105430000D03*
X99060000Y-125690000D03*
X99060000Y-120690000D03*
X88900000Y-104160000D03*
X86360000Y-104160000D03*
X83820000Y-104160000D03*
X81280000Y-104160000D03*
X78740000Y-104160000D03*
X76200000Y-104160000D03*
X73660000Y-104160000D03*
X73660000Y-111780000D03*
X76200000Y-111780000D03*
X78740000Y-111780000D03*
X81280000Y-111780000D03*
X83820000Y-111780000D03*
X86360000Y-111780000D03*
X88900000Y-111780000D03*
M02*
