%TF.GenerationSoftware,KiCad,Pcbnew,8.0.6+1*%
%TF.CreationDate,2024-12-12T19:08:46+01:00*%
%TF.ProjectId,full_rom,66756c6c-5f72-46f6-9d2e-6b696361645f,0*%
%TF.SameCoordinates,Original*%
%TF.FileFunction,Soldermask,Bot*%
%TF.FilePolarity,Negative*%
%FSLAX46Y46*%
G04 Gerber Fmt 4.6, Leading zero omitted, Abs format (unit mm)*
G04 Created by KiCad (PCBNEW 8.0.6+1) date 2024-12-12 19:08:46*
%MOMM*%
%LPD*%
G01*
G04 APERTURE LIST*
%ADD10C,0.150000*%
%ADD11R,1.600000X1.600000*%
%ADD12O,1.600000X1.600000*%
%ADD13C,1.600000*%
G04 APERTURE END LIST*
D10*
%TO.C,J1*%
X39878000Y468000D02*
X762000Y468000D01*
X762000Y8596000D01*
X39878000Y8596000D01*
X39878000Y468000D01*
G36*
X39878000Y468000D02*
G01*
X762000Y468000D01*
X762000Y8596000D01*
X39878000Y8596000D01*
X39878000Y468000D01*
G37*
%TD*%
D11*
%TO.C,IC2*%
X35560000Y29210000D03*
D12*
X33020000Y29210000D03*
X30480000Y29210000D03*
X27940000Y29210000D03*
X25400000Y29210000D03*
X22860000Y29210000D03*
X20320000Y29210000D03*
X17780000Y29210000D03*
X15240000Y29210000D03*
X12700000Y29210000D03*
X10160000Y29210000D03*
X7620000Y29210000D03*
X5080000Y29210000D03*
X2540000Y29210000D03*
X2540000Y13970000D03*
X5080000Y13970000D03*
X7620000Y13970000D03*
X10160000Y13970000D03*
X12700000Y13970000D03*
X15240000Y13970000D03*
X17780000Y13970000D03*
X20320000Y13970000D03*
X22860000Y13970000D03*
X25400000Y13970000D03*
X27940000Y13970000D03*
X30480000Y13970000D03*
X33020000Y13970000D03*
X35560000Y13970000D03*
%TD*%
D13*
%TO.C,C2*%
X31750000Y34350000D03*
X31750000Y39350000D03*
%TD*%
%TO.C,C1*%
X38100000Y19090000D03*
X38100000Y24090000D03*
%TD*%
D11*
%TO.C,IC3*%
X27940000Y40620000D03*
D12*
X25400000Y40620000D03*
X22860000Y40620000D03*
X20320000Y40620000D03*
X17780000Y40620000D03*
X15240000Y40620000D03*
X12700000Y40620000D03*
X12700000Y33000000D03*
X15240000Y33000000D03*
X17780000Y33000000D03*
X20320000Y33000000D03*
X22860000Y33000000D03*
X25400000Y33000000D03*
X27940000Y33000000D03*
%TD*%
M02*
