%TF.GenerationSoftware,KiCad,Pcbnew,8.0.6+1*%
%TF.CreationDate,2024-12-12T19:09:17+01:00*%
%TF.ProjectId,short,73686f72-742e-46b6-9963-61645f706362,0*%
%TF.SameCoordinates,Original*%
%TF.FileFunction,Legend,Bot*%
%TF.FilePolarity,Positive*%
%FSLAX46Y46*%
G04 Gerber Fmt 4.6, Leading zero omitted, Abs format (unit mm)*
G04 Created by KiCad (PCBNEW 8.0.6+1) date 2024-12-12 19:09:17*
%MOMM*%
%LPD*%
G01*
G04 APERTURE LIST*
%ADD10C,0.100000*%
%ADD11C,0.300000*%
%ADD12C,0.350000*%
%ADD13C,0.350000*%
G04 APERTURE END LIST*
D10*
X77194611Y-121671713D02*
X76572320Y-121671713D01*
X76572320Y-121230490D01*
X77194611Y-121230490D01*
X77194611Y-121671713D01*
G36*
X77194611Y-121671713D02*
G01*
X76572320Y-121671713D01*
X76572320Y-121230490D01*
X77194611Y-121230490D01*
X77194611Y-121671713D01*
G37*
X92126262Y-124415030D02*
X91502936Y-124415030D01*
X91502936Y-121943411D01*
X92126262Y-121943411D01*
X92126262Y-124415030D01*
G36*
X92126262Y-124415030D02*
G01*
X91502936Y-124415030D01*
X91502936Y-121943411D01*
X92126262Y-121943411D01*
X92126262Y-124415030D01*
G37*
G36*
X67589400Y-124002800D02*
G01*
X69697600Y-124002800D01*
X69697600Y-124714000D01*
X67589400Y-124714000D01*
X67589400Y-124002800D01*
G37*
X82549824Y-124415030D02*
X81910004Y-124415030D01*
X81910004Y-121230459D01*
X82549824Y-121230459D01*
X82549824Y-124415030D01*
G36*
X82549824Y-124415030D02*
G01*
X81910004Y-124415030D01*
X81910004Y-121230459D01*
X82549824Y-121230459D01*
X82549824Y-124415030D01*
G37*
X91235613Y-124415030D02*
X90516911Y-124415030D01*
X90516911Y-122428000D01*
X87782333Y-122428000D01*
X87782333Y-124415030D01*
X87151276Y-124415030D01*
X87151276Y-121943411D01*
X91235613Y-121943411D01*
X91235613Y-124415030D01*
G36*
X91235613Y-124415030D02*
G01*
X90516911Y-124415030D01*
X90516911Y-122428000D01*
X87782333Y-122428000D01*
X87782333Y-124415030D01*
X87151276Y-124415030D01*
X87151276Y-121943411D01*
X91235613Y-121943411D01*
X91235613Y-124415030D01*
G37*
X92126262Y-121671713D02*
X91502936Y-121671713D01*
X91502936Y-121230490D01*
X92126262Y-121230490D01*
X92126262Y-121671713D01*
G36*
X92126262Y-121671713D02*
G01*
X91502936Y-121671713D01*
X91502936Y-121230490D01*
X92126262Y-121230490D01*
X92126262Y-121671713D01*
G37*
X86804898Y-124415030D02*
X82804019Y-124414999D01*
X82803999Y-123883383D01*
X86178398Y-123883383D01*
X86178398Y-122428000D01*
X82804000Y-122428000D01*
X82804000Y-121943411D01*
X86804898Y-121943411D01*
X86804898Y-124415030D01*
G36*
X86804898Y-124415030D02*
G01*
X82804019Y-124414999D01*
X82803999Y-123883383D01*
X86178398Y-123883383D01*
X86178398Y-122428000D01*
X82804000Y-122428000D01*
X82804000Y-121943411D01*
X86804898Y-121943411D01*
X86804898Y-124415030D01*
G37*
X96434066Y-123415854D02*
X95401457Y-123435354D01*
X93181371Y-123415854D01*
X93181371Y-123883383D01*
X96434066Y-123883383D01*
X96434066Y-124414999D01*
X92446660Y-124414999D01*
X92446660Y-122889944D01*
X95723980Y-122889944D01*
X95723980Y-122427969D01*
X92446660Y-122427969D01*
X92446660Y-121943381D01*
X96434066Y-121943381D01*
X96434066Y-123415854D01*
G36*
X96434066Y-123415854D02*
G01*
X95401457Y-123435354D01*
X93181371Y-123415854D01*
X93181371Y-123883383D01*
X96434066Y-123883383D01*
X96434066Y-124414999D01*
X92446660Y-124414999D01*
X92446660Y-122889944D01*
X95723980Y-122889944D01*
X95723980Y-122427969D01*
X92446660Y-122427969D01*
X92446660Y-121943381D01*
X96434066Y-121943381D01*
X96434066Y-123415854D01*
G37*
X81550652Y-122428000D02*
X78237607Y-122428000D01*
X78237607Y-122889975D01*
X81550652Y-122889975D01*
X81556052Y-123541250D01*
X81550652Y-124415030D01*
X78237607Y-124415030D01*
X77554482Y-124415030D01*
X77554482Y-123883383D01*
X78237607Y-123883383D01*
X80796891Y-123883383D01*
X80796891Y-123415884D01*
X78237607Y-123415884D01*
X78237607Y-123883383D01*
X77554482Y-123883383D01*
X77554482Y-121943411D01*
X81550652Y-121943411D01*
X81550652Y-122428000D01*
G36*
X81550652Y-122428000D02*
G01*
X78237607Y-122428000D01*
X78237607Y-122889975D01*
X81550652Y-122889975D01*
X81556052Y-123541250D01*
X81550652Y-124415030D01*
X78237607Y-124415030D01*
X77554482Y-124415030D01*
X77554482Y-123883383D01*
X78237607Y-123883383D01*
X80796891Y-123883383D01*
X80796891Y-123415884D01*
X78237607Y-123415884D01*
X78237607Y-123883383D01*
X77554482Y-123883383D01*
X77554482Y-121943411D01*
X81550652Y-121943411D01*
X81550652Y-122428000D01*
G37*
X77194611Y-124415030D02*
X76572320Y-124415030D01*
X76572320Y-121943411D01*
X77194611Y-121943411D01*
X77194611Y-124415030D01*
G36*
X77194611Y-124415030D02*
G01*
X76572320Y-124415030D01*
X76572320Y-121943411D01*
X77194611Y-121943411D01*
X77194611Y-124415030D01*
G37*
X76265553Y-124415030D02*
X75634497Y-124415030D01*
X75634497Y-122428000D01*
X72340750Y-122428000D01*
X72340750Y-121943411D01*
X76265555Y-121943411D01*
X76265553Y-124415030D01*
G36*
X76265553Y-124415030D02*
G01*
X75634497Y-124415030D01*
X75634497Y-122428000D01*
X72340750Y-122428000D01*
X72340750Y-121943411D01*
X76265555Y-121943411D01*
X76265553Y-124415030D01*
G37*
D11*
X92601426Y-119613757D02*
X92672855Y-119542328D01*
X92672855Y-119542328D02*
X92815712Y-119328042D01*
X92815712Y-119328042D02*
X92887141Y-119185185D01*
X92887141Y-119185185D02*
X92958569Y-118970900D01*
X92958569Y-118970900D02*
X93029998Y-118613757D01*
X93029998Y-118613757D02*
X93029998Y-118328042D01*
X93029998Y-118328042D02*
X92958569Y-117970900D01*
X92958569Y-117970900D02*
X92887141Y-117756614D01*
X92887141Y-117756614D02*
X92815712Y-117613757D01*
X92815712Y-117613757D02*
X92672855Y-117399471D01*
X92672855Y-117399471D02*
X92601426Y-117328042D01*
X91172855Y-118899471D02*
X91244283Y-118970900D01*
X91244283Y-118970900D02*
X91458569Y-119042328D01*
X91458569Y-119042328D02*
X91601426Y-119042328D01*
X91601426Y-119042328D02*
X91815712Y-118970900D01*
X91815712Y-118970900D02*
X91958569Y-118828042D01*
X91958569Y-118828042D02*
X92029998Y-118685185D01*
X92029998Y-118685185D02*
X92101426Y-118399471D01*
X92101426Y-118399471D02*
X92101426Y-118185185D01*
X92101426Y-118185185D02*
X92029998Y-117899471D01*
X92029998Y-117899471D02*
X91958569Y-117756614D01*
X91958569Y-117756614D02*
X91815712Y-117613757D01*
X91815712Y-117613757D02*
X91601426Y-117542328D01*
X91601426Y-117542328D02*
X91458569Y-117542328D01*
X91458569Y-117542328D02*
X91244283Y-117613757D01*
X91244283Y-117613757D02*
X91172855Y-117685185D01*
X90672855Y-119613757D02*
X90601426Y-119542328D01*
X90601426Y-119542328D02*
X90458569Y-119328042D01*
X90458569Y-119328042D02*
X90387141Y-119185185D01*
X90387141Y-119185185D02*
X90315712Y-118970900D01*
X90315712Y-118970900D02*
X90244283Y-118613757D01*
X90244283Y-118613757D02*
X90244283Y-118328042D01*
X90244283Y-118328042D02*
X90315712Y-117970900D01*
X90315712Y-117970900D02*
X90387141Y-117756614D01*
X90387141Y-117756614D02*
X90458569Y-117613757D01*
X90458569Y-117613757D02*
X90601426Y-117399471D01*
X90601426Y-117399471D02*
X90672855Y-117328042D01*
X88458569Y-117685185D02*
X88387141Y-117613757D01*
X88387141Y-117613757D02*
X88244284Y-117542328D01*
X88244284Y-117542328D02*
X87887141Y-117542328D01*
X87887141Y-117542328D02*
X87744284Y-117613757D01*
X87744284Y-117613757D02*
X87672855Y-117685185D01*
X87672855Y-117685185D02*
X87601426Y-117828042D01*
X87601426Y-117828042D02*
X87601426Y-117970900D01*
X87601426Y-117970900D02*
X87672855Y-118185185D01*
X87672855Y-118185185D02*
X88529998Y-119042328D01*
X88529998Y-119042328D02*
X87601426Y-119042328D01*
X86672855Y-117542328D02*
X86529998Y-117542328D01*
X86529998Y-117542328D02*
X86387141Y-117613757D01*
X86387141Y-117613757D02*
X86315713Y-117685185D01*
X86315713Y-117685185D02*
X86244284Y-117828042D01*
X86244284Y-117828042D02*
X86172855Y-118113757D01*
X86172855Y-118113757D02*
X86172855Y-118470900D01*
X86172855Y-118470900D02*
X86244284Y-118756614D01*
X86244284Y-118756614D02*
X86315713Y-118899471D01*
X86315713Y-118899471D02*
X86387141Y-118970900D01*
X86387141Y-118970900D02*
X86529998Y-119042328D01*
X86529998Y-119042328D02*
X86672855Y-119042328D01*
X86672855Y-119042328D02*
X86815713Y-118970900D01*
X86815713Y-118970900D02*
X86887141Y-118899471D01*
X86887141Y-118899471D02*
X86958570Y-118756614D01*
X86958570Y-118756614D02*
X87029998Y-118470900D01*
X87029998Y-118470900D02*
X87029998Y-118113757D01*
X87029998Y-118113757D02*
X86958570Y-117828042D01*
X86958570Y-117828042D02*
X86887141Y-117685185D01*
X86887141Y-117685185D02*
X86815713Y-117613757D01*
X86815713Y-117613757D02*
X86672855Y-117542328D01*
X85601427Y-117685185D02*
X85529999Y-117613757D01*
X85529999Y-117613757D02*
X85387142Y-117542328D01*
X85387142Y-117542328D02*
X85029999Y-117542328D01*
X85029999Y-117542328D02*
X84887142Y-117613757D01*
X84887142Y-117613757D02*
X84815713Y-117685185D01*
X84815713Y-117685185D02*
X84744284Y-117828042D01*
X84744284Y-117828042D02*
X84744284Y-117970900D01*
X84744284Y-117970900D02*
X84815713Y-118185185D01*
X84815713Y-118185185D02*
X85672856Y-119042328D01*
X85672856Y-119042328D02*
X84744284Y-119042328D01*
X83458571Y-118042328D02*
X83458571Y-119042328D01*
X83815713Y-117470900D02*
X84172856Y-118542328D01*
X84172856Y-118542328D02*
X83244285Y-118542328D01*
X81601428Y-118613757D02*
X80887143Y-118613757D01*
X81744285Y-119042328D02*
X81244285Y-117542328D01*
X81244285Y-117542328D02*
X80744285Y-119042328D01*
X80030000Y-119042328D02*
X80172857Y-118970900D01*
X80172857Y-118970900D02*
X80244286Y-118828042D01*
X80244286Y-118828042D02*
X80244286Y-117542328D01*
X79601429Y-118042328D02*
X79244286Y-119042328D01*
X79244286Y-119042328D02*
X78887143Y-118042328D01*
X77672858Y-119042328D02*
X77672858Y-118256614D01*
X77672858Y-118256614D02*
X77744286Y-118113757D01*
X77744286Y-118113757D02*
X77887143Y-118042328D01*
X77887143Y-118042328D02*
X78172858Y-118042328D01*
X78172858Y-118042328D02*
X78315715Y-118113757D01*
X77672858Y-118970900D02*
X77815715Y-119042328D01*
X77815715Y-119042328D02*
X78172858Y-119042328D01*
X78172858Y-119042328D02*
X78315715Y-118970900D01*
X78315715Y-118970900D02*
X78387143Y-118828042D01*
X78387143Y-118828042D02*
X78387143Y-118685185D01*
X78387143Y-118685185D02*
X78315715Y-118542328D01*
X78315715Y-118542328D02*
X78172858Y-118470900D01*
X78172858Y-118470900D02*
X77815715Y-118470900D01*
X77815715Y-118470900D02*
X77672858Y-118399471D01*
X76958572Y-119042328D02*
X76958572Y-118042328D01*
X76958572Y-118328042D02*
X76887143Y-118185185D01*
X76887143Y-118185185D02*
X76815715Y-118113757D01*
X76815715Y-118113757D02*
X76672857Y-118042328D01*
X76672857Y-118042328D02*
X76530000Y-118042328D01*
X75815715Y-119042328D02*
X75958572Y-118970900D01*
X75958572Y-118970900D02*
X76030001Y-118899471D01*
X76030001Y-118899471D02*
X76101429Y-118756614D01*
X76101429Y-118756614D02*
X76101429Y-118328042D01*
X76101429Y-118328042D02*
X76030001Y-118185185D01*
X76030001Y-118185185D02*
X75958572Y-118113757D01*
X75958572Y-118113757D02*
X75815715Y-118042328D01*
X75815715Y-118042328D02*
X75601429Y-118042328D01*
X75601429Y-118042328D02*
X75458572Y-118113757D01*
X75458572Y-118113757D02*
X75387144Y-118185185D01*
X75387144Y-118185185D02*
X75315715Y-118328042D01*
X75315715Y-118328042D02*
X75315715Y-118756614D01*
X75315715Y-118756614D02*
X75387144Y-118899471D01*
X75387144Y-118899471D02*
X75458572Y-118970900D01*
X75458572Y-118970900D02*
X75601429Y-119042328D01*
X75601429Y-119042328D02*
X75815715Y-119042328D01*
X73601429Y-118613757D02*
X72887144Y-118613757D01*
X73744286Y-119042328D02*
X73244286Y-117542328D01*
X73244286Y-117542328D02*
X72744286Y-119042328D01*
X72030001Y-119042328D02*
X72172858Y-118970900D01*
X72172858Y-118970900D02*
X72244287Y-118828042D01*
X72244287Y-118828042D02*
X72244287Y-117542328D01*
X70887144Y-118970900D02*
X71030001Y-119042328D01*
X71030001Y-119042328D02*
X71315716Y-119042328D01*
X71315716Y-119042328D02*
X71458573Y-118970900D01*
X71458573Y-118970900D02*
X71530001Y-118828042D01*
X71530001Y-118828042D02*
X71530001Y-118256614D01*
X71530001Y-118256614D02*
X71458573Y-118113757D01*
X71458573Y-118113757D02*
X71315716Y-118042328D01*
X71315716Y-118042328D02*
X71030001Y-118042328D01*
X71030001Y-118042328D02*
X70887144Y-118113757D01*
X70887144Y-118113757D02*
X70815716Y-118256614D01*
X70815716Y-118256614D02*
X70815716Y-118399471D01*
X70815716Y-118399471D02*
X71530001Y-118542328D01*
X69530002Y-119042328D02*
X69530002Y-118256614D01*
X69530002Y-118256614D02*
X69601430Y-118113757D01*
X69601430Y-118113757D02*
X69744287Y-118042328D01*
X69744287Y-118042328D02*
X70030002Y-118042328D01*
X70030002Y-118042328D02*
X70172859Y-118113757D01*
X69530002Y-118970900D02*
X69672859Y-119042328D01*
X69672859Y-119042328D02*
X70030002Y-119042328D01*
X70030002Y-119042328D02*
X70172859Y-118970900D01*
X70172859Y-118970900D02*
X70244287Y-118828042D01*
X70244287Y-118828042D02*
X70244287Y-118685185D01*
X70244287Y-118685185D02*
X70172859Y-118542328D01*
X70172859Y-118542328D02*
X70030002Y-118470900D01*
X70030002Y-118470900D02*
X69672859Y-118470900D01*
X69672859Y-118470900D02*
X69530002Y-118399471D01*
D12*
G36*
X69851690Y-121600446D02*
G01*
X70022702Y-121619920D01*
X70183524Y-121652378D01*
X70334157Y-121697818D01*
X70474601Y-121756242D01*
X70604855Y-121827649D01*
X70724919Y-121912038D01*
X70834794Y-122009411D01*
X70909695Y-122090182D01*
X71018159Y-122237565D01*
X71090196Y-122366960D01*
X71149134Y-122506568D01*
X71194976Y-122656388D01*
X71227720Y-122816420D01*
X71247366Y-122986665D01*
X71253915Y-123167122D01*
X71250617Y-123297182D01*
X71237222Y-123452028D01*
X71213523Y-123598287D01*
X71171483Y-123762464D01*
X71114605Y-123914276D01*
X71042889Y-124053724D01*
X70973566Y-124159898D01*
X70882066Y-124275028D01*
X70763857Y-124392416D01*
X70633305Y-124491572D01*
X70490411Y-124572496D01*
X70402484Y-124610792D01*
X70260289Y-124658663D01*
X70105729Y-124695045D01*
X69938804Y-124719937D01*
X69790255Y-124731905D01*
X69633119Y-124735894D01*
X69539235Y-124734226D01*
X69389258Y-124724033D01*
X69220006Y-124699570D01*
X69062449Y-124661763D01*
X68916588Y-124610612D01*
X68782421Y-124546117D01*
X68699222Y-124496132D01*
X68565801Y-124397306D01*
X68447876Y-124284035D01*
X68345450Y-124156319D01*
X68258520Y-124014157D01*
X68215930Y-123925840D01*
X68162693Y-123782288D01*
X68122233Y-123625444D01*
X68094549Y-123455308D01*
X68081240Y-123303374D01*
X68076804Y-123142210D01*
X68077081Y-123126822D01*
X69057194Y-123126822D01*
X69057816Y-123186729D01*
X69067132Y-123352228D01*
X69092131Y-123518353D01*
X69139335Y-123672661D01*
X69216197Y-123800933D01*
X69247031Y-123833931D01*
X69366558Y-123920485D01*
X69511844Y-123970974D01*
X69664626Y-123985580D01*
X69699339Y-123984842D01*
X69859166Y-123958996D01*
X69996094Y-123896227D01*
X70110125Y-123796536D01*
X70129912Y-123771924D01*
X70203154Y-123636871D01*
X70246557Y-123483444D01*
X70267779Y-123323425D01*
X70273524Y-123167122D01*
X70272880Y-123112525D01*
X70263220Y-122960722D01*
X70237299Y-122806343D01*
X70188355Y-122659877D01*
X70108660Y-122533312D01*
X70087637Y-122510420D01*
X69970071Y-122418113D01*
X69831754Y-122362729D01*
X69672686Y-122344268D01*
X69637613Y-122344995D01*
X69476155Y-122370440D01*
X69337881Y-122432236D01*
X69222791Y-122530381D01*
X69212603Y-122542232D01*
X69135465Y-122668598D01*
X69088891Y-122810701D01*
X69065119Y-122958033D01*
X69057194Y-123126822D01*
X68077081Y-123126822D01*
X68078427Y-123051975D01*
X68091410Y-122879097D01*
X68117376Y-122716340D01*
X68156325Y-122563703D01*
X68208257Y-122421187D01*
X68273172Y-122288793D01*
X68372573Y-122137531D01*
X68492261Y-122002084D01*
X68573087Y-121929147D01*
X68721422Y-121823527D01*
X68852351Y-121753380D01*
X68994180Y-121695987D01*
X69146908Y-121651347D01*
X69310535Y-121619462D01*
X69485062Y-121600331D01*
X69670488Y-121593954D01*
X69851690Y-121600446D01*
G37*
G36*
X66977899Y-121640849D02*
G01*
X65997508Y-121640849D01*
X65997508Y-123891791D01*
X64540844Y-123891791D01*
X64540844Y-124689000D01*
X66977899Y-124689000D01*
X66977899Y-121640849D01*
G37*
X94660952Y-126859419D02*
X93994285Y-126859419D01*
X93708571Y-127907038D02*
X94660952Y-127907038D01*
X94660952Y-127907038D02*
X94660952Y-125907038D01*
X94660952Y-125907038D02*
X93708571Y-125907038D01*
X92851428Y-127907038D02*
X92851428Y-125907038D01*
X92851428Y-125907038D02*
X92089523Y-125907038D01*
X92089523Y-125907038D02*
X91899047Y-126002276D01*
X91899047Y-126002276D02*
X91803809Y-126097514D01*
X91803809Y-126097514D02*
X91708571Y-126287990D01*
X91708571Y-126287990D02*
X91708571Y-126573704D01*
X91708571Y-126573704D02*
X91803809Y-126764180D01*
X91803809Y-126764180D02*
X91899047Y-126859419D01*
X91899047Y-126859419D02*
X92089523Y-126954657D01*
X92089523Y-126954657D02*
X92851428Y-126954657D01*
X89708571Y-127907038D02*
X90375238Y-126954657D01*
X90851428Y-127907038D02*
X90851428Y-125907038D01*
X90851428Y-125907038D02*
X90089523Y-125907038D01*
X90089523Y-125907038D02*
X89899047Y-126002276D01*
X89899047Y-126002276D02*
X89803809Y-126097514D01*
X89803809Y-126097514D02*
X89708571Y-126287990D01*
X89708571Y-126287990D02*
X89708571Y-126573704D01*
X89708571Y-126573704D02*
X89803809Y-126764180D01*
X89803809Y-126764180D02*
X89899047Y-126859419D01*
X89899047Y-126859419D02*
X90089523Y-126954657D01*
X90089523Y-126954657D02*
X90851428Y-126954657D01*
X88470476Y-125907038D02*
X88089523Y-125907038D01*
X88089523Y-125907038D02*
X87899047Y-126002276D01*
X87899047Y-126002276D02*
X87708571Y-126192752D01*
X87708571Y-126192752D02*
X87613333Y-126573704D01*
X87613333Y-126573704D02*
X87613333Y-127240371D01*
X87613333Y-127240371D02*
X87708571Y-127621323D01*
X87708571Y-127621323D02*
X87899047Y-127811800D01*
X87899047Y-127811800D02*
X88089523Y-127907038D01*
X88089523Y-127907038D02*
X88470476Y-127907038D01*
X88470476Y-127907038D02*
X88660952Y-127811800D01*
X88660952Y-127811800D02*
X88851428Y-127621323D01*
X88851428Y-127621323D02*
X88946666Y-127240371D01*
X88946666Y-127240371D02*
X88946666Y-126573704D01*
X88946666Y-126573704D02*
X88851428Y-126192752D01*
X88851428Y-126192752D02*
X88660952Y-126002276D01*
X88660952Y-126002276D02*
X88470476Y-125907038D01*
X86756190Y-127907038D02*
X86756190Y-125907038D01*
X86756190Y-125907038D02*
X86089523Y-127335609D01*
X86089523Y-127335609D02*
X85422857Y-125907038D01*
X85422857Y-125907038D02*
X85422857Y-127907038D01*
X81803809Y-127716561D02*
X81899047Y-127811800D01*
X81899047Y-127811800D02*
X82184761Y-127907038D01*
X82184761Y-127907038D02*
X82375237Y-127907038D01*
X82375237Y-127907038D02*
X82660952Y-127811800D01*
X82660952Y-127811800D02*
X82851428Y-127621323D01*
X82851428Y-127621323D02*
X82946666Y-127430847D01*
X82946666Y-127430847D02*
X83041904Y-127049895D01*
X83041904Y-127049895D02*
X83041904Y-126764180D01*
X83041904Y-126764180D02*
X82946666Y-126383228D01*
X82946666Y-126383228D02*
X82851428Y-126192752D01*
X82851428Y-126192752D02*
X82660952Y-126002276D01*
X82660952Y-126002276D02*
X82375237Y-125907038D01*
X82375237Y-125907038D02*
X82184761Y-125907038D01*
X82184761Y-125907038D02*
X81899047Y-126002276D01*
X81899047Y-126002276D02*
X81803809Y-126097514D01*
X81041904Y-127335609D02*
X80089523Y-127335609D01*
X81232380Y-127907038D02*
X80565714Y-125907038D01*
X80565714Y-125907038D02*
X79899047Y-127907038D01*
X78089523Y-127907038D02*
X78756190Y-126954657D01*
X79232380Y-127907038D02*
X79232380Y-125907038D01*
X79232380Y-125907038D02*
X78470475Y-125907038D01*
X78470475Y-125907038D02*
X78279999Y-126002276D01*
X78279999Y-126002276D02*
X78184761Y-126097514D01*
X78184761Y-126097514D02*
X78089523Y-126287990D01*
X78089523Y-126287990D02*
X78089523Y-126573704D01*
X78089523Y-126573704D02*
X78184761Y-126764180D01*
X78184761Y-126764180D02*
X78279999Y-126859419D01*
X78279999Y-126859419D02*
X78470475Y-126954657D01*
X78470475Y-126954657D02*
X79232380Y-126954657D01*
X77518094Y-125907038D02*
X76375237Y-125907038D01*
X76946666Y-127907038D02*
X76946666Y-125907038D01*
X74565713Y-127907038D02*
X75232380Y-126954657D01*
X75708570Y-127907038D02*
X75708570Y-125907038D01*
X75708570Y-125907038D02*
X74946665Y-125907038D01*
X74946665Y-125907038D02*
X74756189Y-126002276D01*
X74756189Y-126002276D02*
X74660951Y-126097514D01*
X74660951Y-126097514D02*
X74565713Y-126287990D01*
X74565713Y-126287990D02*
X74565713Y-126573704D01*
X74565713Y-126573704D02*
X74660951Y-126764180D01*
X74660951Y-126764180D02*
X74756189Y-126859419D01*
X74756189Y-126859419D02*
X74946665Y-126954657D01*
X74946665Y-126954657D02*
X75708570Y-126954657D01*
X73708570Y-127907038D02*
X73708570Y-125907038D01*
X72756189Y-127907038D02*
X72756189Y-125907038D01*
X72756189Y-125907038D02*
X72279999Y-125907038D01*
X72279999Y-125907038D02*
X71994284Y-126002276D01*
X71994284Y-126002276D02*
X71803808Y-126192752D01*
X71803808Y-126192752D02*
X71708570Y-126383228D01*
X71708570Y-126383228D02*
X71613332Y-126764180D01*
X71613332Y-126764180D02*
X71613332Y-127049895D01*
X71613332Y-127049895D02*
X71708570Y-127430847D01*
X71708570Y-127430847D02*
X71803808Y-127621323D01*
X71803808Y-127621323D02*
X71994284Y-127811800D01*
X71994284Y-127811800D02*
X72279999Y-127907038D01*
X72279999Y-127907038D02*
X72756189Y-127907038D01*
X69708570Y-126002276D02*
X69899046Y-125907038D01*
X69899046Y-125907038D02*
X70184760Y-125907038D01*
X70184760Y-125907038D02*
X70470475Y-126002276D01*
X70470475Y-126002276D02*
X70660951Y-126192752D01*
X70660951Y-126192752D02*
X70756189Y-126383228D01*
X70756189Y-126383228D02*
X70851427Y-126764180D01*
X70851427Y-126764180D02*
X70851427Y-127049895D01*
X70851427Y-127049895D02*
X70756189Y-127430847D01*
X70756189Y-127430847D02*
X70660951Y-127621323D01*
X70660951Y-127621323D02*
X70470475Y-127811800D01*
X70470475Y-127811800D02*
X70184760Y-127907038D01*
X70184760Y-127907038D02*
X69994284Y-127907038D01*
X69994284Y-127907038D02*
X69708570Y-127811800D01*
X69708570Y-127811800D02*
X69613332Y-127716561D01*
X69613332Y-127716561D02*
X69613332Y-127049895D01*
X69613332Y-127049895D02*
X69994284Y-127049895D01*
X68756189Y-126859419D02*
X68089522Y-126859419D01*
X67803808Y-127907038D02*
X68756189Y-127907038D01*
X68756189Y-127907038D02*
X68756189Y-125907038D01*
X68756189Y-125907038D02*
X67803808Y-125907038D01*
D13*
X96520000Y-115570000D03*
X93980000Y-115570000D03*
X91440000Y-115570000D03*
X88900000Y-115570000D03*
X86360000Y-115570000D03*
X83820000Y-115570000D03*
X81280000Y-115570000D03*
X78740000Y-115570000D03*
X76200000Y-115570000D03*
X73660000Y-115570000D03*
X71120000Y-115570000D03*
X68580000Y-115570000D03*
X66040000Y-115570000D03*
X63500000Y-115570000D03*
X63500000Y-130810000D03*
X66040000Y-130810000D03*
X68580000Y-130810000D03*
X71120000Y-130810000D03*
X73660000Y-130810000D03*
X76200000Y-130810000D03*
X78740000Y-130810000D03*
X81280000Y-130810000D03*
X83820000Y-130810000D03*
X86360000Y-130810000D03*
X88900000Y-130810000D03*
X91440000Y-130810000D03*
X93980000Y-130810000D03*
X96520000Y-130810000D03*
X92710000Y-110430000D03*
X92710000Y-105430000D03*
X99060000Y-125690000D03*
X99060000Y-120690000D03*
X88900000Y-104160000D03*
X86360000Y-104160000D03*
X83820000Y-104160000D03*
X81280000Y-104160000D03*
X78740000Y-104160000D03*
X76200000Y-104160000D03*
X73660000Y-104160000D03*
X73660000Y-111780000D03*
X76200000Y-111780000D03*
X78740000Y-111780000D03*
X81280000Y-111780000D03*
X83820000Y-111780000D03*
X86360000Y-111780000D03*
X88900000Y-111780000D03*
M02*
