%TF.GenerationSoftware,KiCad,Pcbnew,8.0.6+1*%
%TF.CreationDate,2024-12-12T19:09:17+01:00*%
%TF.ProjectId,short,73686f72-742e-46b6-9963-61645f706362,0*%
%TF.SameCoordinates,Original*%
%TF.FileFunction,Profile,NP*%
%FSLAX46Y46*%
G04 Gerber Fmt 4.6, Leading zero omitted, Abs format (unit mm)*
G04 Created by KiCad (PCBNEW 8.0.6+1) date 2024-12-12 19:09:17*
%MOMM*%
%LPD*%
G01*
G04 APERTURE LIST*
%TA.AperFunction,Profile*%
%ADD10C,0.100000*%
%TD*%
%ADD11C,0.350000*%
G04 APERTURE END LIST*
D10*
X100584000Y-101600000D02*
X61976000Y-101600000D01*
X85344000Y-136271000D02*
X85344000Y-144526000D01*
X100584000Y-101600000D02*
X100584000Y-144526000D01*
X85344000Y-144526000D02*
X61976000Y-144526000D01*
X61976000Y-101600000D02*
X61976000Y-144526000D01*
X87376000Y-144526000D02*
X87376000Y-136271000D01*
X100584000Y-144526000D02*
X87376000Y-144526000D01*
X67540000Y-107950000D02*
G75*
G02*
X64540000Y-107950000I-1500000J0D01*
G01*
X64540000Y-107950000D02*
G75*
G02*
X67540000Y-107950000I1500000J0D01*
G01*
X85344000Y-136271000D02*
G75*
G02*
X87376000Y-136271000I1016000J0D01*
G01*
X98020000Y-107950000D02*
G75*
G02*
X95020000Y-107950000I-1500000J0D01*
G01*
X95020000Y-107950000D02*
G75*
G02*
X98020000Y-107950000I1500000J0D01*
G01*
D11*
X96520000Y-115570000D03*
X93980000Y-115570000D03*
X91440000Y-115570000D03*
X88900000Y-115570000D03*
X86360000Y-115570000D03*
X83820000Y-115570000D03*
X81280000Y-115570000D03*
X78740000Y-115570000D03*
X76200000Y-115570000D03*
X73660000Y-115570000D03*
X71120000Y-115570000D03*
X68580000Y-115570000D03*
X66040000Y-115570000D03*
X63500000Y-115570000D03*
X63500000Y-130810000D03*
X66040000Y-130810000D03*
X68580000Y-130810000D03*
X71120000Y-130810000D03*
X73660000Y-130810000D03*
X76200000Y-130810000D03*
X78740000Y-130810000D03*
X81280000Y-130810000D03*
X83820000Y-130810000D03*
X86360000Y-130810000D03*
X88900000Y-130810000D03*
X91440000Y-130810000D03*
X93980000Y-130810000D03*
X96520000Y-130810000D03*
X92710000Y-110430000D03*
X92710000Y-105430000D03*
X99060000Y-125690000D03*
X99060000Y-120690000D03*
X88900000Y-104160000D03*
X86360000Y-104160000D03*
X83820000Y-104160000D03*
X81280000Y-104160000D03*
X78740000Y-104160000D03*
X76200000Y-104160000D03*
X73660000Y-104160000D03*
X73660000Y-111780000D03*
X76200000Y-111780000D03*
X78740000Y-111780000D03*
X81280000Y-111780000D03*
X83820000Y-111780000D03*
X86360000Y-111780000D03*
X88900000Y-111780000D03*
M02*
