%TF.GenerationSoftware,KiCad,Pcbnew,8.0.6+1*%
%TF.CreationDate,2024-12-12T19:09:17+01:00*%
%TF.ProjectId,short,73686f72-742e-46b6-9963-61645f706362,0*%
%TF.SameCoordinates,Original*%
%TF.FileFunction,Legend,Top*%
%TF.FilePolarity,Positive*%
%FSLAX46Y46*%
G04 Gerber Fmt 4.6, Leading zero omitted, Abs format (unit mm)*
G04 Created by KiCad (PCBNEW 8.0.6+1) date 2024-12-12 19:09:17*
%MOMM*%
%LPD*%
G01*
G04 APERTURE LIST*
%ADD10C,0.300000*%
%ADD11C,0.150000*%
%ADD12C,0.120000*%
%ADD13C,0.350000*%
G04 APERTURE END LIST*
D10*
X75506189Y-117676673D02*
X75506189Y-118569530D01*
X75506189Y-118569530D02*
X75446666Y-118748102D01*
X75446666Y-118748102D02*
X75327618Y-118867150D01*
X75327618Y-118867150D02*
X75149047Y-118926673D01*
X75149047Y-118926673D02*
X75029999Y-118926673D01*
X76696666Y-118926673D02*
X76101428Y-118926673D01*
X76101428Y-118926673D02*
X76101428Y-117676673D01*
X77827618Y-118807626D02*
X77768094Y-118867150D01*
X77768094Y-118867150D02*
X77589523Y-118926673D01*
X77589523Y-118926673D02*
X77470475Y-118926673D01*
X77470475Y-118926673D02*
X77291904Y-118867150D01*
X77291904Y-118867150D02*
X77172856Y-118748102D01*
X77172856Y-118748102D02*
X77113333Y-118629054D01*
X77113333Y-118629054D02*
X77053809Y-118390959D01*
X77053809Y-118390959D02*
X77053809Y-118212388D01*
X77053809Y-118212388D02*
X77113333Y-117974292D01*
X77113333Y-117974292D02*
X77172856Y-117855245D01*
X77172856Y-117855245D02*
X77291904Y-117736197D01*
X77291904Y-117736197D02*
X77470475Y-117676673D01*
X77470475Y-117676673D02*
X77589523Y-117676673D01*
X77589523Y-117676673D02*
X77768094Y-117736197D01*
X77768094Y-117736197D02*
X77827618Y-117795721D01*
X78720475Y-117676673D02*
X78720475Y-118569530D01*
X78720475Y-118569530D02*
X78660952Y-118748102D01*
X78660952Y-118748102D02*
X78541904Y-118867150D01*
X78541904Y-118867150D02*
X78363333Y-118926673D01*
X78363333Y-118926673D02*
X78244285Y-118926673D01*
X79910952Y-118926673D02*
X79315714Y-118926673D01*
X79315714Y-118926673D02*
X79315714Y-117676673D01*
X81041904Y-118807626D02*
X80982380Y-118867150D01*
X80982380Y-118867150D02*
X80803809Y-118926673D01*
X80803809Y-118926673D02*
X80684761Y-118926673D01*
X80684761Y-118926673D02*
X80506190Y-118867150D01*
X80506190Y-118867150D02*
X80387142Y-118748102D01*
X80387142Y-118748102D02*
X80327619Y-118629054D01*
X80327619Y-118629054D02*
X80268095Y-118390959D01*
X80268095Y-118390959D02*
X80268095Y-118212388D01*
X80268095Y-118212388D02*
X80327619Y-117974292D01*
X80327619Y-117974292D02*
X80387142Y-117855245D01*
X80387142Y-117855245D02*
X80506190Y-117736197D01*
X80506190Y-117736197D02*
X80684761Y-117676673D01*
X80684761Y-117676673D02*
X80803809Y-117676673D01*
X80803809Y-117676673D02*
X80982380Y-117736197D01*
X80982380Y-117736197D02*
X81041904Y-117795721D01*
X81934761Y-117676673D02*
X81934761Y-118569530D01*
X81934761Y-118569530D02*
X81875238Y-118748102D01*
X81875238Y-118748102D02*
X81756190Y-118867150D01*
X81756190Y-118867150D02*
X81577619Y-118926673D01*
X81577619Y-118926673D02*
X81458571Y-118926673D01*
X83125238Y-118926673D02*
X82530000Y-118926673D01*
X82530000Y-118926673D02*
X82530000Y-117676673D01*
X84256190Y-118807626D02*
X84196666Y-118867150D01*
X84196666Y-118867150D02*
X84018095Y-118926673D01*
X84018095Y-118926673D02*
X83899047Y-118926673D01*
X83899047Y-118926673D02*
X83720476Y-118867150D01*
X83720476Y-118867150D02*
X83601428Y-118748102D01*
X83601428Y-118748102D02*
X83541905Y-118629054D01*
X83541905Y-118629054D02*
X83482381Y-118390959D01*
X83482381Y-118390959D02*
X83482381Y-118212388D01*
X83482381Y-118212388D02*
X83541905Y-117974292D01*
X83541905Y-117974292D02*
X83601428Y-117855245D01*
X83601428Y-117855245D02*
X83720476Y-117736197D01*
X83720476Y-117736197D02*
X83899047Y-117676673D01*
X83899047Y-117676673D02*
X84018095Y-117676673D01*
X84018095Y-117676673D02*
X84196666Y-117736197D01*
X84196666Y-117736197D02*
X84256190Y-117795721D01*
X85149047Y-117676673D02*
X85149047Y-118569530D01*
X85149047Y-118569530D02*
X85089524Y-118748102D01*
X85089524Y-118748102D02*
X84970476Y-118867150D01*
X84970476Y-118867150D02*
X84791905Y-118926673D01*
X84791905Y-118926673D02*
X84672857Y-118926673D01*
X86339524Y-118926673D02*
X85744286Y-118926673D01*
X85744286Y-118926673D02*
X85744286Y-117676673D01*
X87470476Y-118807626D02*
X87410952Y-118867150D01*
X87410952Y-118867150D02*
X87232381Y-118926673D01*
X87232381Y-118926673D02*
X87113333Y-118926673D01*
X87113333Y-118926673D02*
X86934762Y-118867150D01*
X86934762Y-118867150D02*
X86815714Y-118748102D01*
X86815714Y-118748102D02*
X86756191Y-118629054D01*
X86756191Y-118629054D02*
X86696667Y-118390959D01*
X86696667Y-118390959D02*
X86696667Y-118212388D01*
X86696667Y-118212388D02*
X86756191Y-117974292D01*
X86756191Y-117974292D02*
X86815714Y-117855245D01*
X86815714Y-117855245D02*
X86934762Y-117736197D01*
X86934762Y-117736197D02*
X87113333Y-117676673D01*
X87113333Y-117676673D02*
X87232381Y-117676673D01*
X87232381Y-117676673D02*
X87410952Y-117736197D01*
X87410952Y-117736197D02*
X87470476Y-117795721D01*
D11*
X99514819Y-133818285D02*
X99514819Y-134389713D01*
X99514819Y-134103999D02*
X98514819Y-134103999D01*
X98514819Y-134103999D02*
X98657676Y-134199237D01*
X98657676Y-134199237D02*
X98752914Y-134294475D01*
X98752914Y-134294475D02*
X98800533Y-134389713D01*
X98991009Y-133056380D02*
X99038628Y-132913523D01*
X99038628Y-132913523D02*
X99086247Y-132865904D01*
X99086247Y-132865904D02*
X99181485Y-132818285D01*
X99181485Y-132818285D02*
X99324342Y-132818285D01*
X99324342Y-132818285D02*
X99419580Y-132865904D01*
X99419580Y-132865904D02*
X99467200Y-132913523D01*
X99467200Y-132913523D02*
X99514819Y-133008761D01*
X99514819Y-133008761D02*
X99514819Y-133389713D01*
X99514819Y-133389713D02*
X98514819Y-133389713D01*
X98514819Y-133389713D02*
X98514819Y-133056380D01*
X98514819Y-133056380D02*
X98562438Y-132961142D01*
X98562438Y-132961142D02*
X98610057Y-132913523D01*
X98610057Y-132913523D02*
X98705295Y-132865904D01*
X98705295Y-132865904D02*
X98800533Y-132865904D01*
X98800533Y-132865904D02*
X98895771Y-132913523D01*
X98895771Y-132913523D02*
X98943390Y-132961142D01*
X98943390Y-132961142D02*
X98991009Y-133056380D01*
X98991009Y-133056380D02*
X98991009Y-133389713D01*
X63954819Y-134294476D02*
X63954819Y-134865904D01*
X63954819Y-134580190D02*
X62954819Y-134580190D01*
X62954819Y-134580190D02*
X63097676Y-134675428D01*
X63097676Y-134675428D02*
X63192914Y-134770666D01*
X63192914Y-134770666D02*
X63240533Y-134865904D01*
X62954819Y-133389714D02*
X62954819Y-133865904D01*
X62954819Y-133865904D02*
X63431009Y-133913523D01*
X63431009Y-133913523D02*
X63383390Y-133865904D01*
X63383390Y-133865904D02*
X63335771Y-133770666D01*
X63335771Y-133770666D02*
X63335771Y-133532571D01*
X63335771Y-133532571D02*
X63383390Y-133437333D01*
X63383390Y-133437333D02*
X63431009Y-133389714D01*
X63431009Y-133389714D02*
X63526247Y-133342095D01*
X63526247Y-133342095D02*
X63764342Y-133342095D01*
X63764342Y-133342095D02*
X63859580Y-133389714D01*
X63859580Y-133389714D02*
X63907200Y-133437333D01*
X63907200Y-133437333D02*
X63954819Y-133532571D01*
X63954819Y-133532571D02*
X63954819Y-133770666D01*
X63954819Y-133770666D02*
X63907200Y-133865904D01*
X63907200Y-133865904D02*
X63859580Y-133913523D01*
X63431009Y-132580190D02*
X63478628Y-132437333D01*
X63478628Y-132437333D02*
X63526247Y-132389714D01*
X63526247Y-132389714D02*
X63621485Y-132342095D01*
X63621485Y-132342095D02*
X63764342Y-132342095D01*
X63764342Y-132342095D02*
X63859580Y-132389714D01*
X63859580Y-132389714D02*
X63907200Y-132437333D01*
X63907200Y-132437333D02*
X63954819Y-132532571D01*
X63954819Y-132532571D02*
X63954819Y-132913523D01*
X63954819Y-132913523D02*
X62954819Y-132913523D01*
X62954819Y-132913523D02*
X62954819Y-132580190D01*
X62954819Y-132580190D02*
X63002438Y-132484952D01*
X63002438Y-132484952D02*
X63050057Y-132437333D01*
X63050057Y-132437333D02*
X63145295Y-132389714D01*
X63145295Y-132389714D02*
X63240533Y-132389714D01*
X63240533Y-132389714D02*
X63335771Y-132437333D01*
X63335771Y-132437333D02*
X63383390Y-132484952D01*
X63383390Y-132484952D02*
X63431009Y-132580190D01*
X63431009Y-132580190D02*
X63431009Y-132913523D01*
X95958819Y-124166189D02*
X94958819Y-124166189D01*
X95863580Y-123118571D02*
X95911200Y-123166190D01*
X95911200Y-123166190D02*
X95958819Y-123309047D01*
X95958819Y-123309047D02*
X95958819Y-123404285D01*
X95958819Y-123404285D02*
X95911200Y-123547142D01*
X95911200Y-123547142D02*
X95815961Y-123642380D01*
X95815961Y-123642380D02*
X95720723Y-123689999D01*
X95720723Y-123689999D02*
X95530247Y-123737618D01*
X95530247Y-123737618D02*
X95387390Y-123737618D01*
X95387390Y-123737618D02*
X95196914Y-123689999D01*
X95196914Y-123689999D02*
X95101676Y-123642380D01*
X95101676Y-123642380D02*
X95006438Y-123547142D01*
X95006438Y-123547142D02*
X94958819Y-123404285D01*
X94958819Y-123404285D02*
X94958819Y-123309047D01*
X94958819Y-123309047D02*
X95006438Y-123166190D01*
X95006438Y-123166190D02*
X95054057Y-123118571D01*
X95054057Y-122737618D02*
X95006438Y-122689999D01*
X95006438Y-122689999D02*
X94958819Y-122594761D01*
X94958819Y-122594761D02*
X94958819Y-122356666D01*
X94958819Y-122356666D02*
X95006438Y-122261428D01*
X95006438Y-122261428D02*
X95054057Y-122213809D01*
X95054057Y-122213809D02*
X95149295Y-122166190D01*
X95149295Y-122166190D02*
X95244533Y-122166190D01*
X95244533Y-122166190D02*
X95387390Y-122213809D01*
X95387390Y-122213809D02*
X95958819Y-122785237D01*
X95958819Y-122785237D02*
X95958819Y-122166190D01*
X93323580Y-108096666D02*
X93371200Y-108144285D01*
X93371200Y-108144285D02*
X93418819Y-108287142D01*
X93418819Y-108287142D02*
X93418819Y-108382380D01*
X93418819Y-108382380D02*
X93371200Y-108525237D01*
X93371200Y-108525237D02*
X93275961Y-108620475D01*
X93275961Y-108620475D02*
X93180723Y-108668094D01*
X93180723Y-108668094D02*
X92990247Y-108715713D01*
X92990247Y-108715713D02*
X92847390Y-108715713D01*
X92847390Y-108715713D02*
X92656914Y-108668094D01*
X92656914Y-108668094D02*
X92561676Y-108620475D01*
X92561676Y-108620475D02*
X92466438Y-108525237D01*
X92466438Y-108525237D02*
X92418819Y-108382380D01*
X92418819Y-108382380D02*
X92418819Y-108287142D01*
X92418819Y-108287142D02*
X92466438Y-108144285D01*
X92466438Y-108144285D02*
X92514057Y-108096666D01*
X92514057Y-107715713D02*
X92466438Y-107668094D01*
X92466438Y-107668094D02*
X92418819Y-107572856D01*
X92418819Y-107572856D02*
X92418819Y-107334761D01*
X92418819Y-107334761D02*
X92466438Y-107239523D01*
X92466438Y-107239523D02*
X92514057Y-107191904D01*
X92514057Y-107191904D02*
X92609295Y-107144285D01*
X92609295Y-107144285D02*
X92704533Y-107144285D01*
X92704533Y-107144285D02*
X92847390Y-107191904D01*
X92847390Y-107191904D02*
X93418819Y-107763332D01*
X93418819Y-107763332D02*
X93418819Y-107144285D01*
X99419580Y-123356666D02*
X99467200Y-123404285D01*
X99467200Y-123404285D02*
X99514819Y-123547142D01*
X99514819Y-123547142D02*
X99514819Y-123642380D01*
X99514819Y-123642380D02*
X99467200Y-123785237D01*
X99467200Y-123785237D02*
X99371961Y-123880475D01*
X99371961Y-123880475D02*
X99276723Y-123928094D01*
X99276723Y-123928094D02*
X99086247Y-123975713D01*
X99086247Y-123975713D02*
X98943390Y-123975713D01*
X98943390Y-123975713D02*
X98752914Y-123928094D01*
X98752914Y-123928094D02*
X98657676Y-123880475D01*
X98657676Y-123880475D02*
X98562438Y-123785237D01*
X98562438Y-123785237D02*
X98514819Y-123642380D01*
X98514819Y-123642380D02*
X98514819Y-123547142D01*
X98514819Y-123547142D02*
X98562438Y-123404285D01*
X98562438Y-123404285D02*
X98610057Y-123356666D01*
X99514819Y-122404285D02*
X99514819Y-122975713D01*
X99514819Y-122689999D02*
X98514819Y-122689999D01*
X98514819Y-122689999D02*
X98657676Y-122785237D01*
X98657676Y-122785237D02*
X98752914Y-122880475D01*
X98752914Y-122880475D02*
X98800533Y-122975713D01*
X88338819Y-108946189D02*
X87338819Y-108946189D01*
X88243580Y-107898571D02*
X88291200Y-107946190D01*
X88291200Y-107946190D02*
X88338819Y-108089047D01*
X88338819Y-108089047D02*
X88338819Y-108184285D01*
X88338819Y-108184285D02*
X88291200Y-108327142D01*
X88291200Y-108327142D02*
X88195961Y-108422380D01*
X88195961Y-108422380D02*
X88100723Y-108469999D01*
X88100723Y-108469999D02*
X87910247Y-108517618D01*
X87910247Y-108517618D02*
X87767390Y-108517618D01*
X87767390Y-108517618D02*
X87576914Y-108469999D01*
X87576914Y-108469999D02*
X87481676Y-108422380D01*
X87481676Y-108422380D02*
X87386438Y-108327142D01*
X87386438Y-108327142D02*
X87338819Y-108184285D01*
X87338819Y-108184285D02*
X87338819Y-108089047D01*
X87338819Y-108089047D02*
X87386438Y-107946190D01*
X87386438Y-107946190D02*
X87434057Y-107898571D01*
X87338819Y-107565237D02*
X87338819Y-106946190D01*
X87338819Y-106946190D02*
X87719771Y-107279523D01*
X87719771Y-107279523D02*
X87719771Y-107136666D01*
X87719771Y-107136666D02*
X87767390Y-107041428D01*
X87767390Y-107041428D02*
X87815009Y-106993809D01*
X87815009Y-106993809D02*
X87910247Y-106946190D01*
X87910247Y-106946190D02*
X88148342Y-106946190D01*
X88148342Y-106946190D02*
X88243580Y-106993809D01*
X88243580Y-106993809D02*
X88291200Y-107041428D01*
X88291200Y-107041428D02*
X88338819Y-107136666D01*
X88338819Y-107136666D02*
X88338819Y-107422380D01*
X88338819Y-107422380D02*
X88291200Y-107517618D01*
X88291200Y-107517618D02*
X88243580Y-107565237D01*
D12*
%TO.C,IC2*%
X62170000Y-116730000D02*
X62170000Y-129650000D01*
X62170000Y-129650000D02*
X97850000Y-129650000D01*
X97850000Y-116730000D02*
X62170000Y-116730000D01*
X97850000Y-122190000D02*
X97850000Y-116730000D01*
X97850000Y-129650000D02*
X97850000Y-124190000D01*
X97850000Y-124190000D02*
G75*
G02*
X97850000Y-122190000I0J1000000D01*
G01*
%TO.C,C2*%
X91640000Y-105660000D02*
X91655000Y-105660000D01*
X91640000Y-110200000D02*
X91640000Y-105660000D01*
X91640000Y-110200000D02*
X91655000Y-110200000D01*
X93765000Y-105660000D02*
X93780000Y-105660000D01*
X93765000Y-110200000D02*
X93780000Y-110200000D01*
X93780000Y-110200000D02*
X93780000Y-105660000D01*
%TO.C,C1*%
X97990000Y-120920000D02*
X98005000Y-120920000D01*
X97990000Y-125460000D02*
X97990000Y-120920000D01*
X97990000Y-125460000D02*
X98005000Y-125460000D01*
X100115000Y-120920000D02*
X100130000Y-120920000D01*
X100115000Y-125460000D02*
X100130000Y-125460000D01*
X100130000Y-125460000D02*
X100130000Y-120920000D01*
%TO.C,IC3*%
X72330000Y-105320000D02*
X72330000Y-110620000D01*
X72330000Y-110620000D02*
X90230000Y-110620000D01*
X90230000Y-105320000D02*
X72330000Y-105320000D01*
X90230000Y-106970000D02*
X90230000Y-105320000D01*
X90230000Y-110620000D02*
X90230000Y-108970000D01*
X90230000Y-108970000D02*
G75*
G02*
X90230000Y-106970000I0J1000000D01*
G01*
%TD*%
D13*
X96520000Y-115570000D03*
X93980000Y-115570000D03*
X91440000Y-115570000D03*
X88900000Y-115570000D03*
X86360000Y-115570000D03*
X83820000Y-115570000D03*
X81280000Y-115570000D03*
X78740000Y-115570000D03*
X76200000Y-115570000D03*
X73660000Y-115570000D03*
X71120000Y-115570000D03*
X68580000Y-115570000D03*
X66040000Y-115570000D03*
X63500000Y-115570000D03*
X63500000Y-130810000D03*
X66040000Y-130810000D03*
X68580000Y-130810000D03*
X71120000Y-130810000D03*
X73660000Y-130810000D03*
X76200000Y-130810000D03*
X78740000Y-130810000D03*
X81280000Y-130810000D03*
X83820000Y-130810000D03*
X86360000Y-130810000D03*
X88900000Y-130810000D03*
X91440000Y-130810000D03*
X93980000Y-130810000D03*
X96520000Y-130810000D03*
X92710000Y-110430000D03*
X92710000Y-105430000D03*
X99060000Y-125690000D03*
X99060000Y-120690000D03*
X88900000Y-104160000D03*
X86360000Y-104160000D03*
X83820000Y-104160000D03*
X81280000Y-104160000D03*
X78740000Y-104160000D03*
X76200000Y-104160000D03*
X73660000Y-104160000D03*
X73660000Y-111780000D03*
X76200000Y-111780000D03*
X78740000Y-111780000D03*
X81280000Y-111780000D03*
X83820000Y-111780000D03*
X86360000Y-111780000D03*
X88900000Y-111780000D03*
M02*
