M48
; DRILL file {KiCad 8.0.6+1} date 2024-12-12T19:08:46+0100
; FORMAT={-:-/ absolute / metric / decimal}
; #@! TF.CreationDate,2024-12-12T19:08:46+01:00
; #@! TF.GenerationSoftware,Kicad,Pcbnew,8.0.6+1
; #@! TF.FileFunction,Plated,1,2,PTH
FMAT,2
METRIC
; #@! TA.AperFunction,Plated,PTH,ComponentDrill
T1C0.800
%
G90
G05
T1
X63.5Y-115.57
X63.5Y-130.81
X66.04Y-115.57
X66.04Y-130.81
X68.58Y-115.57
X68.58Y-130.81
X71.12Y-115.57
X71.12Y-130.81
X73.66Y-104.16
X73.66Y-111.78
X73.66Y-115.57
X73.66Y-130.81
X76.2Y-104.16
X76.2Y-111.78
X76.2Y-115.57
X76.2Y-130.81
X78.74Y-104.16
X78.74Y-111.78
X78.74Y-115.57
X78.74Y-130.81
X81.28Y-104.16
X81.28Y-111.78
X81.28Y-115.57
X81.28Y-130.81
X83.82Y-104.16
X83.82Y-111.78
X83.82Y-115.57
X83.82Y-130.81
X86.36Y-104.16
X86.36Y-111.78
X86.36Y-115.57
X86.36Y-130.81
X88.9Y-104.16
X88.9Y-111.78
X88.9Y-115.57
X88.9Y-130.81
X91.44Y-115.57
X91.44Y-130.81
X92.71Y-105.43
X92.71Y-110.43
X93.98Y-115.57
X93.98Y-130.81
X96.52Y-115.57
X96.52Y-130.81
X99.06Y-120.69
X99.06Y-125.69
M30
