%TF.GenerationSoftware,KiCad,Pcbnew,6.0.1-79c1e3a40b~116~ubuntu21.10.1*%
%TF.CreationDate,2022-02-04T17:00:20+01:00*%
%TF.ProjectId,QL_ROM_Cartridge_original,514c5f52-4f4d-45f4-9361-727472696467,rev?*%
%TF.SameCoordinates,Original*%
%TF.FileFunction,Copper,L2,Bot*%
%TF.FilePolarity,Positive*%
%FSLAX46Y46*%
G04 Gerber Fmt 4.6, Leading zero omitted, Abs format (unit mm)*
G04 Created by KiCad (PCBNEW 6.0.1-79c1e3a40b~116~ubuntu21.10.1) date 2022-02-04 17:00:20*
%MOMM*%
%LPD*%
G01*
G04 APERTURE LIST*
G04 Aperture macros list*
%AMRoundRect*
0 Rectangle with rounded corners*
0 $1 Rounding radius*
0 $2 $3 $4 $5 $6 $7 $8 $9 X,Y pos of 4 corners*
0 Add a 4 corners polygon primitive as box body*
4,1,4,$2,$3,$4,$5,$6,$7,$8,$9,$2,$3,0*
0 Add four circle primitives for the rounded corners*
1,1,$1+$1,$2,$3*
1,1,$1+$1,$4,$5*
1,1,$1+$1,$6,$7*
1,1,$1+$1,$8,$9*
0 Add four rect primitives between the rounded corners*
20,1,$1+$1,$2,$3,$4,$5,0*
20,1,$1+$1,$4,$5,$6,$7,0*
20,1,$1+$1,$6,$7,$8,$9,0*
20,1,$1+$1,$8,$9,$2,$3,0*%
G04 Aperture macros list end*
%ADD10C,0.300000*%
%TA.AperFunction,NonConductor*%
%ADD11C,0.300000*%
%TD*%
%TA.AperFunction,EtchedComponent*%
%ADD12C,0.300000*%
%TD*%
%TA.AperFunction,ComponentPad*%
%ADD13C,1.600000*%
%TD*%
%TA.AperFunction,ComponentPad*%
%ADD14O,1.600000X1.600000*%
%TD*%
%TA.AperFunction,ComponentPad*%
%ADD15R,1.600000X1.600000*%
%TD*%
%TA.AperFunction,ConnectorPad*%
%ADD16RoundRect,0.228600X-0.533400X-2.271400X0.533400X-2.271400X0.533400X2.271400X-0.533400X2.271400X0*%
%TD*%
%TA.AperFunction,ConnectorPad*%
%ADD17RoundRect,0.762000X0.000000X-1.738000X0.000000X-1.738000X0.000000X1.738000X0.000000X1.738000X0*%
%TD*%
%TA.AperFunction,ViaPad*%
%ADD18C,1.600000*%
%TD*%
%TA.AperFunction,ViaPad*%
%ADD19C,1.200000*%
%TD*%
%TA.AperFunction,Conductor*%
%ADD20C,1.000000*%
%TD*%
%TA.AperFunction,Conductor*%
%ADD21C,0.250000*%
%TD*%
G04 APERTURE END LIST*
D10*
D11*
X93332142Y-63543571D02*
X93832142Y-62829285D01*
X94189285Y-63543571D02*
X94189285Y-62043571D01*
X93617857Y-62043571D01*
X93475000Y-62115000D01*
X93403571Y-62186428D01*
X93332142Y-62329285D01*
X93332142Y-62543571D01*
X93403571Y-62686428D01*
X93475000Y-62757857D01*
X93617857Y-62829285D01*
X94189285Y-62829285D01*
X92689285Y-62757857D02*
X92189285Y-62757857D01*
X91975000Y-63543571D02*
X92689285Y-63543571D01*
X92689285Y-62043571D01*
X91975000Y-62043571D01*
X91332142Y-63543571D02*
X91332142Y-62043571D01*
X90760714Y-62043571D01*
X90617857Y-62115000D01*
X90546428Y-62186428D01*
X90475000Y-62329285D01*
X90475000Y-62543571D01*
X90546428Y-62686428D01*
X90617857Y-62757857D01*
X90760714Y-62829285D01*
X91332142Y-62829285D01*
X88975000Y-63543571D02*
X89475000Y-62829285D01*
X89832142Y-63543571D02*
X89832142Y-62043571D01*
X89260714Y-62043571D01*
X89117857Y-62115000D01*
X89046428Y-62186428D01*
X88975000Y-62329285D01*
X88975000Y-62543571D01*
X89046428Y-62686428D01*
X89117857Y-62757857D01*
X89260714Y-62829285D01*
X89832142Y-62829285D01*
X88046428Y-62043571D02*
X87760714Y-62043571D01*
X87617857Y-62115000D01*
X87475000Y-62257857D01*
X87403571Y-62543571D01*
X87403571Y-63043571D01*
X87475000Y-63329285D01*
X87617857Y-63472142D01*
X87760714Y-63543571D01*
X88046428Y-63543571D01*
X88189285Y-63472142D01*
X88332142Y-63329285D01*
X88403571Y-63043571D01*
X88403571Y-62543571D01*
X88332142Y-62257857D01*
X88189285Y-62115000D01*
X88046428Y-62043571D01*
X85117857Y-62757857D02*
X84903571Y-62829285D01*
X84832142Y-62900714D01*
X84760714Y-63043571D01*
X84760714Y-63257857D01*
X84832142Y-63400714D01*
X84903571Y-63472142D01*
X85046428Y-63543571D01*
X85617857Y-63543571D01*
X85617857Y-62043571D01*
X85117857Y-62043571D01*
X84975000Y-62115000D01*
X84903571Y-62186428D01*
X84832142Y-62329285D01*
X84832142Y-62472142D01*
X84903571Y-62615000D01*
X84975000Y-62686428D01*
X85117857Y-62757857D01*
X85617857Y-62757857D01*
X83832142Y-62829285D02*
X83832142Y-63543571D01*
X84332142Y-62043571D02*
X83832142Y-62829285D01*
X83332142Y-62043571D01*
X81760714Y-63115000D02*
X81046428Y-63115000D01*
X81903571Y-63543571D02*
X81403571Y-62043571D01*
X80903571Y-63543571D01*
X79689285Y-63543571D02*
X80403571Y-63543571D01*
X80403571Y-62043571D01*
X79189285Y-62757857D02*
X78689285Y-62757857D01*
X78475000Y-63543571D02*
X79189285Y-63543571D01*
X79189285Y-62043571D01*
X78475000Y-62043571D01*
X77903571Y-63115000D02*
X77189285Y-63115000D01*
X78046428Y-63543571D02*
X77546428Y-62043571D01*
X77046428Y-63543571D01*
D12*
%TO.C,J1*%
X96520000Y-141848200D02*
X96520000Y-141264000D01*
X91440000Y-141848200D02*
X91440000Y-141311000D01*
X81280000Y-141808200D02*
X81280000Y-141198600D01*
X93980000Y-141848200D02*
X93980000Y-141311000D01*
X76200000Y-141808200D02*
X76200000Y-141198600D01*
X71120000Y-141833600D02*
X71120000Y-141224000D01*
X68580000Y-141808200D02*
X68580000Y-141198600D01*
X88900000Y-141808200D02*
X88900000Y-141224000D01*
X83820000Y-141768200D02*
X83820000Y-141184000D01*
X78740000Y-141833600D02*
X78740000Y-141224000D01*
X63500000Y-141833600D02*
X63500000Y-141224000D01*
X73660000Y-141833600D02*
X73660000Y-141198600D01*
X66040000Y-141833600D02*
X66040000Y-141224000D01*
X99060000Y-141833600D02*
X99060000Y-141224000D01*
%TD*%
D13*
%TO.P,C1,1*%
%TO.N,VCC*%
X63580000Y-110490000D03*
D14*
%TO.P,C1,2*%
%TO.N,GND*%
X76080000Y-110490000D03*
%TD*%
D15*
%TO.P,IC3,1*%
%TO.N,/A15*%
X71120000Y-67310000D03*
D14*
%TO.P,IC3,2*%
%TO.N,/ROMOE*%
X73660000Y-67310000D03*
%TO.P,IC3,3*%
%TO.N,/U_ROMOE*%
X76200000Y-67310000D03*
%TO.P,IC3,4*%
%TO.N,/U2_CE*%
X78740000Y-67310000D03*
%TO.P,IC3,5*%
X81280000Y-67310000D03*
%TO.P,IC3,6*%
%TO.N,/U1_CE*%
X83820000Y-67310000D03*
%TO.P,IC3,7,GND*%
%TO.N,GND*%
X86360000Y-67310000D03*
%TO.P,IC3,8*%
%TO.N,/U2_CE*%
X86360000Y-59690000D03*
%TO.P,IC3,9*%
%TO.N,/A14*%
X83820000Y-59690000D03*
%TO.P,IC3,10*%
%TO.N,/A15*%
X81280000Y-59690000D03*
%TO.P,IC3,11*%
%TO.N,unconnected-(IC3-Pad11)*%
X78740000Y-59690000D03*
%TO.P,IC3,12*%
%TO.N,unconnected-(IC3-Pad12)*%
X76200000Y-59690000D03*
%TO.P,IC3,13*%
%TO.N,unconnected-(IC3-Pad13)*%
X73660000Y-59690000D03*
%TO.P,IC3,14,VCC*%
%TO.N,VCC*%
X71120000Y-59690000D03*
%TD*%
D16*
%TO.P,J1,2,N/C*%
%TO.N,unconnected-(J1-Pad2)*%
X99060000Y-138771000D03*
D17*
X99060000Y-137033000D03*
D16*
%TO.P,J1,4,A12*%
%TO.N,/A12*%
X96520000Y-138811000D03*
D17*
X96520000Y-137033000D03*
%TO.P,J1,6,A7*%
%TO.N,/A7*%
X93980000Y-137033000D03*
D16*
X93980000Y-138811000D03*
D17*
%TO.P,J1,8,A6*%
%TO.N,/A6*%
X91440000Y-137033000D03*
D16*
X91440000Y-138811000D03*
%TO.P,J1,10,A5*%
%TO.N,/A5*%
X88900000Y-138771000D03*
D17*
X88900000Y-136993000D03*
D16*
%TO.P,J1,12,A4*%
%TO.N,/A4*%
X83820000Y-138731000D03*
D17*
X83820000Y-136993000D03*
%TO.P,J1,14,A3*%
%TO.N,/A3*%
X81280000Y-137033000D03*
D16*
X81280000Y-138771000D03*
%TO.P,J1,16,A2*%
%TO.N,/A2*%
X78740000Y-138771000D03*
D17*
X78740000Y-137033000D03*
D16*
%TO.P,J1,18,A1*%
%TO.N,/A1*%
X76200000Y-138760200D03*
D17*
X76200000Y-137033000D03*
%TO.P,J1,20,A0*%
%TO.N,/A0*%
X73660000Y-137033000D03*
D16*
X73660000Y-138760200D03*
%TO.P,J1,22,D0*%
%TO.N,/D0*%
X71120000Y-138760200D03*
D17*
X71120000Y-137033000D03*
D16*
%TO.P,J1,24,D1*%
%TO.N,/D1*%
X68554600Y-138760200D03*
D17*
X68580000Y-136993000D03*
%TO.P,J1,26,D2*%
%TO.N,/D2*%
X66040000Y-137033000D03*
D16*
X66040000Y-138771000D03*
D17*
%TO.P,J1,28,GND*%
%TO.N,GND*%
X63500000Y-137033000D03*
D16*
X63500000Y-138771000D03*
%TD*%
D15*
%TO.P,IC1,1,VPP*%
%TO.N,VCC*%
X78745000Y-106670000D03*
D14*
%TO.P,IC1,2,A12*%
%TO.N,/A12*%
X78745000Y-104130000D03*
%TO.P,IC1,3,A7*%
%TO.N,/A7*%
X78745000Y-101590000D03*
%TO.P,IC1,4,A6*%
%TO.N,/A6*%
X78745000Y-99050000D03*
%TO.P,IC1,5,A5*%
%TO.N,/A5*%
X78745000Y-96510000D03*
%TO.P,IC1,6,A4*%
%TO.N,/A4*%
X78745000Y-93970000D03*
%TO.P,IC1,7,A3*%
%TO.N,/A3*%
X78745000Y-91430000D03*
%TO.P,IC1,8,A2*%
%TO.N,/A2*%
X78745000Y-88890000D03*
%TO.P,IC1,9,A1*%
%TO.N,/A1*%
X78745000Y-86350000D03*
%TO.P,IC1,10,A0*%
%TO.N,/A0*%
X78745000Y-83810000D03*
%TO.P,IC1,11,D0*%
%TO.N,/D0*%
X78745000Y-81270000D03*
%TO.P,IC1,12,D1*%
%TO.N,/D1*%
X78745000Y-78730000D03*
%TO.P,IC1,13,D2*%
%TO.N,/D2*%
X78745000Y-76190000D03*
%TO.P,IC1,14,GND*%
%TO.N,GND*%
X78745000Y-73650000D03*
%TO.P,IC1,15,D3*%
%TO.N,/D3*%
X63505000Y-73650000D03*
%TO.P,IC1,16,D4*%
%TO.N,/D4*%
X63505000Y-76190000D03*
%TO.P,IC1,17,D5*%
%TO.N,/D5*%
X63505000Y-78730000D03*
%TO.P,IC1,18,D6*%
%TO.N,/D6*%
X63505000Y-81270000D03*
%TO.P,IC1,19,D7*%
%TO.N,/D7*%
X63505000Y-83810000D03*
%TO.P,IC1,20,~{CE}*%
%TO.N,/U1_CE*%
X63505000Y-86350000D03*
%TO.P,IC1,21,A10*%
%TO.N,/A10*%
X63505000Y-88890000D03*
%TO.P,IC1,22,~{OE}*%
%TO.N,/U_ROMOE*%
X63505000Y-91430000D03*
%TO.P,IC1,23,A11*%
%TO.N,/A11*%
X63505000Y-93970000D03*
%TO.P,IC1,24,A9*%
%TO.N,/A9*%
X63505000Y-96510000D03*
%TO.P,IC1,25,A8*%
%TO.N,/A8*%
X63505000Y-99050000D03*
%TO.P,IC1,26,A13*%
%TO.N,/A13*%
X63505000Y-101590000D03*
%TO.P,IC1,27,~{PGM}*%
%TO.N,VCC*%
X63505000Y-104130000D03*
%TO.P,IC1,28,VCC*%
X63505000Y-106670000D03*
%TD*%
D13*
%TO.P,C2,1*%
%TO.N,VCC*%
X96420000Y-110490000D03*
D14*
%TO.P,C2,2*%
%TO.N,GND*%
X83920000Y-110490000D03*
%TD*%
D15*
%TO.P,IC2,1,VPP*%
%TO.N,VCC*%
X98425000Y-106680000D03*
D14*
%TO.P,IC2,2,A12*%
%TO.N,/A12*%
X98425000Y-104140000D03*
%TO.P,IC2,3,A7*%
%TO.N,/A7*%
X98425000Y-101600000D03*
%TO.P,IC2,4,A6*%
%TO.N,/A6*%
X98425000Y-99060000D03*
%TO.P,IC2,5,A5*%
%TO.N,/A5*%
X98425000Y-96520000D03*
%TO.P,IC2,6,A4*%
%TO.N,/A4*%
X98425000Y-93980000D03*
%TO.P,IC2,7,A3*%
%TO.N,/A3*%
X98425000Y-91440000D03*
%TO.P,IC2,8,A2*%
%TO.N,/A2*%
X98425000Y-88900000D03*
%TO.P,IC2,9,A1*%
%TO.N,/A1*%
X98425000Y-86360000D03*
%TO.P,IC2,10,A0*%
%TO.N,/A0*%
X98425000Y-83820000D03*
%TO.P,IC2,11,D0*%
%TO.N,/D0*%
X98425000Y-81280000D03*
%TO.P,IC2,12,D1*%
%TO.N,/D1*%
X98425000Y-78740000D03*
%TO.P,IC2,13,D2*%
%TO.N,/D2*%
X98425000Y-76200000D03*
%TO.P,IC2,14,GND*%
%TO.N,GND*%
X98425000Y-73660000D03*
%TO.P,IC2,15,D3*%
%TO.N,/D3*%
X83185000Y-73660000D03*
%TO.P,IC2,16,D4*%
%TO.N,/D4*%
X83185000Y-76200000D03*
%TO.P,IC2,17,D5*%
%TO.N,/D5*%
X83185000Y-78740000D03*
%TO.P,IC2,18,D6*%
%TO.N,/D6*%
X83185000Y-81280000D03*
%TO.P,IC2,19,D7*%
%TO.N,/D7*%
X83185000Y-83820000D03*
%TO.P,IC2,20,~{CE}*%
%TO.N,/U2_CE*%
X83185000Y-86360000D03*
%TO.P,IC2,21,A10*%
%TO.N,/A10*%
X83185000Y-88900000D03*
%TO.P,IC2,22,~{OE}*%
%TO.N,/U_ROMOE*%
X83185000Y-91440000D03*
%TO.P,IC2,23,A11*%
%TO.N,/A11*%
X83185000Y-93980000D03*
%TO.P,IC2,24,A9*%
%TO.N,/A9*%
X83185000Y-96520000D03*
%TO.P,IC2,25,A8*%
%TO.N,/A8*%
X83185000Y-99060000D03*
%TO.P,IC2,26,A13*%
%TO.N,/A13*%
X83185000Y-101600000D03*
%TO.P,IC2,27,~{PGM}*%
%TO.N,VCC*%
X83185000Y-104140000D03*
%TO.P,IC2,28,VCC*%
X83185000Y-106680000D03*
%TD*%
D18*
%TO.N,VCC*%
X76200000Y-72390000D03*
X76200000Y-106695000D03*
X99060000Y-132715000D03*
%TO.N,GND*%
X63500000Y-114300000D03*
X86360000Y-71374000D03*
D19*
%TO.N,/D3*%
X66040000Y-121920000D03*
%TO.N,/D4*%
X66040000Y-77470000D03*
X66040000Y-125730000D03*
%TO.N,/D5*%
X67056000Y-80010000D03*
X68580000Y-118364000D03*
%TO.N,/D6*%
X68072000Y-82550000D03*
X71120000Y-118364000D03*
%TO.N,/D7*%
X73660000Y-118364000D03*
X69088000Y-85090000D03*
%TO.N,/A15*%
X78740000Y-111760000D03*
X79375000Y-71120000D03*
%TO.N,/A10*%
X70104000Y-90170000D03*
X78740000Y-118364000D03*
%TO.N,/ROMOE*%
X81280000Y-69850000D03*
X81280000Y-112395000D03*
%TO.N,/A11*%
X71628000Y-95250000D03*
X81280000Y-116840000D03*
%TO.N,/A9*%
X83185000Y-115824000D03*
X72644000Y-97790000D03*
%TO.N,/A8*%
X73660000Y-100330000D03*
X85090000Y-114808000D03*
%TO.N,/A13*%
X74676000Y-102870000D03*
X85725000Y-112395000D03*
%TO.N,/U1_CE*%
X70612000Y-87630000D03*
%TO.N,/U2_CE*%
X73025000Y-87630000D03*
%TO.N,/U_ROMOE*%
X72136000Y-92710000D03*
%TD*%
D20*
%TO.N,VCC*%
X98425000Y-132080000D02*
X99060000Y-132715000D01*
X76200000Y-106695000D02*
X76200000Y-72390000D01*
X63505000Y-104155000D02*
X63505000Y-106695000D01*
X98425000Y-108585000D02*
X96420000Y-110490000D01*
X98425000Y-106680000D02*
X98425000Y-108585000D01*
X83185000Y-104140000D02*
X83185000Y-106680000D01*
X98425000Y-108458000D02*
X98425000Y-132080000D01*
%TO.N,GND*%
X63500000Y-114300000D02*
X63500000Y-137033000D01*
X83920000Y-110490000D02*
X86360000Y-108050000D01*
X86355000Y-67325000D02*
X86355000Y-77465000D01*
X86355000Y-77465000D02*
X86360000Y-77470000D01*
X86360000Y-108050000D02*
X86360000Y-77470000D01*
D21*
%TO.N,/D3*%
X64770000Y-74940000D02*
X63505000Y-73675000D01*
X64770000Y-120650000D02*
X64770000Y-74940000D01*
X66040000Y-121920000D02*
X64770000Y-120650000D01*
%TO.N,/D4*%
X67310000Y-124460000D02*
X66040000Y-125730000D01*
X66040000Y-118424040D02*
X67310000Y-119694040D01*
X67310000Y-119694040D02*
X67310000Y-124460000D01*
X66040000Y-77470000D02*
X66040000Y-118424040D01*
%TO.N,/D2*%
X74295000Y-120650000D02*
X81280000Y-120650000D01*
X93355000Y-76190000D02*
X98425000Y-76190000D01*
X66040000Y-128905000D02*
X74295000Y-120650000D01*
X87630000Y-114300000D02*
X87630000Y-81915000D01*
X87630000Y-81915000D02*
X93355000Y-76190000D01*
X66040000Y-128905000D02*
X66040000Y-137033000D01*
X81280000Y-120650000D02*
X87630000Y-114300000D01*
%TO.N,/D5*%
X67056000Y-116840000D02*
X67056000Y-80010000D01*
X68580000Y-118364000D02*
X67056000Y-116840000D01*
%TO.N,/D1*%
X75565000Y-121285000D02*
X81915000Y-121285000D01*
X93355000Y-78730000D02*
X98425000Y-78730000D01*
X68580000Y-128270000D02*
X68580000Y-136993000D01*
X68580000Y-128270000D02*
X75565000Y-121285000D01*
X81915000Y-121285000D02*
X88265000Y-114935000D01*
X88265000Y-114935000D02*
X88265000Y-83820000D01*
X88265000Y-83820000D02*
X93355000Y-78730000D01*
%TO.N,/D6*%
X68072000Y-115316000D02*
X68072000Y-82550000D01*
X71120000Y-118364000D02*
X68072000Y-115316000D01*
%TO.N,/D0*%
X78105000Y-121920000D02*
X82550000Y-121920000D01*
X88900000Y-115570000D02*
X88900000Y-85725000D01*
X71120000Y-128905000D02*
X78105000Y-121920000D01*
X82550000Y-121920000D02*
X88900000Y-115570000D01*
X71120000Y-128905000D02*
X71120000Y-137033000D01*
X88900000Y-85725000D02*
X93355000Y-81270000D01*
X93355000Y-81270000D02*
X98425000Y-81270000D01*
%TO.N,/D7*%
X69088000Y-113792000D02*
X69088000Y-85090000D01*
X73660000Y-118364000D02*
X69088000Y-113792000D01*
%TO.N,/A0*%
X93990000Y-83810000D02*
X98425000Y-83810000D01*
X89535000Y-116205000D02*
X89535000Y-88265000D01*
X83185000Y-122555000D02*
X89535000Y-116205000D01*
X79375000Y-122555000D02*
X83185000Y-122555000D01*
X89535000Y-88265000D02*
X93990000Y-83810000D01*
X73660000Y-128270000D02*
X73660000Y-137033000D01*
X73660000Y-128270000D02*
X79375000Y-122555000D01*
%TO.N,/A15*%
X80645000Y-109855000D02*
X80645000Y-72390000D01*
X78740000Y-111760000D02*
X80645000Y-109855000D01*
X80645000Y-72390000D02*
X79375000Y-71120000D01*
%TO.N,/A1*%
X76200000Y-128905000D02*
X76200000Y-137033000D01*
X90170000Y-90805000D02*
X94625000Y-86350000D01*
X90170000Y-116840000D02*
X90170000Y-90805000D01*
X83820000Y-123190000D02*
X90170000Y-116840000D01*
X94625000Y-86350000D02*
X98425000Y-86350000D01*
X81915000Y-123190000D02*
X83820000Y-123190000D01*
X76200000Y-128905000D02*
X81915000Y-123190000D01*
%TO.N,/A10*%
X70104000Y-112014000D02*
X70104000Y-90170000D01*
X78740000Y-118364000D02*
X76454000Y-118364000D01*
X76454000Y-118364000D02*
X70104000Y-112014000D01*
%TO.N,/A2*%
X78740000Y-128905000D02*
X83502500Y-124142500D01*
X84137500Y-124142500D02*
X90805000Y-117475000D01*
X94625000Y-88890000D02*
X98425000Y-88890000D01*
X90805000Y-92710000D02*
X94625000Y-88890000D01*
X90805000Y-117475000D02*
X90805000Y-92710000D01*
X83502500Y-124142500D02*
X84137500Y-124142500D01*
X78740000Y-128905000D02*
X78740000Y-137033000D01*
%TO.N,/ROMOE*%
X81280000Y-112395000D02*
X81280000Y-69850000D01*
%TO.N,/A3*%
X98425000Y-91430000D02*
X93990000Y-91430000D01*
X81280000Y-128270000D02*
X91440000Y-118110000D01*
X81280000Y-128270000D02*
X81280000Y-137033000D01*
X93990000Y-91430000D02*
X91440000Y-93980000D01*
X91440000Y-93980000D02*
X91440000Y-118110000D01*
%TO.N,/A11*%
X81280000Y-116840000D02*
X76200000Y-116840000D01*
X71628000Y-112268000D02*
X71628000Y-95250000D01*
X76200000Y-116840000D02*
X71628000Y-112268000D01*
%TO.N,/A4*%
X94625000Y-93970000D02*
X92075000Y-96520000D01*
X92075000Y-119380000D02*
X83820000Y-127635000D01*
X98425000Y-93970000D02*
X94625000Y-93970000D01*
X92075000Y-96520000D02*
X92075000Y-119380000D01*
X83820000Y-127635000D02*
X83820000Y-136993000D01*
%TO.N,/A9*%
X83185000Y-115824000D02*
X76454000Y-115824000D01*
X72644000Y-112014000D02*
X72644000Y-97790000D01*
X76454000Y-115824000D02*
X72644000Y-112014000D01*
%TO.N,/A5*%
X94625000Y-96510000D02*
X92710000Y-98425000D01*
X88900000Y-124460000D02*
X88900000Y-136993000D01*
X92710000Y-98425000D02*
X92710000Y-120650000D01*
X92710000Y-120650000D02*
X88900000Y-124460000D01*
X98425000Y-96510000D02*
X94625000Y-96510000D01*
%TO.N,/A8*%
X76708000Y-114808000D02*
X73660000Y-111760000D01*
X73660000Y-111760000D02*
X73660000Y-100330000D01*
X85090000Y-114808000D02*
X76708000Y-114808000D01*
%TO.N,/A6*%
X91440000Y-125730000D02*
X91440000Y-137033000D01*
X98425000Y-99050000D02*
X95260000Y-99050000D01*
X95260000Y-99050000D02*
X93345000Y-100965000D01*
X93345000Y-123825000D02*
X91440000Y-125730000D01*
X93345000Y-100965000D02*
X93345000Y-123825000D01*
%TO.N,/A13*%
X76835000Y-113665000D02*
X84455000Y-113665000D01*
X74676000Y-111506000D02*
X76835000Y-113665000D01*
X84455000Y-113665000D02*
X85725000Y-112395000D01*
X74676000Y-102870000D02*
X74676000Y-111506000D01*
%TO.N,/A7*%
X95895000Y-101590000D02*
X93980000Y-103505000D01*
X93980000Y-103505000D02*
X93980000Y-137033000D01*
X98425000Y-101590000D02*
X95895000Y-101590000D01*
%TO.N,/A12*%
X94612500Y-114297500D02*
X96520000Y-116205000D01*
X94615000Y-106045000D02*
X94615000Y-109220000D01*
X96530000Y-104130000D02*
X94615000Y-106045000D01*
X96520000Y-116205000D02*
X96520000Y-137033000D01*
X94612500Y-108582500D02*
X94612500Y-114297500D01*
X94615000Y-109220000D02*
X94612500Y-109217500D01*
X98425000Y-104130000D02*
X96530000Y-104130000D01*
%TO.N,/U1_CE*%
X69850000Y-64770000D02*
X82550000Y-64770000D01*
X70612000Y-71247000D02*
X69215000Y-69850000D01*
X70612000Y-87630000D02*
X70612000Y-71247000D01*
X82550000Y-64770000D02*
X83815000Y-66035000D01*
X69215000Y-65405000D02*
X69850000Y-64770000D01*
X69215000Y-69850000D02*
X69215000Y-65405000D01*
X83815000Y-66035000D02*
X83815000Y-67325000D01*
%TO.N,/U2_CE*%
X76835713Y-69214287D02*
X76835713Y-69215713D01*
X81275000Y-67325000D02*
X79184520Y-67325000D01*
X73025000Y-73035000D02*
X76835713Y-69215713D01*
X78740000Y-67310000D02*
X76835713Y-69214287D01*
X73025000Y-87630000D02*
X73025000Y-73035000D01*
%TO.N,/U_ROMOE*%
X72100489Y-71419511D02*
X76195000Y-67325000D01*
X72136000Y-92710000D02*
X72100489Y-92674489D01*
X72100489Y-92674489D02*
X72100489Y-71419511D01*
%TD*%
M02*
