M48
; DRILL file {KiCad 6.0.1-79c1e3a40b~116~ubuntu21.10.1} date vie 04 feb 2022 17:00:18
; FORMAT={-:-/ absolute / inch / decimal}
; #@! TF.CreationDate,2022-02-04T17:00:18+01:00
; #@! TF.GenerationSoftware,Kicad,Pcbnew,6.0.1-79c1e3a40b~116~ubuntu21.10.1
; #@! TF.FileFunction,Plated,1,2,PTH
FMAT,2
INCH
; #@! TA.AperFunction,Plated,PTH,ViaDrill
T1C0.0315
; #@! TA.AperFunction,Plated,PTH,ComponentDrill
T2C0.0315
%
G90
G05
T1
X2.5Y-4.5
X2.6Y-3.05
X2.6Y-4.8
X2.6Y-4.95
X2.64Y-3.15
X2.68Y-3.25
X2.7Y-4.66
X2.72Y-3.35
X2.76Y-3.55
X2.78Y-3.45
X2.8Y-4.66
X2.82Y-3.75
X2.84Y-3.65
X2.86Y-3.85
X2.875Y-3.45
X2.9Y-3.95
X2.9Y-4.66
X2.94Y-4.05
X3.0Y-2.85
X3.0Y-4.2006
X3.1Y-4.4
X3.1Y-4.66
X3.125Y-2.8
X3.2Y-2.75
X3.2Y-4.425
X3.2Y-4.6
X3.275Y-4.56
X3.35Y-4.52
X3.375Y-4.425
X3.4Y-2.81
X3.9Y-5.225
T2
X2.5002Y-2.8996
X2.5002Y-2.9996
X2.5002Y-3.0996
X2.5002Y-3.1996
X2.5002Y-3.2996
X2.5002Y-3.3996
X2.5002Y-3.4996
X2.5002Y-3.5996
X2.5002Y-3.6996
X2.5002Y-3.7996
X2.5002Y-3.8996
X2.5002Y-3.9996
X2.5002Y-4.0996
X2.5002Y-4.1996
X2.5031Y-4.35
X2.8Y-2.35
X2.8Y-2.65
X2.9Y-2.35
X2.9Y-2.65
X2.9953Y-4.35
X3.0Y-2.35
X3.0Y-2.65
X3.1Y-2.35
X3.1Y-2.65
X3.1002Y-2.8996
X3.1002Y-2.9996
X3.1002Y-3.0996
X3.1002Y-3.1996
X3.1002Y-3.2996
X3.1002Y-3.3996
X3.1002Y-3.4996
X3.1002Y-3.5996
X3.1002Y-3.6996
X3.1002Y-3.7996
X3.1002Y-3.8996
X3.1002Y-3.9996
X3.1002Y-4.0996
X3.1002Y-4.1996
X3.2Y-2.35
X3.2Y-2.65
X3.275Y-2.9
X3.275Y-3.0
X3.275Y-3.1
X3.275Y-3.2
X3.275Y-3.3
X3.275Y-3.4
X3.275Y-3.5
X3.275Y-3.6
X3.275Y-3.7
X3.275Y-3.8
X3.275Y-3.9
X3.275Y-4.0
X3.275Y-4.1
X3.275Y-4.2
X3.3Y-2.35
X3.3Y-2.65
X3.3039Y-4.35
X3.4Y-2.35
X3.4Y-2.65
X3.7961Y-4.35
X3.875Y-2.9
X3.875Y-3.0
X3.875Y-3.1
X3.875Y-3.2
X3.875Y-3.3
X3.875Y-3.4
X3.875Y-3.5
X3.875Y-3.6
X3.875Y-3.7
X3.875Y-3.8
X3.875Y-3.9
X3.875Y-4.0
X3.875Y-4.1
X3.875Y-4.2
T0
M30
